Bungee-Regular.ufo
<glyph name="quotedbl" format="1">
  <advance width="646"/>
  <unicode hex="0022"/>
  <outline>
    <contour>
      <point x="240" y="345" type="line" smooth="yes"/>
      <point x="275" y="345"/>
      <point x="280" y="351"/>
      <point x="282" y="386" type="curve"/>
      <point x="290" y="679" type="line" smooth="yes"/>
      <point x="291" y="714"/>
      <point x="285" y="720"/>
      <point x="251" y="720" type="curve" smooth="yes"/>
      <point x="86" y="720" type="line" smooth="yes"/>
      <point x="51" y="720"/>
      <point x="45" y="714"/>
      <point x="46" y="679" type="curve" smooth="yes"/>
      <point x="54" y="386" type="line" smooth="yes"/>
      <point x="55" y="351"/>
      <point x="61" y="345"/>
      <point x="96" y="345" type="curve" smooth="yes"/>
    </contour>
    <contour>
      <point x="550" y="345" type="line" smooth="yes"/>
      <point x="585" y="345"/>
      <point x="590" y="351"/>
      <point x="592" y="386" type="curve"/>
      <point x="600" y="679" type="line" smooth="yes"/>
      <point x="601" y="714"/>
      <point x="595" y="720"/>
      <point x="561" y="720" type="curve" smooth="yes"/>
      <point x="396" y="720" type="line" smooth="yes"/>
      <point x="361" y="720"/>
      <point x="355" y="714"/>
      <point x="356" y="679" type="curve" smooth="yes"/>
      <point x="364" y="386" type="line" smooth="yes"/>
      <point x="365" y="351"/>
      <point x="371" y="345"/>
      <point x="406" y="345" type="curve" smooth="yes"/>
    </contour>
  </outline>
</glyph>
<glyph name="plus" format="1">
  <advance width="734"/>
  <unicode hex="002B"/>
  <outline>
    <contour>
      <point x="106" y="267" type="curve"/>
      <point x="628" y="267" type="line" smooth="yes"/>
      <point x="653" y="267"/>
      <point x="664" y="277"/>
      <point x="664" y="303" type="curve" smooth="yes"/>
      <point x="664" y="417" type="line" smooth="yes"/>
      <point x="664" y="443"/>
      <point x="653" y="453"/>
      <point x="628" y="453" type="curve" smooth="yes"/>
      <point x="106" y="453" type="line" smooth="yes"/>
      <point x="81" y="453"/>
      <point x="70" y="442"/>
      <point x="70" y="417" type="curve" smooth="yes"/>
      <point x="70" y="303" type="line" smooth="yes"/>
      <point x="70" y="277"/>
      <point x="81" y="267"/>
    </contour>
    <contour>
      <point x="269" y="621" type="curve"/>
      <point x="269" y="99" type="line" smooth="yes"/>
      <point x="269" y="74"/>
      <point x="279" y="63"/>
      <point x="305" y="63" type="curve" smooth="yes"/>
      <point x="429" y="63" type="line" smooth="yes"/>
      <point x="455" y="63"/>
      <point x="465" y="74"/>
      <point x="465" y="99" type="curve" smooth="yes"/>
      <point x="465" y="621" type="line" smooth="yes"/>
      <point x="465" y="646"/>
      <point x="454" y="657"/>
      <point x="429" y="657" type="curve" smooth="yes"/>
      <point x="305" y="657" type="line" smooth="yes"/>
      <point x="279" y="657"/>
      <point x="269" y="646"/>
    </contour>
  </outline>
</glyph>
<glyph name="period" format="1">
  <advance width="384"/>
  <unicode hex="002E"/>
  <outline>
    <contour>
      <point x="293.0" y="0.0" type="line" smooth="yes"/>
      <point x="318.0" y="0.0"/>
      <point x="329.0" y="11.0"/>
      <point x="329.0" y="36.0" type="curve" smooth="yes"/>
      <point x="329.0" y="239.0" type="line" smooth="yes"/>
      <point x="329.0" y="265.0"/>
      <point x="318.0" y="275.0"/>
      <point x="293.0" y="275.0" type="curve" smooth="yes"/>
      <point x="91.0" y="275.0" type="line" smooth="yes"/>
      <point x="66.0" y="275.0"/>
      <point x="55.0" y="265.0"/>
      <point x="55.0" y="239.0" type="curve"/>
      <point x="55.0" y="36.0" type="line"/>
      <point x="55.0" y="11.0"/>
      <point x="66.0" y="0.0"/>
      <point x="91.0" y="0.0" type="curve" smooth="yes"/>
    </contour>
  </outline>
</glyph>
<glyph name="two" format="1">
  <advance width="639"/>
  <unicode hex="0032"/>
  <outline>
    <contour>
      <point x="552" y="0" type="line" smooth="yes"/>
      <point x="577" y="0"/>
      <point x="588" y="11"/>
      <point x="588" y="36" type="curve" smooth="yes"/>
      <point x="588" y="153" type="line" smooth="yes"/>
      <point x="588" y="178"/>
      <point x="577" y="189"/>
      <point x="552" y="189" type="curve"/>
      <point x="267" y="189" type="line"/>
      <point x="267" y="210" type="line" smooth="yes"/>
      <point x="267" y="232"/>
      <point x="273" y="234"/>
      <point x="293" y="240" type="curve" smooth="yes"/>
      <point x="429" y="283" type="line" smooth="yes"/>
      <point x="526" y="313"/>
      <point x="585" y="359"/>
      <point x="585" y="460" type="curve" smooth="yes"/>
      <point x="585" y="554" type="line" smooth="yes"/>
      <point x="585" y="662"/>
      <point x="523" y="720"/>
      <point x="409" y="720" type="curve" smooth="yes"/>
      <point x="114" y="720" type="line" smooth="yes"/>
      <point x="89" y="720"/>
      <point x="78" y="709"/>
      <point x="78" y="684" type="curve" smooth="yes"/>
      <point x="78" y="567" type="line" smooth="yes"/>
      <point x="78" y="542"/>
      <point x="89" y="531"/>
      <point x="114" y="531" type="curve" smooth="yes"/>
      <point x="331" y="531" type="line" smooth="yes"/>
      <point x="351" y="531"/>
      <point x="358" y="525"/>
      <point x="358" y="505" type="curve" smooth="yes"/>
      <point x="358" y="483"/>
      <point x="352" y="475"/>
      <point x="331" y="469" type="curve" smooth="yes"/>
      <point x="197" y="427" type="line" smooth="yes"/>
      <point x="105" y="399"/>
      <point x="40" y="363"/>
      <point x="40" y="208" type="curve" smooth="yes"/>
      <point x="40" y="36" type="line" smooth="yes"/>
      <point x="40" y="11"/>
      <point x="51" y="0"/>
      <point x="76" y="0" type="curve" smooth="yes"/>
    </contour>
  </outline>
</glyph>
<glyph name="three" format="1">
  <advance width="637"/>
  <unicode hex="0033"/>
  <outline>
    <contour>
      <point x="85" y="189" type="line" smooth="yes"/>
      <point x="60" y="189"/>
      <point x="49" y="178"/>
      <point x="49" y="153" type="curve" smooth="yes"/>
      <point x="49" y="36" type="line" smooth="yes"/>
      <point x="49" y="11"/>
      <point x="60" y="0"/>
      <point x="85" y="0" type="curve" smooth="yes"/>
      <point x="401" y="0" type="line" smooth="yes"/>
      <point x="529" y="0"/>
      <point x="595" y="63"/>
      <point x="595" y="166" type="curve" smooth="yes"/>
      <point x="595" y="266" type="line" smooth="yes"/>
      <point x="595" y="354"/>
      <point x="564" y="400"/>
      <point x="469" y="411" type="curve"/>
      <point x="513" y="430"/>
      <point x="528" y="468"/>
      <point x="528" y="519" type="curve" smooth="yes"/>
      <point x="528" y="577" type="line" smooth="yes"/>
      <point x="528" y="665"/>
      <point x="475" y="720"/>
      <point x="364" y="720" type="curve" smooth="yes"/>
      <point x="85" y="720" type="line" smooth="yes"/>
      <point x="60" y="720"/>
      <point x="49" y="709"/>
      <point x="49" y="684" type="curve" smooth="yes"/>
      <point x="49" y="565" type="line" smooth="yes"/>
      <point x="49" y="540"/>
      <point x="60" y="529"/>
      <point x="85" y="529" type="curve" smooth="yes"/>
      <point x="271" y="529" type="line" smooth="yes"/>
      <point x="303" y="529"/>
      <point x="309" y="515"/>
      <point x="309" y="499" type="curve" smooth="yes"/>
      <point x="309" y="484" type="line" smooth="yes"/>
      <point x="309" y="468"/>
      <point x="303" y="454"/>
      <point x="271" y="454" type="curve" smooth="yes"/>
      <point x="166" y="454" type="line" smooth="yes"/>
      <point x="141" y="454"/>
      <point x="130" y="443"/>
      <point x="130" y="418" type="curve" smooth="yes"/>
      <point x="130" y="311" type="line" smooth="yes"/>
      <point x="130" y="286"/>
      <point x="141" y="275"/>
      <point x="166" y="275" type="curve" smooth="yes"/>
      <point x="336" y="275" type="line" smooth="yes"/>
      <point x="368" y="275"/>
      <point x="374" y="262"/>
      <point x="374" y="246" type="curve" smooth="yes"/>
      <point x="374" y="219" type="line" smooth="yes"/>
      <point x="374" y="203"/>
      <point x="368" y="189"/>
      <point x="336" y="189" type="curve" smooth="yes"/>
    </contour>
  </outline>
</glyph>
<glyph name="seven" format="1">
  <advance width="627"/>
  <unicode hex="0037"/>
  <outline>
    <contour>
      <point x="539" y="720" type="curve"/>
      <point x="74" y="720" type="line" smooth="yes"/>
      <point x="49" y="720"/>
      <point x="38" y="709"/>
      <point x="38" y="684" type="curve" smooth="yes"/>
      <point x="38" y="563" type="line" smooth="yes"/>
      <point x="38" y="538"/>
      <point x="49" y="527"/>
      <point x="74" y="527" type="curve" smooth="yes"/>
      <point x="348" y="527" type="line"/>
      <point x="348" y="437" type="line"/>
      <point x="267" y="415" type="line" smooth="yes"/>
      <point x="160" y="383"/>
      <point x="111" y="344"/>
      <point x="111" y="217" type="curve" smooth="yes"/>
      <point x="111" y="36" type="line" smooth="yes"/>
      <point x="111" y="11"/>
      <point x="122" y="0"/>
      <point x="147" y="0" type="curve" smooth="yes"/>
      <point x="309" y="0" type="line" smooth="yes"/>
      <point x="334" y="0"/>
      <point x="345" y="11"/>
      <point x="345" y="36" type="curve" smooth="yes"/>
      <point x="345" y="211" type="line"/>
      <point x="419" y="233" type="line" smooth="yes"/>
      <point x="526" y="265"/>
      <point x="575" y="304"/>
      <point x="575" y="431" type="curve" smooth="yes"/>
      <point x="575" y="684" type="line" smooth="yes"/>
      <point x="575" y="709"/>
      <point x="564" y="720"/>
    </contour>
  </outline>
</glyph>
<glyph name="less" format="1">
  <advance width="714"/>
  <unicode hex="003C"/>
  <outline>
    <contour>
      <point x="588.0" y="59.0" type="line" smooth="yes"/>
      <point x="613.0" y="54.0"/>
      <point x="624.0" y="64.0"/>
      <point x="624.0" y="90.0" type="curve" smooth="yes"/>
      <point x="624.0" y="222.0" type="line" smooth="yes"/>
      <point x="624.0" y="248.0"/>
      <point x="613.0" y="259.0"/>
      <point x="588.0" y="263.0" type="curve" smooth="yes"/>
      <point x="301.0" y="340.0" type="line" smooth="yes"/>
      <point x="287.0" y="343.0"/>
      <point x="284.0" y="347.0"/>
      <point x="284.0" y="359.0" type="curve" smooth="yes"/>
      <point x="284.0" y="371.0"/>
      <point x="287.0" y="375.0"/>
      <point x="301.0" y="378.0" type="curve" smooth="yes"/>
      <point x="588.0" y="455.0" type="line" smooth="yes"/>
      <point x="613.0" y="459.0"/>
      <point x="624.0" y="470.0"/>
      <point x="624.0" y="496.0" type="curve" smooth="yes"/>
      <point x="624.0" y="628.0" type="line" smooth="yes"/>
      <point x="624.0" y="654.0"/>
      <point x="613.0" y="664.0"/>
      <point x="588.0" y="659.0" type="curve" smooth="yes"/>
      <point x="207.0" y="550.0" type="line" smooth="yes"/>
      <point x="124.0" y="526.0"/>
      <point x="80.0" y="494.0"/>
      <point x="80.0" y="395.0" type="curve" smooth="yes"/>
      <point x="80.0" y="323.0" type="line" smooth="yes"/>
      <point x="80.0" y="224.0"/>
      <point x="124.0" y="192.0"/>
      <point x="207.0" y="168.0" type="curve"/>
    </contour>
  </outline>
</glyph>
<glyph name="L" format="1">
  <advance width="695"/>
  <unicode hex="004C"/>
  <outline>
    <contour>
      <point x="614" y="0" type="line" smooth="yes"/>
      <point x="639" y="0"/>
      <point x="650" y="11"/>
      <point x="650" y="36" type="curve" smooth="yes"/>
      <point x="650" y="351" type="line" smooth="yes"/>
      <point x="650" y="376"/>
      <point x="639" y="387"/>
      <point x="614" y="387" type="curve" smooth="yes"/>
      <point x="469" y="387" type="line" smooth="yes"/>
      <point x="444" y="387"/>
      <point x="433" y="376"/>
      <point x="433" y="351" type="curve" smooth="yes"/>
      <point x="433" y="189" type="line"/>
      <point x="296" y="189" type="line"/>
      <point x="296" y="684" type="line" smooth="yes"/>
      <point x="296" y="709"/>
      <point x="285" y="720"/>
      <point x="260" y="720" type="curve" smooth="yes"/>
      <point x="105" y="720" type="line" smooth="yes"/>
      <point x="80" y="720"/>
      <point x="69" y="709"/>
      <point x="69" y="684" type="curve" smooth="yes"/>
      <point x="69" y="36" type="line" smooth="yes"/>
      <point x="69" y="11"/>
      <point x="80" y="0"/>
      <point x="105" y="0" type="curve" smooth="yes"/>
    </contour>
  </outline>
</glyph>
<glyph name="W" format="1">
  <advance width="831"/>
  <unicode hex="0057"/>
  <outline>
    <contour>
      <point x="586" y="720" type="line" smooth="yes"/>
      <point x="560" y="720"/>
      <point x="550" y="709"/>
      <point x="550" y="684" type="curve" smooth="yes"/>
      <point x="550" y="316" type="line"/>
      <point x="492" y="442" type="line" smooth="yes"/>
      <point x="481" y="465"/>
      <point x="465" y="473"/>
      <point x="439" y="473" type="curve" smooth="yes"/>
      <point x="397" y="473" type="line" smooth="yes"/>
      <point x="371" y="473"/>
      <point x="355" y="465"/>
      <point x="344" y="442" type="curve" smooth="yes"/>
      <point x="286" y="316" type="line"/>
      <point x="286" y="684" type="line" smooth="yes"/>
      <point x="286" y="709"/>
      <point x="275" y="720"/>
      <point x="250" y="720" type="curve" smooth="yes"/>
      <point x="96" y="720" type="line" smooth="yes"/>
      <point x="71" y="720"/>
      <point x="60" y="709"/>
      <point x="60" y="684" type="curve" smooth="yes"/>
      <point x="60" y="298" type="line" smooth="yes"/>
      <point x="60" y="255"/>
      <point x="60" y="223"/>
      <point x="78" y="174" type="curve" smooth="yes"/>
      <point x="128" y="36" type="line" smooth="yes"/>
      <point x="135" y="15"/>
      <point x="150" y="0"/>
      <point x="172" y="0" type="curve" smooth="yes"/>
      <point x="304" y="0" type="line" smooth="yes"/>
      <point x="325" y="0"/>
      <point x="340" y="10"/>
      <point x="346" y="30" type="curve" smooth="yes"/>
      <point x="393" y="193" type="line" smooth="yes"/>
      <point x="397" y="206"/>
      <point x="403" y="210"/>
      <point x="411" y="210" type="curve" smooth="yes"/>
      <point x="420" y="210" type="line" smooth="yes"/>
      <point x="428" y="210"/>
      <point x="434" y="206"/>
      <point x="438" y="193" type="curve" smooth="yes"/>
      <point x="484" y="30" type="line" smooth="yes"/>
      <point x="490" y="9"/>
      <point x="508" y="0"/>
      <point x="530" y="0" type="curve" smooth="yes"/>
      <point x="663" y="0" type="line" smooth="yes"/>
      <point x="684" y="0"/>
      <point x="696" y="16"/>
      <point x="703" y="36" type="curve" smooth="yes"/>
      <point x="753" y="172" type="line" smooth="yes"/>
      <point x="771" y="221"/>
      <point x="771" y="253"/>
      <point x="771" y="296" type="curve" smooth="yes"/>
      <point x="771" y="684" type="line" smooth="yes"/>
      <point x="771" y="709"/>
      <point x="760" y="720"/>
      <point x="735" y="720" type="curve" smooth="yes"/>
    </contour>
    <contour>
      <point x="415" y="747" type="move" name="top"/>
    </contour>
    <contour>
      <point x="415" y="0" type="move" name="bottom"/>
    </contour>
  </outline>
</glyph>
<glyph name="X" format="1">
  <advance width="737"/>
  <unicode hex="0058"/>
  <outline>
    <contour>
      <point x="284" y="36" type="curve" smooth="yes"/>
      <point x="284" y="135" type="line" smooth="yes"/>
      <point x="284" y="149"/>
      <point x="283" y="163"/>
      <point x="293" y="177" type="curve" smooth="yes"/>
      <point x="338" y="240" type="line" smooth="yes"/>
      <point x="346" y="252"/>
      <point x="351" y="257"/>
      <point x="362" y="257" type="curve" smooth="yes"/>
      <point x="376" y="257" type="line" smooth="yes"/>
      <point x="387" y="257"/>
      <point x="392" y="252"/>
      <point x="400" y="240" type="curve" smooth="yes"/>
      <point x="444" y="177" type="line" smooth="yes"/>
      <point x="454" y="163"/>
      <point x="453" y="149"/>
      <point x="453" y="135" type="curve" smooth="yes"/>
      <point x="453" y="36" type="line" smooth="yes"/>
      <point x="453" y="11"/>
      <point x="464" y="0"/>
      <point x="489" y="0" type="curve" smooth="yes"/>
      <point x="641" y="0" type="line" smooth="yes"/>
      <point x="666" y="0"/>
      <point x="677" y="11"/>
      <point x="677" y="36" type="curve" smooth="yes"/>
      <point x="677" y="143" type="line" smooth="yes"/>
      <point x="677" y="205"/>
      <point x="670" y="225"/>
      <point x="639" y="266" type="curve" smooth="yes"/>
      <point x="558" y="374" type="line"/>
      <point x="639" y="484" type="line" smooth="yes"/>
      <point x="669" y="525"/>
      <point x="677" y="545"/>
      <point x="677" y="607" type="curve" smooth="yes"/>
      <point x="677" y="684" type="line" smooth="yes"/>
      <point x="677" y="709"/>
      <point x="666" y="720"/>
      <point x="641" y="720" type="curve" smooth="yes"/>
      <point x="489" y="720" type="line" smooth="yes"/>
      <point x="464" y="720"/>
      <point x="453" y="709"/>
      <point x="453" y="684" type="curve" smooth="yes"/>
      <point x="453" y="615" type="line" smooth="yes"/>
      <point x="453" y="601"/>
      <point x="453" y="586"/>
      <point x="444" y="573" type="curve" smooth="yes"/>
      <point x="399" y="510" type="line" smooth="yes"/>
      <point x="391" y="499"/>
      <point x="386" y="493"/>
      <point x="375" y="493" type="curve" smooth="yes"/>
      <point x="363" y="493" type="line" smooth="yes"/>
      <point x="352" y="493"/>
      <point x="346" y="499"/>
      <point x="339" y="510" type="curve" smooth="yes"/>
      <point x="295" y="573" type="line" smooth="yes"/>
      <point x="286" y="586"/>
      <point x="286" y="601"/>
      <point x="286" y="615" type="curve" smooth="yes"/>
      <point x="286" y="684" type="line" smooth="yes"/>
      <point x="286" y="709"/>
      <point x="275" y="720"/>
      <point x="250" y="720" type="curve" smooth="yes"/>
      <point x="96" y="720" type="line" smooth="yes"/>
      <point x="71" y="720"/>
      <point x="60" y="709"/>
      <point x="60" y="684" type="curve" smooth="yes"/>
      <point x="60" y="607" type="line" smooth="yes"/>
      <point x="60" y="545"/>
      <point x="67" y="525"/>
      <point x="98" y="484" type="curve" smooth="yes"/>
      <point x="179" y="375" type="line"/>
      <point x="98" y="266" type="line" smooth="yes"/>
      <point x="68" y="225"/>
      <point x="60" y="205"/>
      <point x="60" y="143" type="curve" smooth="yes"/>
      <point x="60" y="36" type="line" smooth="yes"/>
      <point x="60" y="11"/>
      <point x="71" y="0"/>
      <point x="96" y="0" type="curve" smooth="yes"/>
      <point x="248" y="0" type="line" smooth="yes"/>
      <point x="273" y="0"/>
      <point x="284" y="11"/>
    </contour>
    <contour>
      <point x="368.0" y="747.0" type="move" name="top"/>
    </contour>
    <contour>
      <point x="368.0" y="0.0" type="move" name="bottom"/>
    </contour>
  </outline>
</glyph>
<glyph name="underscore" format="1">
  <advance width="734"/>
  <unicode hex="005F"/>
  <outline>
    <contour>
      <point x="106" y="-103" type="curve"/>
      <point x="628" y="-103" type="line" smooth="yes"/>
      <point x="653" y="-103"/>
      <point x="664" y="-93"/>
      <point x="664" y="-67" type="curve" smooth="yes"/>
      <point x="664" y="67" type="line" smooth="yes"/>
      <point x="664" y="93"/>
      <point x="653" y="103"/>
      <point x="628" y="103" type="curve" smooth="yes"/>
      <point x="106" y="103" type="line" smooth="yes"/>
      <point x="81" y="103"/>
      <point x="70" y="92"/>
      <point x="70" y="67" type="curve" smooth="yes"/>
      <point x="70" y="-67" type="line" smooth="yes"/>
      <point x="70" y="-93"/>
      <point x="81" y="-103"/>
    </contour>
  </outline>
</glyph>
<glyph name="asciitilde" format="1">
  <advance width="734"/>
  <unicode hex="007E"/>
  <outline>
    <contour>
      <point x="367" y="277" type="line"/>
      <point x="390" y="274" type="line" smooth="yes"/>
      <point x="503" y="257"/>
      <point x="524" y="250"/>
      <point x="627" y="286" type="curve" smooth="yes"/>
      <point x="645" y="293"/>
      <point x="664" y="304"/>
      <point x="664" y="339" type="curve" smooth="yes"/>
      <point x="664" y="438" type="line" smooth="yes"/>
      <point x="664" y="468"/>
      <point x="647" y="479"/>
      <point x="612" y="469" type="curve" smooth="yes"/>
      <point x="529" y="444"/>
      <point x="523" y="440"/>
      <point x="398" y="458" type="curve" smooth="yes"/>
      <point x="367" y="462" type="line"/>
      <point x="343" y="465" type="line" smooth="yes"/>
      <point x="229" y="482"/>
      <point x="210" y="489"/>
      <point x="107" y="453" type="curve" smooth="yes"/>
      <point x="87" y="446"/>
      <point x="70" y="435"/>
      <point x="70" y="400" type="curve" smooth="yes"/>
      <point x="70" y="294" type="line" smooth="yes"/>
      <point x="70" y="271"/>
      <point x="87" y="260"/>
      <point x="121" y="269" type="curve"/>
      <point x="196" y="292"/>
      <point x="219" y="298"/>
      <point x="327" y="282" type="curve"/>
    </contour>
  </outline>
</glyph>
<glyph name="brokenbar" format="1">
  <advance width="347"/>
  <unicode hex="00A6"/>
  <outline>
    <contour>
      <point x="282" y="774" type="line" smooth="yes"/>
      <point x="282" y="799"/>
      <point x="271" y="810"/>
      <point x="246" y="810" type="curve" smooth="yes"/>
      <point x="101" y="810" type="line" smooth="yes"/>
      <point x="76" y="810"/>
      <point x="65" y="799"/>
      <point x="65" y="774" type="curve" smooth="yes"/>
      <point x="65" y="436" type="line" smooth="yes"/>
      <point x="65" y="411"/>
      <point x="76" y="400"/>
      <point x="101" y="400" type="curve" smooth="yes"/>
      <point x="246" y="400" type="line" smooth="yes"/>
      <point x="271" y="400"/>
      <point x="282" y="411"/>
      <point x="282" y="436" type="curve"/>
    </contour>
    <contour>
      <point x="282" y="284" type="line" smooth="yes"/>
      <point x="282" y="309"/>
      <point x="271" y="320"/>
      <point x="246" y="320" type="curve" smooth="yes"/>
      <point x="101" y="320" type="line" smooth="yes"/>
      <point x="76" y="320"/>
      <point x="65" y="309"/>
      <point x="65" y="284" type="curve" smooth="yes"/>
      <point x="65" y="-54" type="line" smooth="yes"/>
      <point x="65" y="-79"/>
      <point x="76" y="-90"/>
      <point x="101" y="-90" type="curve" smooth="yes"/>
      <point x="246" y="-90" type="line" smooth="yes"/>
      <point x="271" y="-90"/>
      <point x="282" y="-79"/>
      <point x="282" y="-54" type="curve" smooth="yes"/>
    </contour>
  </outline>
</glyph>
<glyph name="copyright" format="1">
  <advance width="867"/>
  <unicode hex="00A9"/>
  <outline>
    <contour>
      <point x="807.0" y="154.0" type="curve" smooth="yes"/>
      <point x="807.0" y="564.0" type="line" smooth="yes"/>
      <point x="807.0" y="711.0"/>
      <point x="735.0" y="811.0"/>
      <point x="434.0" y="811.0" type="curve" smooth="yes"/>
      <point x="134.0" y="811.0"/>
      <point x="60.0" y="711.0"/>
      <point x="60.0" y="564.0" type="curve" smooth="yes"/>
      <point x="60.0" y="154.0" type="line" smooth="yes"/>
      <point x="60.0" y="8.0"/>
      <point x="134.0" y="-91.0"/>
      <point x="434.0" y="-91.0" type="curve" smooth="yes"/>
      <point x="735.0" y="-91.0"/>
      <point x="807.0" y="8.0"/>
    </contour>
    <contour>
      <point x="707.0" y="150.0" type="line"/>
      <point x="707.0" y="64.0"/>
      <point x="654.0" y="5.0"/>
      <point x="434.0" y="5.0" type="curve" smooth="yes"/>
      <point x="214.0" y="5.0"/>
      <point x="160.0" y="64.0"/>
      <point x="160.0" y="150.0" type="curve"/>
      <point x="160.0" y="568.0" type="line"/>
      <point x="160.0" y="655.0"/>
      <point x="214.0" y="715.0"/>
      <point x="434.0" y="715.0" type="curve" smooth="yes"/>
      <point x="654.0" y="715.0"/>
      <point x="707.0" y="655.0"/>
      <point x="707.0" y="568.0" type="curve"/>
    </contour>
    <contour>
      <point x="588.76807189" y="110.0" type="line" smooth="yes"/>
      <point x="606.686323345" y="110.0"/>
      <point x="614.570353985" y="117.883333027"/>
      <point x="614.570353985" y="135.799998999" type="curve" smooth="yes"/>
      <point x="614.570353985" y="221.083329022" type="line" smooth="yes"/>
      <point x="614.570353985" y="238.999994993"/>
      <point x="606.686323345" y="246.883328021"/>
      <point x="588.76807189" y="246.883328021" type="curve" smooth="yes"/>
      <point x="444.705330193" y="246.883328021" type="line" smooth="yes"/>
      <point x="407.435367167" y="246.883328021"/>
      <point x="400.984796643" y="261.216660798"/>
      <point x="400.984796643" y="281.283326685" type="curve" smooth="yes"/>
      <point x="400.984796643" y="451.849986732" type="line" smooth="yes"/>
      <point x="400.984796643" y="470.483319342"/>
      <point x="407.435367167" y="487.683318674"/>
      <point x="444.705330193" y="487.683318674" type="curve" smooth="yes"/>
      <point x="588.76807189" y="487.683318674" type="line" smooth="yes"/>
      <point x="606.686323345" y="487.683318674"/>
      <point x="614.570353985" y="495.566651702"/>
      <point x="614.570353985" y="513.483317673" type="curve" smooth="yes"/>
      <point x="614.570353985" y="600.199980974" type="line" smooth="yes"/>
      <point x="614.570353985" y="618.116646945"/>
      <point x="606.686323345" y="625.999979973"/>
      <point x="588.76807189" y="625.999979973" type="curve" smooth="yes"/>
      <point x="413.885937691" y="625.999979973" type="line" smooth="yes"/>
      <point x="278.423956692" y="625.999979973"/>
      <point x="237.570343375" y="566.516648948"/>
      <point x="237.570343375" y="479.083319008" type="curve" smooth="yes"/>
      <point x="237.570343375" y="256.199994326" type="line" smooth="yes"/>
      <point x="237.570343375" y="169.483331025"/>
      <point x="278.423956692" y="110.0"/>
      <point x="413.885937691" y="110.0" type="curve" smooth="yes"/>
    </contour>
  </outline>
</glyph>
<glyph name="ordfeminine" format="1">
  <advance width="520"/>
  <unicode hex="00AA"/>
  <outline>
    <contour>
      <point x="169" y="202" type="line" smooth="yes"/>
      <point x="190" y="202"/>
      <point x="199" y="212"/>
      <point x="199" y="232" type="curve" smooth="yes"/>
      <point x="199" y="436" type="line"/>
      <point x="243" y="568" type="line" smooth="yes"/>
      <point x="244" y="573"/>
      <point x="247" y="578"/>
      <point x="251" y="578" type="curve" smooth="yes"/>
      <point x="264" y="578" type="line" smooth="yes"/>
      <point x="267" y="578"/>
      <point x="271" y="573"/>
      <point x="273" y="568" type="curve" smooth="yes"/>
      <point x="316" y="436" type="line"/>
      <point x="316" y="232" type="line" smooth="yes"/>
      <point x="316" y="212"/>
      <point x="326" y="202"/>
      <point x="346" y="202" type="curve" smooth="yes"/>
      <point x="454" y="202" type="line" smooth="yes"/>
      <point x="476" y="202"/>
      <point x="484" y="212"/>
      <point x="484" y="232" type="curve" smooth="yes"/>
      <point x="484" y="411" type="line" smooth="yes"/>
      <point x="484" y="451"/>
      <point x="475" y="488"/>
      <point x="464" y="519" type="curve" smooth="yes"/>
      <point x="402" y="688" type="line"/>
      <point x="392" y="711"/>
      <point x="381" y="720"/>
      <point x="355" y="720" type="curve" smooth="yes"/>
      <point x="166" y="720" type="line" smooth="yes"/>
      <point x="139" y="720"/>
      <point x="128" y="711"/>
      <point x="118" y="688" type="curve"/>
      <point x="99" y="634"/>
      <point x="76" y="574"/>
      <point x="57" y="519" type="curve"/>
      <point x="45" y="488"/>
      <point x="36" y="451"/>
      <point x="36" y="411" type="curve" smooth="yes"/>
      <point x="36" y="232" type="line" smooth="yes"/>
      <point x="36" y="212"/>
      <point x="46" y="202"/>
      <point x="66" y="202" type="curve" smooth="yes"/>
    </contour>
    <contour>
      <point x="354" y="327" type="line"/>
      <point x="354" y="463" type="line"/>
      <point x="162" y="463" type="line"/>
      <point x="162" y="327" type="line"/>
    </contour>
    <contour>
      <point x="72" y="0" type="curve"/>
      <point x="448" y="0" type="line" smooth="yes"/>
      <point x="473" y="0"/>
      <point x="484" y="10"/>
      <point x="484" y="36" type="curve" smooth="yes"/>
      <point x="484" y="103" type="line" smooth="yes"/>
      <point x="484" y="129"/>
      <point x="473" y="139"/>
      <point x="448" y="139" type="curve" smooth="yes"/>
      <point x="72" y="139" type="line" smooth="yes"/>
      <point x="47" y="139"/>
      <point x="36" y="128"/>
      <point x="36" y="103" type="curve" smooth="yes"/>
      <point x="36" y="36" type="line" smooth="yes"/>
      <point x="36" y="10"/>
      <point x="47" y="0"/>
    </contour>
    <contour>
      <point x="263" y="745" type="move" name="top"/>
    </contour>
    <contour>
      <point x="263" y="207" type="move" name="bottom"/>
    </contour>
  </outline>
</glyph>
<glyph name="acute" format="1">
  <advance width="500"/>
  <unicode hex="00B4"/>
  <outline>
    <contour>
      <point x="423" y="796" type="line" smooth="yes"/>
      <point x="448" y="799"/>
      <point x="459" y="807"/>
      <point x="459" y="832" type="curve" smooth="yes"/>
      <point x="459" y="928" type="line" smooth="yes"/>
      <point x="459" y="951"/>
      <point x="448" y="964"/>
      <point x="425" y="961" type="curve"/>
      <point x="76" y="918" type="line" smooth="yes"/>
      <point x="51" y="915"/>
      <point x="40" y="907"/>
      <point x="40" y="882" type="curve" smooth="yes"/>
      <point x="40" y="786" type="line" smooth="yes"/>
      <point x="40" y="763"/>
      <point x="51" y="750"/>
      <point x="74" y="753" type="curve" smooth="yes"/>
    </contour>
    <contour>
      <point x="250" y="747" type="move" name="_top"/>
    </contour>
    <contour>
      <point x="250" y="0" type="move" name="_bottom"/>
    </contour>
  </outline>
</glyph>
<glyph name="mu" format="1">
  <advance width="713"/>
  <unicode hex="00B5"/>
  <outline>
    <contour>
      <point x="657" y="189" type="curve" smooth="yes"/>
      <point x="657" y="534" type="line" smooth="yes"/>
      <point x="657" y="559"/>
      <point x="646" y="570"/>
      <point x="621" y="570" type="curve" smooth="yes"/>
      <point x="469" y="570" type="line" smooth="yes"/>
      <point x="443" y="570"/>
      <point x="433" y="559"/>
      <point x="433" y="534" type="curve" smooth="yes"/>
      <point x="433" y="218" type="line" smooth="yes"/>
      <point x="433" y="191"/>
      <point x="422" y="171"/>
      <point x="360" y="171" type="curve" smooth="yes"/>
      <point x="299" y="171"/>
      <point x="288" y="191"/>
      <point x="288" y="218" type="curve" smooth="yes"/>
      <point x="288" y="534" type="line"/>
      <point x="139" y="534" type="line"/>
      <point x="139" y="189" type="line" smooth="yes"/>
      <point x="139" y="67"/>
      <point x="186" y="-15"/>
      <point x="378" y="-15" type="curve" smooth="yes"/>
      <point x="602" y="-15"/>
      <point x="657" y="67"/>
    </contour>
    <contour>
      <point x="252" y="-90" type="line" smooth="yes"/>
      <point x="277" y="-90"/>
      <point x="288" y="-79"/>
      <point x="288" y="-54" type="curve" smooth="yes"/>
      <point x="288" y="534" type="line" smooth="yes"/>
      <point x="288" y="559"/>
      <point x="277" y="570"/>
      <point x="252" y="570" type="curve" smooth="yes"/>
      <point x="97" y="570" type="line" smooth="yes"/>
      <point x="72" y="570"/>
      <point x="61" y="559"/>
      <point x="61" y="534" type="curve" smooth="yes"/>
      <point x="61" y="-54" type="line" smooth="yes"/>
      <point x="61" y="-79"/>
      <point x="72" y="-90"/>
      <point x="97" y="-90" type="curve" smooth="yes"/>
    </contour>
  </outline>
</glyph>
<glyph name="cedilla" format="1">
  <advance width="500"/>
  <unicode hex="00B8"/>
  <outline>
    <contour>
      <point x="264" y="-126" type="line"/>
      <point x="290" y="-126"/>
      <point x="303" y="-117"/>
      <point x="310" y="-96" type="curve" smooth="yes"/>
      <point x="373" y="81" type="line" smooth="yes"/>
      <point x="380" y="100"/>
      <point x="375" y="113"/>
      <point x="353" y="121" type="curve" smooth="yes"/>
      <point x="237" y="164" type="line" smooth="yes"/>
      <point x="213" y="173"/>
      <point x="201" y="166"/>
      <point x="193" y="144" type="curve" smooth="yes"/>
      <point x="108" y="-86" type="line" smooth="yes"/>
      <point x="99" y="-110"/>
      <point x="104" y="-126"/>
      <point x="138" y="-126" type="curve" smooth="yes"/>
    </contour>
    <contour>
      <point x="250" y="747" type="move" name="_top"/>
    </contour>
    <contour>
      <point x="250" y="0" type="move" name="_bottom"/>
    </contour>
  </outline>
</glyph>
<glyph name="guillemotright" format="1">
  <advance width="812"/>
  <unicode hex="00BB"/>
  <outline>
    <contour>
      <point x="456" y="106" type="curve" smooth="yes"/>
      <point x="635" y="157" type="line" smooth="yes"/>
      <point x="718" y="181"/>
      <point x="762" y="213"/>
      <point x="762" y="312" type="curve" smooth="yes"/>
      <point x="762" y="386" type="line" smooth="yes"/>
      <point x="762" y="485"/>
      <point x="718" y="517"/>
      <point x="635" y="541" type="curve" smooth="yes"/>
      <point x="456" y="593" type="line" smooth="yes"/>
      <point x="432" y="600"/>
      <point x="420" y="588"/>
      <point x="420" y="562" type="curve" smooth="yes"/>
      <point x="420" y="445" type="line" smooth="yes"/>
      <point x="420" y="419"/>
      <point x="432" y="403"/>
      <point x="456" y="396" type="curve"/>
      <point x="551" y="368" type="line"/>
      <point x="564" y="363"/>
      <point x="568" y="361"/>
      <point x="568" y="349" type="curve" smooth="yes"/>
      <point x="568" y="337"/>
      <point x="565" y="335"/>
      <point x="551" y="330" type="curve"/>
      <point x="456" y="303" type="line" smooth="yes"/>
      <point x="432" y="296"/>
      <point x="420" y="280"/>
      <point x="420" y="254" type="curve" smooth="yes"/>
      <point x="420" y="137" type="line" smooth="yes"/>
      <point x="420" y="111"/>
      <point x="432" y="99"/>
    </contour>
    <contour>
      <point x="265" y="157" type="line"/>
      <point x="348" y="181"/>
      <point x="392" y="213"/>
      <point x="392" y="312" type="curve" smooth="yes"/>
      <point x="392" y="386" type="line" smooth="yes"/>
      <point x="392" y="485"/>
      <point x="349" y="517"/>
      <point x="265" y="541" type="curve"/>
      <point x="96" y="590" type="line"/>
      <point x="72" y="598"/>
      <point x="60" y="585"/>
      <point x="60" y="559" type="curve" smooth="yes"/>
      <point x="60" y="445" type="line" smooth="yes"/>
      <point x="60" y="419"/>
      <point x="73" y="405"/>
      <point x="96" y="396" type="curve"/>
      <point x="191" y="368" type="line" smooth="yes"/>
      <point x="204" y="364"/>
      <point x="208" y="361"/>
      <point x="208" y="349" type="curve" smooth="yes"/>
      <point x="208" y="337"/>
      <point x="205" y="334"/>
      <point x="191" y="330" type="curve" smooth="yes"/>
      <point x="96" y="303" type="line" smooth="yes"/>
      <point x="72" y="296"/>
      <point x="60" y="280"/>
      <point x="60" y="254" type="curve" smooth="yes"/>
      <point x="60" y="140" type="line" smooth="yes"/>
      <point x="60" y="114"/>
      <point x="72" y="102"/>
      <point x="96" y="109" type="curve" smooth="yes"/>
    </contour>
  </outline>
</glyph>
<glyph name="questiondown" format="1">
  <advance width="656"/>
  <unicode hex="00BF"/>
  <outline>
    <contour>
      <point x="200.0" y="447.0" type="line" smooth="yes"/>
      <point x="105.0" y="434.0"/>
      <point x="45.0" y="393.0"/>
      <point x="45.0" y="281.0" type="curve" smooth="yes"/>
      <point x="45.0" y="176.0" type="line" smooth="yes"/>
      <point x="45.0" y="62.0"/>
      <point x="122.0" y="0.0"/>
      <point x="252.0" y="0.0" type="curve" smooth="yes"/>
      <point x="575.0" y="0.0" type="line" smooth="yes"/>
      <point x="600.0" y="0.0"/>
      <point x="611.0" y="11.0"/>
      <point x="611.0" y="36.0" type="curve"/>
      <point x="611.0" y="157.0" type="line" smooth="yes"/>
      <point x="611.0" y="183.0"/>
      <point x="600.0" y="193.0"/>
      <point x="575.0" y="193.0" type="curve" smooth="yes"/>
      <point x="299.0" y="193.0" type="line" smooth="yes"/>
      <point x="282.0" y="193.0"/>
      <point x="272.0" y="202.0"/>
      <point x="272.0" y="221.0" type="curve" smooth="yes"/>
      <point x="272.0" y="241.0"/>
      <point x="279.0" y="249.0"/>
      <point x="299.0" y="252.0" type="curve" smooth="yes"/>
      <point x="498.0" y="280.0" type="line" smooth="yes"/>
      <point x="523.0" y="283.0"/>
      <point x="535.0" y="295.0"/>
      <point x="531.0" y="321.0" type="curve" smooth="yes"/>
      <point x="510.0" y="453.0" type="line" smooth="yes"/>
      <point x="506.0" y="478.0"/>
      <point x="496.0" y="487.0"/>
      <point x="471.0" y="484.0" type="curve" smooth="yes"/>
    </contour>
    <contour>
      <point x="312.0" y="720.0" type="line" smooth="yes"/>
      <point x="287.0" y="720.0"/>
      <point x="276.0" y="709.0"/>
      <point x="276.0" y="684.0" type="curve" smooth="yes"/>
      <point x="276.0" y="553.0" type="line" smooth="yes"/>
      <point x="276.0" y="527.0"/>
      <point x="287.0" y="517.0"/>
      <point x="312.0" y="517.0" type="curve" smooth="yes"/>
      <point x="495.0" y="517.0" type="line" smooth="yes"/>
      <point x="521.0" y="517.0"/>
      <point x="531.0" y="527.0"/>
      <point x="531.0" y="553.0" type="curve" smooth="yes"/>
      <point x="531.0" y="684.0" type="line" smooth="yes"/>
      <point x="531.0" y="709.0"/>
      <point x="521.0" y="720.0"/>
      <point x="495.0" y="720.0" type="curve" smooth="yes"/>
    </contour>
  </outline>
</glyph>
<glyph name="Aring" format="1">
  <advance width="730"/>
  <unicode hex="00C5"/>
  <outline>
    <contour>
      <point x="582" y="829" type="line" smooth="yes"/>
      <point x="582" y="914"/>
      <point x="539" y="972"/>
      <point x="365" y="972" type="curve" smooth="yes"/>
      <point x="191" y="972"/>
      <point x="148" y="914"/>
      <point x="148" y="829" type="curve" smooth="yes"/>
      <point x="148" y="771" type="line" smooth="yes"/>
      <point x="148" y="686"/>
      <point x="191" y="628"/>
      <point x="365" y="628" type="curve" smooth="yes"/>
      <point x="539" y="628"/>
      <point x="582" y="686"/>
      <point x="582" y="771" type="curve" smooth="yes"/>
    </contour>
    <contour>
      <point x="425" y="764" type="line" smooth="yes"/>
      <point x="425" y="735"/>
      <point x="416" y="721"/>
      <point x="366" y="721" type="curve" smooth="yes"/>
      <point x="317" y="721"/>
      <point x="309" y="735"/>
      <point x="309" y="764" type="curve" smooth="yes"/>
      <point x="309" y="799" type="line" smooth="yes"/>
      <point x="309" y="825"/>
      <point x="317" y="839"/>
      <point x="366" y="839" type="curve" smooth="yes"/>
      <point x="416" y="839"/>
      <point x="425" y="825"/>
      <point x="425" y="799" type="curve" smooth="yes"/>
    </contour>
    <contour>
      <point x="330" y="510" type="line" smooth="yes"/>
      <point x="334" y="522"/>
      <point x="341" y="527"/>
      <point x="349" y="527" type="curve" smooth="yes"/>
      <point x="374" y="527" type="line" smooth="yes"/>
      <point x="382" y="527"/>
      <point x="389" y="522"/>
      <point x="393" y="510" type="curve" smooth="yes"/>
      <point x="440" y="358" type="line"/>
      <point x="283" y="358" type="line"/>
    </contour>
    <contour>
      <point x="273" y="36" type="curve" smooth="yes"/>
      <point x="273" y="176" type="line"/>
      <point x="450" y="176" type="line"/>
      <point x="450" y="36" type="line" smooth="yes"/>
      <point x="450" y="11"/>
      <point x="462" y="0"/>
      <point x="489" y="0" type="curve" smooth="yes"/>
      <point x="640" y="0" type="line" smooth="yes"/>
      <point x="665" y="0"/>
      <point x="676" y="11"/>
      <point x="676" y="36" type="curve" smooth="yes"/>
      <point x="676" y="300" type="line" smooth="yes"/>
      <point x="676" y="340"/>
      <point x="664" y="390"/>
      <point x="637" y="460" type="curve" smooth="yes"/>
      <point x="550" y="687" type="line" smooth="yes"/>
      <point x="542" y="710"/>
      <point x="526" y="720"/>
      <point x="500" y="720" type="curve" smooth="yes"/>
      <point x="231" y="720" type="line" smooth="yes"/>
      <point x="204" y="720"/>
      <point x="188" y="710"/>
      <point x="180" y="687" type="curve" smooth="yes"/>
      <point x="93" y="460" type="line" smooth="yes"/>
      <point x="66" y="390"/>
      <point x="54" y="340"/>
      <point x="54" y="300" type="curve" smooth="yes"/>
      <point x="54" y="36" type="line" smooth="yes"/>
      <point x="54" y="11"/>
      <point x="65" y="0"/>
      <point x="90" y="0" type="curve" smooth="yes"/>
      <point x="237" y="0" type="line" smooth="yes"/>
      <point x="262" y="0"/>
      <point x="273" y="11"/>
    </contour>
  </outline>
</glyph>
<glyph name="Oslash" format="1">
  <advance width="737"/>
  <unicode hex="00D8"/>
  <outline>
    <contour>
      <point x="679" y="189" type="curve"/>
      <point x="679" y="530" type="line" smooth="yes"/>
      <point x="679" y="652"/>
      <point x="619" y="735"/>
      <point x="369" y="735" type="curve" smooth="yes"/>
      <point x="119" y="735"/>
      <point x="58" y="652"/>
      <point x="58" y="530" type="curve" smooth="yes"/>
      <point x="58" y="189" type="line" smooth="yes"/>
      <point x="58" y="67"/>
      <point x="119" y="-15"/>
      <point x="369" y="-15" type="curve" smooth="yes"/>
      <point x="619" y="-15"/>
      <point x="679" y="67"/>
    </contour>
    <contour>
      <point x="265" y="225" type="curve"/>
      <point x="265" y="494" type="line" smooth="yes"/>
      <point x="265" y="526"/>
      <point x="279" y="550"/>
      <point x="369" y="550" type="curve" smooth="yes"/>
      <point x="460" y="550"/>
      <point x="473" y="526"/>
      <point x="473" y="494" type="curve" smooth="yes"/>
      <point x="473" y="225" type="line" smooth="yes"/>
      <point x="473" y="192"/>
      <point x="460" y="168"/>
      <point x="369" y="168" type="curve" smooth="yes"/>
      <point x="279" y="168"/>
      <point x="265" y="192"/>
    </contour>
    <contour>
      <point x="249" y="-70" type="line" smooth="yes"/>
      <point x="274" y="-70"/>
      <point x="283" y="-56"/>
      <point x="295" y="-34" type="curve"/>
      <point x="341" y="74" type="line"/>
      <point x="334" y="119" type="line"/>
      <point x="523" y="564" type="line"/>
      <point x="552" y="573" type="line"/>
      <point x="629" y="754" type="line"/>
      <point x="641" y="776"/>
      <point x="628" y="790"/>
      <point x="603" y="790" type="curve" smooth="yes"/>
      <point x="488" y="790" type="line" smooth="yes"/>
      <point x="463" y="790"/>
      <point x="454" y="776"/>
      <point x="442" y="754" type="curve"/>
      <point x="397" y="649" type="line"/>
      <point x="402" y="599" type="line"/>
      <point x="212" y="152" type="line"/>
      <point x="183" y="144" type="line"/>
      <point x="108" y="-34" type="line"/>
      <point x="96" y="-56"/>
      <point x="109" y="-70"/>
      <point x="134" y="-70" type="curve" smooth="yes"/>
    </contour>
  </outline>
</glyph>
<glyph name="Iogonek" format="1">
  <advance width="605"/>
  <unicode hex="012E"/>
  <outline>
    <contour>
      <point x="551" y="-152" type="curve" smooth="yes"/>
      <point x="551" y="-80" type="line" smooth="yes"/>
      <point x="551" y="-54"/>
      <point x="543" y="-46"/>
      <point x="515" y="-46" type="curve" smooth="yes"/>
      <point x="474" y="-46" type="line"/>
      <point x="481" y="0" type="line"/>
      <point x="515" y="0" type="line" smooth="yes"/>
      <point x="540" y="0"/>
      <point x="551" y="11"/>
      <point x="551" y="36" type="curve" smooth="yes"/>
      <point x="551" y="155" type="line" smooth="yes"/>
      <point x="551" y="180"/>
      <point x="540" y="191"/>
      <point x="515" y="191" type="curve" smooth="yes"/>
      <point x="418" y="191" type="line"/>
      <point x="418" y="527" type="line"/>
      <point x="515" y="527" type="line" smooth="yes"/>
      <point x="540" y="527"/>
      <point x="551" y="538"/>
      <point x="551" y="563" type="curve" smooth="yes"/>
      <point x="551" y="684" type="line" smooth="yes"/>
      <point x="551" y="709"/>
      <point x="540" y="720"/>
      <point x="515" y="720" type="curve" smooth="yes"/>
      <point x="89" y="720" type="line" smooth="yes"/>
      <point x="64" y="720"/>
      <point x="53" y="709"/>
      <point x="53" y="684" type="curve" smooth="yes"/>
      <point x="53" y="563" type="line" smooth="yes"/>
      <point x="53" y="538"/>
      <point x="64" y="527"/>
      <point x="89" y="527" type="curve" smooth="yes"/>
      <point x="188" y="527" type="line"/>
      <point x="188" y="191" type="line"/>
      <point x="89" y="191" type="line" smooth="yes"/>
      <point x="64" y="191"/>
      <point x="53" y="180"/>
      <point x="53" y="155" type="curve" smooth="yes"/>
      <point x="53" y="36" type="line" smooth="yes"/>
      <point x="53" y="11"/>
      <point x="64" y="0"/>
      <point x="89" y="0" type="curve" smooth="yes"/>
      <point x="315" y="0" type="line"/>
      <point x="306" y="-51" type="line" smooth="yes"/>
      <point x="292" y="-144"/>
      <point x="321" y="-186"/>
      <point x="407" y="-186" type="curve" smooth="yes"/>
      <point x="518" y="-186" type="line" smooth="yes"/>
      <point x="544" y="-186"/>
      <point x="551" y="-178"/>
    </contour>
  </outline>
</glyph>
<glyph name="IJ" format="1">
  <advance width="744.0"/>
  <unicode hex="0132"/>
  <outline>
    <contour>
      <point x="69.0" y="36.0" type="line" smooth="yes"/>
      <point x="69.0" y="11.0"/>
      <point x="80.0" y="0.0"/>
      <point x="105.0" y="0.0" type="curve"/>
      <point x="467.0" y="0.0" type="line" smooth="yes"/>
      <point x="599.0" y="0.0"/>
      <point x="680.0" y="78.0"/>
      <point x="680.0" y="210.0" type="curve" smooth="yes"/>
      <point x="680.0" y="684.0" type="line" smooth="yes"/>
      <point x="680.0" y="709.0"/>
      <point x="669.0" y="720.0"/>
      <point x="644.0" y="720.0" type="curve" smooth="yes"/>
      <point x="489.0" y="720.0" type="line" smooth="yes"/>
      <point x="464.0" y="720.0"/>
      <point x="453.0" y="709.0"/>
      <point x="453.0" y="684.0" type="curve" smooth="yes"/>
      <point x="453.0" y="260.0" type="line" smooth="yes"/>
      <point x="453.0" y="212.0"/>
      <point x="428.0" y="193.0"/>
      <point x="380.0" y="193.0" type="curve" smooth="yes"/>
      <point x="105.0" y="193.0" type="line" smooth="yes"/>
      <point x="80.0" y="193.0"/>
      <point x="69.0" y="182.0"/>
      <point x="69.0" y="157.0" type="curve" smooth="yes"/>
    </contour>
    <contour>
      <point x="260" y="310" type="line" smooth="yes"/>
      <point x="285" y="310"/>
      <point x="296" y="321"/>
      <point x="296" y="346" type="curve" smooth="yes"/>
      <point x="296.0" y="684.0" type="line" smooth="yes"/>
      <point x="296" y="709"/>
      <point x="285.0" y="720.0"/>
      <point x="260.0" y="720.0" type="curve" smooth="yes"/>
      <point x="105.0" y="720.0" type="line" smooth="yes"/>
      <point x="80.0" y="720.0"/>
      <point x="69" y="709"/>
      <point x="69.0" y="684.0" type="curve" smooth="yes"/>
      <point x="69" y="346" type="line" smooth="yes"/>
      <point x="69" y="321"/>
      <point x="80" y="310"/>
      <point x="105" y="310" type="curve" smooth="yes"/>
    </contour>
  </outline>
</glyph>
<glyph name="Tbar" format="1">
  <advance width="656"/>
  <unicode hex="0166"/>
  <outline>
    <contour>
      <point x="445" y="36" type="curve" smooth="yes"/>
      <point x="445" y="222" type="line"/>
      <point x="521" y="222" type="line" smooth="yes"/>
      <point x="546" y="222"/>
      <point x="557" y="233"/>
      <point x="557" y="258" type="curve" smooth="yes"/>
      <point x="557" y="365" type="line" smooth="yes"/>
      <point x="557" y="390"/>
      <point x="546" y="401"/>
      <point x="521" y="401" type="curve" smooth="yes"/>
      <point x="445" y="401" type="line"/>
      <point x="445" y="527" type="line"/>
      <point x="592" y="527" type="line" smooth="yes"/>
      <point x="617" y="527"/>
      <point x="628" y="538"/>
      <point x="628" y="563" type="curve" smooth="yes"/>
      <point x="628" y="684" type="line" smooth="yes"/>
      <point x="628" y="709"/>
      <point x="617" y="720"/>
      <point x="592" y="720" type="curve" smooth="yes"/>
      <point x="64" y="720" type="line" smooth="yes"/>
      <point x="39" y="720"/>
      <point x="28" y="709"/>
      <point x="28" y="684" type="curve" smooth="yes"/>
      <point x="28" y="563" type="line" smooth="yes"/>
      <point x="28" y="538"/>
      <point x="39" y="527"/>
      <point x="64" y="527" type="curve" smooth="yes"/>
      <point x="211" y="527" type="line"/>
      <point x="211" y="401" type="line"/>
      <point x="134" y="401" type="line" smooth="yes"/>
      <point x="109" y="401"/>
      <point x="98" y="390"/>
      <point x="98" y="365" type="curve" smooth="yes"/>
      <point x="98" y="258" type="line" smooth="yes"/>
      <point x="98" y="233"/>
      <point x="109" y="222"/>
      <point x="134" y="222" type="curve" smooth="yes"/>
      <point x="211" y="222" type="line"/>
      <point x="211" y="36" type="line" smooth="yes"/>
      <point x="211" y="11"/>
      <point x="222" y="0"/>
      <point x="247" y="0" type="curve" smooth="yes"/>
      <point x="409" y="0" type="line" smooth="yes"/>
      <point x="434" y="0"/>
      <point x="445" y="11"/>
    </contour>
  </outline>
</glyph>
<glyph name="Uogonek" format="1">
  <advance width="746"/>
  <unicode hex="0172"/>
  <outline>
    <contour>
      <point x="488" y="-196" type="line" smooth="yes"/>
      <point x="514" y="-196"/>
      <point x="521" y="-188"/>
      <point x="521" y="-162" type="curve" smooth="yes"/>
      <point x="521" y="-90" type="line" smooth="yes"/>
      <point x="521" y="-64"/>
      <point x="513" y="-56"/>
      <point x="485" y="-56" type="curve" smooth="yes"/>
      <point x="444" y="-56" type="line"/>
      <point x="450" y="-12" type="line"/>
      <point x="634" y="4"/>
      <point x="682" y="81"/>
      <point x="682" y="189" type="curve" smooth="yes"/>
      <point x="682" y="684" type="line" smooth="yes"/>
      <point x="682" y="709"/>
      <point x="671" y="720"/>
      <point x="646" y="720" type="curve" smooth="yes"/>
      <point x="494" y="720" type="line" smooth="yes"/>
      <point x="468" y="720"/>
      <point x="458" y="709"/>
      <point x="458" y="684" type="curve" smooth="yes"/>
      <point x="458" y="228" type="line" smooth="yes"/>
      <point x="458" y="201"/>
      <point x="446" y="181"/>
      <point x="375" y="181" type="curve" smooth="yes"/>
      <point x="305" y="181"/>
      <point x="293" y="201"/>
      <point x="293" y="228" type="curve" smooth="yes"/>
      <point x="293" y="684" type="line" smooth="yes"/>
      <point x="293" y="709"/>
      <point x="282" y="720"/>
      <point x="257" y="720" type="curve" smooth="yes"/>
      <point x="100" y="720" type="line" smooth="yes"/>
      <point x="75" y="720"/>
      <point x="64" y="709"/>
      <point x="64" y="684" type="curve" smooth="yes"/>
      <point x="64" y="189" type="line" smooth="yes"/>
      <point x="64" y="83"/>
      <point x="110" y="7"/>
      <point x="285" y="-11" type="curve"/>
      <point x="276" y="-61" type="line" smooth="yes"/>
      <point x="262" y="-154"/>
      <point x="291" y="-196"/>
      <point x="377" y="-196" type="curve" smooth="yes"/>
    </contour>
  </outline>
</glyph>
<glyph name="Ohorn" format="1">
  <advance width="747"/>
  <unicode hex="01A0"/>
  <outline>
    <contour>
      <point x="369" y="-15" type="curve" smooth="yes"/>
      <point x="619" y="-15"/>
      <point x="679" y="67"/>
      <point x="679" y="189" type="curve" smooth="yes"/>
      <point x="679" y="530" type="line" smooth="yes"/>
      <point x="679" y="556"/>
      <point x="676" y="581"/>
      <point x="669" y="603" type="curve"/>
      <point x="721" y="628"/>
      <point x="737" y="669"/>
      <point x="737" y="721" type="curve"/>
      <point x="737" y="765" type="line" smooth="yes"/>
      <point x="737" y="790"/>
      <point x="726" y="801"/>
      <point x="701" y="801" type="curve"/>
      <point x="590" y="801" type="line" smooth="yes"/>
      <point x="567" y="801"/>
      <point x="560" y="794"/>
      <point x="560" y="770" type="curve" smooth="yes"/>
      <point x="560" y="749" type="line" smooth="yes"/>
      <point x="560" y="731"/>
      <point x="553" y="721"/>
      <point x="523" y="720" type="curve"/>
      <point x="482" y="730"/>
      <point x="432" y="735"/>
      <point x="369" y="735" type="curve" smooth="yes"/>
      <point x="119" y="735"/>
      <point x="58" y="652"/>
      <point x="58" y="530" type="curve" smooth="yes"/>
      <point x="58" y="189" type="line" smooth="yes"/>
      <point x="58" y="67"/>
      <point x="119" y="-15"/>
    </contour>
    <contour>
      <point x="285" y="225" type="curve" smooth="yes"/>
      <point x="285" y="494" type="line" smooth="yes"/>
      <point x="285" y="520"/>
      <point x="297" y="540"/>
      <point x="369" y="540" type="curve" smooth="yes"/>
      <point x="442" y="540"/>
      <point x="453" y="520"/>
      <point x="453" y="494" type="curve" smooth="yes"/>
      <point x="453" y="225" type="line" smooth="yes"/>
      <point x="453" y="198"/>
      <point x="442" y="178"/>
      <point x="369" y="178" type="curve" smooth="yes"/>
      <point x="297" y="178"/>
      <point x="285" y="198"/>
    </contour>
  </outline>
</glyph>
<glyph name="ascript" format="1">
  <advance width="746"/>
  <unicode hex="0251"/>
  <outline>
    <contour>
      <point x="284" y="494" type="line" smooth="yes"/>
      <point x="284" y="520"/>
      <point x="296" y="540"/>
      <point x="366" y="540" type="curve" smooth="yes"/>
      <point x="439" y="540"/>
      <point x="450" y="522"/>
      <point x="450" y="496" type="curve"/>
      <point x="450" y="191" type="line"/>
      <point x="331" y="191" type="line" smooth="yes"/>
      <point x="299" y="191"/>
      <point x="284" y="204"/>
      <point x="284" y="238" type="curve" smooth="yes"/>
    </contour>
    <contour>
      <point x="675" y="530" type="line"/>
      <point x="675.0" y="652.0"/>
      <point x="615.193548387" y="735.0"/>
      <point x="366" y="735" type="curve" smooth="yes"/>
      <point x="119.215434084" y="735.0"/>
      <point x="58" y="652"/>
      <point x="58" y="530" type="curve" smooth="yes"/>
      <point x="58" y="204" type="line" smooth="yes"/>
      <point x="58" y="65"/>
      <point x="136" y="0"/>
      <point x="304" y="0" type="curve" smooth="yes"/>
      <point x="641" y="0" type="line" smooth="yes"/>
      <point x="666" y="0"/>
      <point x="677" y="11"/>
      <point x="677" y="36" type="curve" smooth="yes"/>
    </contour>
  </outline>
</glyph>
<glyph name="gscript" format="1">
  <advance width="715"/>
  <unicode hex="0261"/>
  <outline>
    <contour>
      <point x="440" y="496" type="curve"/>
      <point x="440" y="399" type="line"/>
      <point x="323" y="399" type="line" smooth="yes"/>
      <point x="291" y="399"/>
      <point x="276" y="414"/>
      <point x="276" y="448" type="curve" smooth="yes"/>
      <point x="276" y="494" type="line"/>
      <point x="276" y="520"/>
      <point x="288" y="540"/>
      <point x="358" y="540" type="curve" smooth="yes"/>
      <point x="431" y="540"/>
      <point x="440" y="522"/>
    </contour>
    <contour>
      <point x="50" y="530" type="curve"/>
      <point x="50" y="414" type="line" smooth="yes"/>
      <point x="50" y="275"/>
      <point x="126" y="210"/>
      <point x="294" y="210" type="curve" smooth="yes"/>
      <point x="439" y="210" type="line"/>
      <point x="439" y="176" type="line" smooth="yes"/>
      <point x="439" y="148"/>
      <point x="430" y="128"/>
      <point x="378" y="128" type="curve" smooth="yes"/>
      <point x="167" y="128" type="line" smooth="yes"/>
      <point x="142" y="128"/>
      <point x="131" y="117"/>
      <point x="131" y="92" type="curve" smooth="yes"/>
      <point x="131" y="-25" type="line" smooth="yes"/>
      <point x="131" y="-50"/>
      <point x="142" y="-61"/>
      <point x="167" y="-61" type="curve" smooth="yes"/>
      <point x="421" y="-61" type="line" smooth="yes"/>
      <point x="610" y="-61"/>
      <point x="667" y="22"/>
      <point x="667" y="143" type="curve" smooth="yes"/>
      <point x="667" y="530" type="line"/>
      <point x="667" y="652"/>
      <point x="607" y="735"/>
      <point x="358" y="735" type="curve" smooth="yes"/>
      <point x="111" y="735"/>
      <point x="50" y="652"/>
    </contour>
  </outline>
</glyph>
<glyph name="commaturnedmod" format="1">
  <advance width="500"/>
  <unicode hex="02BB"/>
  <outline>
    <contour>
      <point x="259" y="720" type="line" smooth="yes"/>
      <point x="183" y="720"/>
      <point x="134" y="678"/>
      <point x="134" y="592" type="curve" smooth="yes"/>
      <point x="134" y="440" type="line" smooth="yes"/>
      <point x="134" y="410"/>
      <point x="143" y="401"/>
      <point x="171" y="401" type="curve" smooth="yes"/>
      <point x="329" y="401" type="line" smooth="yes"/>
      <point x="357" y="401"/>
      <point x="366" y="410"/>
      <point x="366" y="440" type="curve" smooth="yes"/>
      <point x="366" y="549" type="line" smooth="yes"/>
      <point x="366" y="579"/>
      <point x="357" y="588"/>
      <point x="329" y="588" type="curve"/>
      <point x="243" y="588" type="line"/>
      <point x="243" y="601" type="line" smooth="yes"/>
      <point x="243" y="616"/>
      <point x="251" y="625"/>
      <point x="266" y="625" type="curve" smooth="yes"/>
      <point x="325" y="625" type="line" smooth="yes"/>
      <point x="346" y="625"/>
      <point x="355" y="634"/>
      <point x="355" y="655" type="curve" smooth="yes"/>
      <point x="355" y="689" type="line" smooth="yes"/>
      <point x="355" y="711"/>
      <point x="346" y="720"/>
      <point x="325" y="720" type="curve" smooth="yes"/>
    </contour>
  </outline>
</glyph>
<glyph name="caron" format="1">
  <advance width="500"/>
  <unicode hex="02C7"/>
  <outline>
    <contour>
      <point x="281" y="932" type="line"/>
      <point x="258" y="926"/>
      <point x="242" y="926"/>
      <point x="219" y="932" type="curve"/>
      <point x="82" y="972" type="line" smooth="yes"/>
      <point x="47" y="983"/>
      <point x="40" y="977"/>
      <point x="40" y="941" type="curve" smooth="yes"/>
      <point x="40" y="860" type="line" smooth="yes"/>
      <point x="40" y="824"/>
      <point x="48" y="820"/>
      <point x="82" y="807" type="curve" smooth="yes"/>
      <point x="219" y="757" type="line" smooth="yes"/>
      <point x="229" y="753"/>
      <point x="239" y="752"/>
      <point x="251" y="752" type="curve" smooth="yes"/>
      <point x="263" y="753"/>
      <point x="278" y="756"/>
      <point x="290" y="761" type="curve" smooth="yes"/>
      <point x="418" y="807" type="line" smooth="yes"/>
      <point x="450" y="820"/>
      <point x="459" y="824"/>
      <point x="459" y="860" type="curve" smooth="yes"/>
      <point x="459" y="941" type="line" smooth="yes"/>
      <point x="459" y="977"/>
      <point x="452" y="983"/>
      <point x="418" y="972" type="curve" smooth="yes"/>
    </contour>
    <contour>
      <point x="250" y="747" type="move" name="_top"/>
    </contour>
    <contour>
      <point x="250" y="0" type="move" name="_bottom"/>
    </contour>
  </outline>
</glyph>
<glyph name="breve" format="1">
  <advance width="500"/>
  <unicode hex="02D8"/>
  <outline>
    <contour>
      <point x="467" y="897" type="curve"/>
      <point x="467" y="941" type="line" smooth="yes"/>
      <point x="467" y="966"/>
      <point x="456" y="977"/>
      <point x="431" y="977" type="curve"/>
      <point x="340" y="977" type="line" smooth="yes"/>
      <point x="317" y="977"/>
      <point x="310" y="970"/>
      <point x="310" y="946" type="curve" smooth="yes"/>
      <point x="310" y="925" type="line" smooth="yes"/>
      <point x="310" y="906"/>
      <point x="301" y="892"/>
      <point x="251" y="892" type="curve" smooth="yes"/>
      <point x="202" y="892"/>
      <point x="194" y="906"/>
      <point x="194" y="925" type="curve" smooth="yes"/>
      <point x="194" y="946" type="line" smooth="yes"/>
      <point x="194" y="970"/>
      <point x="186" y="977"/>
      <point x="165" y="977" type="curve" smooth="yes"/>
      <point x="69" y="977" type="line" smooth="yes"/>
      <point x="44" y="977"/>
      <point x="33" y="966"/>
      <point x="33" y="941" type="curve" smooth="yes"/>
      <point x="33" y="897" type="line" smooth="yes"/>
      <point x="33" y="812"/>
      <point x="76" y="754"/>
      <point x="250" y="754" type="curve" smooth="yes"/>
      <point x="424" y="754"/>
      <point x="467" y="812"/>
    </contour>
    <contour>
      <point x="250" y="747" type="move" name="_top"/>
    </contour>
    <contour>
      <point x="250" y="0" type="move" name="_bottom"/>
    </contour>
  </outline>
</glyph>
<glyph name="dotaccent" format="1">
  <advance width="500"/>
  <unicode hex="02D9"/>
  <outline>
    <contour>
      <point x="330" y="760" type="line" smooth="yes"/>
      <point x="355" y="760"/>
      <point x="366" y="771"/>
      <point x="366" y="796" type="curve" smooth="yes"/>
      <point x="366" y="923" type="line" smooth="yes"/>
      <point x="366" y="948"/>
      <point x="355" y="959"/>
      <point x="330" y="959" type="curve"/>
      <point x="172" y="959" type="line" smooth="yes"/>
      <point x="147" y="959"/>
      <point x="136" y="948"/>
      <point x="136" y="923" type="curve" smooth="yes"/>
      <point x="136" y="796" type="line" smooth="yes"/>
      <point x="136" y="771"/>
      <point x="147" y="760"/>
      <point x="172" y="760" type="curve" smooth="yes"/>
    </contour>
    <contour>
      <point x="250" y="747" type="move" name="_top"/>
    </contour>
    <contour>
      <point x="250" y="0" type="move" name="_bottom"/>
    </contour>
  </outline>
</glyph>
<glyph name="emdash" format="1">
  <advance width="1134"/>
  <unicode hex="2014"/>
  <outline>
    <contour>
      <point x="106" y="257" type="curve"/>
      <point x="1028" y="257" type="line" smooth="yes"/>
      <point x="1053" y="257"/>
      <point x="1064" y="267"/>
      <point x="1064" y="293" type="curve" smooth="yes"/>
      <point x="1064" y="427" type="line" smooth="yes"/>
      <point x="1064" y="453"/>
      <point x="1053" y="463"/>
      <point x="1028" y="463" type="curve" smooth="yes"/>
      <point x="106" y="463" type="line" smooth="yes"/>
      <point x="81" y="463"/>
      <point x="70" y="452"/>
      <point x="70" y="427" type="curve" smooth="yes"/>
      <point x="70" y="293" type="line" smooth="yes"/>
      <point x="70" y="267"/>
      <point x="81" y="257"/>
    </contour>
  </outline>
</glyph>
<glyph name="quotedblbase" format="1">
  <advance width="684"/>
  <unicode hex="201E"/>
  <outline>
    <contour>
      <point x="171" y="-100" type="line" smooth="yes"/>
      <point x="261" y="-100"/>
      <point x="319" y="-51"/>
      <point x="319" y="51" type="curve" smooth="yes"/>
      <point x="319" y="239" type="line" smooth="yes"/>
      <point x="319" y="264"/>
      <point x="308" y="275"/>
      <point x="283" y="275" type="curve" smooth="yes"/>
      <point x="81" y="275" type="line" smooth="yes"/>
      <point x="56" y="275"/>
      <point x="45" y="264"/>
      <point x="45" y="239" type="curve"/>
      <point x="45" y="91" type="line"/>
      <point x="45" y="66"/>
      <point x="56" y="55"/>
      <point x="81" y="55" type="curve" smooth="yes"/>
      <point x="190" y="55" type="line"/>
      <point x="190" y="40" type="line" smooth="yes"/>
      <point x="190" y="22"/>
      <point x="181" y="12"/>
      <point x="163" y="12" type="curve" smooth="yes"/>
      <point x="94" y="12" type="line" smooth="yes"/>
      <point x="69" y="12"/>
      <point x="58" y="1"/>
      <point x="58" y="-24" type="curve"/>
      <point x="58" y="-64" type="line"/>
      <point x="58" y="-90"/>
      <point x="69" y="-100"/>
      <point x="94" y="-100" type="curve" smooth="yes"/>
    </contour>
    <contour>
      <point x="491" y="-100" type="line" smooth="yes"/>
      <point x="581" y="-100"/>
      <point x="639" y="-51"/>
      <point x="639" y="51" type="curve" smooth="yes"/>
      <point x="639" y="239" type="line" smooth="yes"/>
      <point x="639" y="264"/>
      <point x="628" y="275"/>
      <point x="603" y="275" type="curve" smooth="yes"/>
      <point x="401" y="275" type="line" smooth="yes"/>
      <point x="376" y="275"/>
      <point x="365" y="264"/>
      <point x="365" y="239" type="curve" smooth="yes"/>
      <point x="365" y="91" type="line" smooth="yes"/>
      <point x="365" y="66"/>
      <point x="376" y="55"/>
      <point x="401" y="55" type="curve" smooth="yes"/>
      <point x="510" y="55" type="line"/>
      <point x="510" y="40" type="line" smooth="yes"/>
      <point x="510" y="22"/>
      <point x="501" y="12"/>
      <point x="483" y="12" type="curve" smooth="yes"/>
      <point x="414" y="12" type="line" smooth="yes"/>
      <point x="389" y="12"/>
      <point x="378" y="1"/>
      <point x="378" y="-24" type="curve" smooth="yes"/>
      <point x="378" y="-64" type="line" smooth="yes"/>
      <point x="378" y="-90"/>
      <point x="389" y="-100"/>
      <point x="414" y="-100" type="curve" smooth="yes"/>
    </contour>
  </outline>
</glyph>
<glyph name="daggerdbl" format="1">
  <advance width="718"/>
  <unicode hex="2021"/>
  <outline>
    <contour>
      <point x="431" y="-20" type="line" smooth="yes"/>
      <point x="466" y="-20"/>
      <point x="471" y="-14"/>
      <point x="468" y="22" type="curve" smooth="yes"/>
      <point x="461" y="108" type="line"/>
      <point x="626" y="91" type="line" smooth="yes"/>
      <point x="661" y="88"/>
      <point x="668" y="94"/>
      <point x="668" y="129" type="curve" smooth="yes"/>
      <point x="668" y="260" type="line" smooth="yes"/>
      <point x="668" y="295"/>
      <point x="661" y="301"/>
      <point x="626" y="297" type="curve" smooth="yes"/>
      <point x="451" y="281" type="line"/>
      <point x="471" y="348" type="line" smooth="yes"/>
      <point x="471" y="351"/>
      <point x="471" y="355"/>
      <point x="471" y="360" type="curve" smooth="yes"/>
      <point x="471" y="364"/>
      <point x="471" y="368"/>
      <point x="471" y="371" type="curve" smooth="yes"/>
      <point x="451" y="439" type="line"/>
      <point x="626" y="423" type="line" smooth="yes"/>
      <point x="661" y="419"/>
      <point x="668" y="425"/>
      <point x="668" y="460" type="curve" smooth="yes"/>
      <point x="668" y="591" type="line" smooth="yes"/>
      <point x="668" y="625"/>
      <point x="661" y="631"/>
      <point x="626" y="628" type="curve" smooth="yes"/>
      <point x="461" y="612" type="line"/>
      <point x="468" y="698" type="line" smooth="yes"/>
      <point x="471" y="733"/>
      <point x="466" y="740"/>
      <point x="431" y="740" type="curve" smooth="yes"/>
      <point x="287" y="740" type="line" smooth="yes"/>
      <point x="252" y="740"/>
      <point x="247" y="733"/>
      <point x="250" y="698" type="curve" smooth="yes"/>
      <point x="257" y="612" type="line"/>
      <point x="92" y="628" type="line" smooth="yes"/>
      <point x="57" y="631"/>
      <point x="50" y="625"/>
      <point x="50" y="591" type="curve" smooth="yes"/>
      <point x="50" y="460" type="line" smooth="yes"/>
      <point x="50" y="425"/>
      <point x="57" y="419"/>
      <point x="92" y="423" type="curve" smooth="yes"/>
      <point x="266" y="439" type="line"/>
      <point x="247" y="371" type="line"/>
      <point x="246" y="368"/>
      <point x="246" y="364"/>
      <point x="246" y="360" type="curve" smooth="yes"/>
      <point x="246" y="355"/>
      <point x="246" y="351"/>
      <point x="247" y="348" type="curve"/>
      <point x="266" y="281" type="line"/>
      <point x="92" y="297" type="line" smooth="yes"/>
      <point x="57" y="301"/>
      <point x="50" y="295"/>
      <point x="50" y="260" type="curve" smooth="yes"/>
      <point x="50" y="129" type="line" smooth="yes"/>
      <point x="50" y="94"/>
      <point x="57" y="88"/>
      <point x="92" y="91" type="curve" smooth="yes"/>
      <point x="257" y="108" type="line"/>
      <point x="250" y="22" type="line" smooth="yes"/>
      <point x="247" y="-14"/>
      <point x="252" y="-20"/>
      <point x="287" y="-20" type="curve" smooth="yes"/>
    </contour>
  </outline>
</glyph>
<glyph name="ellipsis" format="1">
  <advance width="1110"/>
  <unicode hex="2026"/>
  <outline>
    <contour>
      <point x="293" y="0" type="line" smooth="yes"/>
      <point x="318" y="0"/>
      <point x="329" y="11"/>
      <point x="329" y="36" type="curve" smooth="yes"/>
      <point x="329" y="239" type="line" smooth="yes"/>
      <point x="329" y="265"/>
      <point x="318" y="275"/>
      <point x="293" y="275" type="curve" smooth="yes"/>
      <point x="91" y="275" type="line" smooth="yes"/>
      <point x="66" y="275"/>
      <point x="55" y="265"/>
      <point x="55" y="239" type="curve"/>
      <point x="55" y="36" type="line"/>
      <point x="55" y="11"/>
      <point x="66" y="0"/>
      <point x="91" y="0" type="curve" smooth="yes"/>
    </contour>
    <contour>
      <point x="656" y="0" type="line" smooth="yes"/>
      <point x="681" y="0"/>
      <point x="692" y="11"/>
      <point x="692" y="36" type="curve" smooth="yes"/>
      <point x="692" y="239" type="line" smooth="yes"/>
      <point x="692" y="265"/>
      <point x="681" y="275"/>
      <point x="656" y="275" type="curve" smooth="yes"/>
      <point x="454" y="275" type="line" smooth="yes"/>
      <point x="429" y="275"/>
      <point x="418" y="265"/>
      <point x="418" y="239" type="curve"/>
      <point x="418" y="36" type="line"/>
      <point x="418" y="11"/>
      <point x="429" y="0"/>
      <point x="454" y="0" type="curve" smooth="yes"/>
    </contour>
    <contour>
      <point x="1019" y="0" type="line" smooth="yes"/>
      <point x="1044" y="0"/>
      <point x="1055" y="11"/>
      <point x="1055" y="36" type="curve" smooth="yes"/>
      <point x="1055" y="239" type="line" smooth="yes"/>
      <point x="1055" y="265"/>
      <point x="1044" y="275"/>
      <point x="1019" y="275" type="curve" smooth="yes"/>
      <point x="817" y="275" type="line" smooth="yes"/>
      <point x="792" y="275"/>
      <point x="781" y="265"/>
      <point x="781" y="239" type="curve"/>
      <point x="781" y="36" type="line"/>
      <point x="781" y="11"/>
      <point x="792" y="0"/>
      <point x="817" y="0" type="curve" smooth="yes"/>
    </contour>
  </outline>
</glyph>
<glyph name="minute" format="1">
  <advance width="356"/>
  <unicode hex="2032"/>
  <outline>
    <contour>
      <point x="240" y="345" type="line" smooth="yes"/>
      <point x="273" y="345"/>
      <point x="279" y="353"/>
      <point x="282" y="386" type="curve" smooth="yes"/>
      <point x="310" y="679" type="line" smooth="yes"/>
      <point x="313" y="712"/>
      <point x="303" y="720"/>
      <point x="271" y="720" type="curve" smooth="yes"/>
      <point x="106" y="720" type="line" smooth="yes"/>
      <point x="73" y="720"/>
      <point x="67" y="712"/>
      <point x="66" y="679" type="curve" smooth="yes"/>
      <point x="54" y="386" type="line" smooth="yes"/>
      <point x="53" y="353"/>
      <point x="63" y="345"/>
      <point x="96" y="345" type="curve" smooth="yes"/>
    </contour>
  </outline>
</glyph>
<glyph name="foursuperior" format="1">
  <advance width="508.0"/>
  <unicode hex="2074"/>
  <outline>
    <contour>
      <point x="296" y="322" type="line"/>
      <point x="296" y="228" type="line" smooth="yes"/>
      <point x="296" y="210"/>
      <point x="304" y="202"/>
      <point x="322" y="202" type="curve" smooth="yes"/>
      <point x="433" y="202" type="line" smooth="yes"/>
      <point x="451" y="202"/>
      <point x="458" y="210"/>
      <point x="458" y="228" type="curve" smooth="yes"/>
      <point x="458" y="694" type="line" smooth="yes"/>
      <point x="458" y="712"/>
      <point x="451" y="720"/>
      <point x="433" y="720" type="curve" smooth="yes"/>
      <point x="322" y="720" type="line" smooth="yes"/>
      <point x="304" y="720"/>
      <point x="296" y="712"/>
      <point x="296" y="694" type="curve" smooth="yes"/>
      <point x="296" y="472" type="line"/>
      <point x="229" y="472" type="line" smooth="yes"/>
      <point x="215" y="472"/>
      <point x="206" y="482"/>
      <point x="206" y="497" type="curve" smooth="yes"/>
      <point x="206" y="694" type="line" smooth="yes"/>
      <point x="206" y="712"/>
      <point x="199" y="720"/>
      <point x="181" y="720" type="curve" smooth="yes"/>
      <point x="69" y="720" type="line" smooth="yes"/>
      <point x="51" y="720"/>
      <point x="43" y="712"/>
      <point x="43" y="694" type="curve" smooth="yes"/>
      <point x="43" y="441" type="line" smooth="yes"/>
      <point x="43" y="359"/>
      <point x="80" y="322"/>
      <point x="174" y="322" type="curve" smooth="yes"/>
    </contour>
  </outline>
</glyph>
<glyph name="five.sups" format="1">
  <advance width="493"/>
  <unicode hex="2075"/>
  <outline>
    <contour>
      <point x="309" y="202" type="line" smooth="yes"/>
      <point x="396" y="202"/>
      <point x="450" y="248"/>
      <point x="450" y="322" type="curve" smooth="yes"/>
      <point x="450" y="422" type="line" smooth="yes"/>
      <point x="450" y="498"/>
      <point x="402" y="536"/>
      <point x="324" y="536" type="curve" smooth="yes"/>
      <point x="225" y="536" type="line"/>
      <point x="225" y="583" type="line"/>
      <point x="398" y="583" type="line" smooth="yes"/>
      <point x="416" y="583"/>
      <point x="424" y="591"/>
      <point x="424" y="609" type="curve" smooth="yes"/>
      <point x="424" y="694" type="line" smooth="yes"/>
      <point x="424" y="712"/>
      <point x="416" y="720"/>
      <point x="398" y="720" type="curve" smooth="yes"/>
      <point x="88" y="720" type="line" smooth="yes"/>
      <point x="70" y="720"/>
      <point x="62" y="712"/>
      <point x="62" y="694" type="curve" smooth="yes"/>
      <point x="62" y="425" type="line" smooth="yes"/>
      <point x="62" y="407"/>
      <point x="70" y="399"/>
      <point x="88" y="399" type="curve" smooth="yes"/>
      <point x="266" y="399" type="line" smooth="yes"/>
      <point x="278" y="399"/>
      <point x="286" y="394"/>
      <point x="286" y="383" type="curve" smooth="yes"/>
      <point x="286" y="355" type="line" smooth="yes"/>
      <point x="286" y="343"/>
      <point x="278" y="338"/>
      <point x="266" y="338" type="curve" smooth="yes"/>
      <point x="81" y="338" type="line" smooth="yes"/>
      <point x="63" y="338"/>
      <point x="55" y="330"/>
      <point x="55" y="312" type="curve" smooth="yes"/>
      <point x="55" y="228" type="line" smooth="yes"/>
      <point x="55" y="210"/>
      <point x="63" y="202"/>
      <point x="81" y="202" type="curve" smooth="yes"/>
    </contour>
  </outline>
</glyph>
<glyph name="seven.sups" format="1">
  <advance width="477.0"/>
  <unicode hex="2077"/>
  <outline>
    <contour>
      <point x="399" y="720" type="curve"/>
      <point x="64" y="720" type="line" smooth="yes"/>
      <point x="46" y="720"/>
      <point x="38" y="712"/>
      <point x="38" y="694" type="curve" smooth="yes"/>
      <point x="38" y="607" type="line" smooth="yes"/>
      <point x="38" y="589"/>
      <point x="46" y="581"/>
      <point x="64" y="581" type="curve" smooth="yes"/>
      <point x="262" y="581" type="line"/>
      <point x="262" y="517" type="line"/>
      <point x="203" y="501" type="line" smooth="yes"/>
      <point x="126" y="478"/>
      <point x="91" y="450"/>
      <point x="91" y="358" type="curve" smooth="yes"/>
      <point x="91" y="228" type="line" smooth="yes"/>
      <point x="91" y="210"/>
      <point x="99" y="202"/>
      <point x="117" y="202" type="curve" smooth="yes"/>
      <point x="233" y="202" type="line" smooth="yes"/>
      <point x="251" y="202"/>
      <point x="259" y="210"/>
      <point x="259" y="228" type="curve" smooth="yes"/>
      <point x="259" y="354" type="line"/>
      <point x="313" y="370" type="line" smooth="yes"/>
      <point x="390" y="393"/>
      <point x="425" y="421"/>
      <point x="425" y="512" type="curve" smooth="yes"/>
      <point x="425" y="694" type="line" smooth="yes"/>
      <point x="425" y="712"/>
      <point x="417" y="720"/>
    </contour>
  </outline>
</glyph>
<glyph name="lira" format="1">
  <advance width="695"/>
  <unicode hex="20A4"/>
  <outline>
    <contour>
      <point x="614" y="0" type="line" smooth="yes"/>
      <point x="639" y="0"/>
      <point x="650" y="11"/>
      <point x="650" y="36" type="curve" smooth="yes"/>
      <point x="650" y="291" type="line" smooth="yes"/>
      <point x="650" y="316"/>
      <point x="639" y="327"/>
      <point x="614" y="327" type="curve" smooth="yes"/>
      <point x="469" y="327" type="line" smooth="yes"/>
      <point x="444" y="327"/>
      <point x="433" y="316"/>
      <point x="433" y="291" type="curve" smooth="yes"/>
      <point x="433" y="189" type="line"/>
      <point x="296" y="189" type="line"/>
      <point x="296" y="477" type="line" smooth="yes"/>
      <point x="296" y="503"/>
      <point x="305" y="527"/>
      <point x="357" y="527" type="curve" smooth="yes"/>
      <point x="505" y="527" type="line" smooth="yes"/>
      <point x="530" y="527"/>
      <point x="541" y="538"/>
      <point x="541" y="563" type="curve" smooth="yes"/>
      <point x="541" y="684" type="line" smooth="yes"/>
      <point x="541" y="709"/>
      <point x="530" y="720"/>
      <point x="505" y="720" type="curve" smooth="yes"/>
      <point x="315" y="720" type="line" smooth="yes"/>
      <point x="126" y="720"/>
      <point x="69" y="637"/>
      <point x="69" y="516" type="curve"/>
      <point x="69" y="36" type="line"/>
      <point x="69" y="11"/>
      <point x="80" y="0"/>
      <point x="105" y="0" type="curve" smooth="yes"/>
    </contour>
    <contour>
      <point x="56" y="375" type="curve"/>
      <point x="344" y="375" type="line" smooth="yes"/>
      <point x="369" y="375"/>
      <point x="380" y="385"/>
      <point x="380" y="411" type="curve" smooth="yes"/>
      <point x="380" y="438" type="line" smooth="yes"/>
      <point x="380" y="464"/>
      <point x="369" y="474"/>
      <point x="344" y="474" type="curve" smooth="yes"/>
      <point x="56" y="474" type="line" smooth="yes"/>
      <point x="31" y="474"/>
      <point x="20" y="463"/>
      <point x="20" y="438" type="curve" smooth="yes"/>
      <point x="20" y="411" type="line" smooth="yes"/>
      <point x="20" y="385"/>
      <point x="31" y="375"/>
    </contour>
    <contour>
      <point x="56" y="235" type="curve"/>
      <point x="344" y="235" type="line" smooth="yes"/>
      <point x="369" y="235"/>
      <point x="380" y="245"/>
      <point x="380" y="271" type="curve" smooth="yes"/>
      <point x="380" y="298" type="line" smooth="yes"/>
      <point x="380" y="324"/>
      <point x="369" y="334"/>
      <point x="344" y="334" type="curve" smooth="yes"/>
      <point x="56" y="334" type="line" smooth="yes"/>
      <point x="31" y="334"/>
      <point x="20" y="323"/>
      <point x="20" y="298" type="curve" smooth="yes"/>
      <point x="20" y="271" type="line" smooth="yes"/>
      <point x="20" y="245"/>
      <point x="31" y="235"/>
    </contour>
  </outline>
</glyph>
<glyph name="dong" format="1">
  <advance width="682"/>
  <unicode hex="20AB"/>
  <outline>
    <contour>
      <point x="613" y="645" type="curve"/>
      <point x="295" y="645" type="line" smooth="yes"/>
      <point x="270" y="645"/>
      <point x="259" y="635"/>
      <point x="259" y="609" type="curve" smooth="yes"/>
      <point x="259" y="562" type="line" smooth="yes"/>
      <point x="259" y="536"/>
      <point x="270" y="526"/>
      <point x="295" y="526" type="curve" smooth="yes"/>
      <point x="613" y="526" type="line" smooth="yes"/>
      <point x="638" y="526"/>
      <point x="649" y="537"/>
      <point x="649" y="562" type="curve" smooth="yes"/>
      <point x="649" y="609" type="line" smooth="yes"/>
      <point x="649" y="635"/>
      <point x="638" y="645"/>
    </contour>
    <contour>
      <point x="493" y="-45" type="curve"/>
      <point x="125" y="-45" type="line" smooth="yes"/>
      <point x="100" y="-45"/>
      <point x="89" y="-55"/>
      <point x="89" y="-81" type="curve" smooth="yes"/>
      <point x="89" y="-138" type="line" smooth="yes"/>
      <point x="89" y="-164"/>
      <point x="100" y="-174"/>
      <point x="125" y="-174" type="curve" smooth="yes"/>
      <point x="493" y="-174" type="line" smooth="yes"/>
      <point x="518" y="-174"/>
      <point x="529" y="-163"/>
      <point x="529" y="-138" type="curve" smooth="yes"/>
      <point x="529" y="-81" type="line" smooth="yes"/>
      <point x="529" y="-55"/>
      <point x="518" y="-45"/>
    </contour>
    <contour>
      <point x="384" y="195" type="line"/>
      <point x="384" y="171"/>
      <point x="376" y="155"/>
      <point x="310" y="155" type="curve" smooth="yes"/>
      <point x="246" y="155"/>
      <point x="235" y="173"/>
      <point x="235" y="197" type="curve"/>
      <point x="235" y="269" type="line" smooth="yes"/>
      <point x="235" y="299"/>
      <point x="249" y="313"/>
      <point x="278" y="313" type="curve" smooth="yes"/>
      <point x="384" y="313" type="line"/>
    </contour>
    <contour>
      <point x="580" y="684" type="line"/>
      <point x="580" y="709"/>
      <point x="569" y="720"/>
      <point x="544" y="720" type="curve" smooth="yes"/>
      <point x="419" y="720" type="line" smooth="yes"/>
      <point x="394" y="720"/>
      <point x="383" y="709"/>
      <point x="383" y="684" type="curve"/>
      <point x="383" y="465" type="line"/>
      <point x="252" y="465" type="line" smooth="yes"/>
      <point x="106" y="465"/>
      <point x="40" y="406"/>
      <point x="40" y="279" type="curve" smooth="yes"/>
      <point x="40" y="184" type="line" smooth="yes"/>
      <point x="40" y="74"/>
      <point x="94" y="-2"/>
      <point x="310" y="-2" type="curve" smooth="yes"/>
      <point x="528" y="-2"/>
      <point x="580" y="74"/>
      <point x="580" y="184" type="curve"/>
    </contour>
  </outline>
</glyph>
<glyph name="peso" format="1">
  <advance width="712.0"/>
  <unicode hex="20B1"/>
  <outline>
    <contour>
      <point x="108" y="564" type="line"/>
      <point x="56" y="564" type="line" smooth="yes"/>
      <point x="31" y="564"/>
      <point x="20" y="553"/>
      <point x="20" y="528" type="curve" smooth="yes"/>
      <point x="20" y="501" type="line" smooth="yes"/>
      <point x="20" y="475"/>
      <point x="31" y="465"/>
      <point x="56" y="465" type="curve"/>
      <point x="108" y="465" type="line"/>
    </contour>
    <contour>
      <point x="607" y="465" type="line"/>
      <point x="664" y="465" type="line" smooth="yes"/>
      <point x="689" y="465"/>
      <point x="700" y="475"/>
      <point x="700" y="501" type="curve" smooth="yes"/>
      <point x="700" y="528" type="line" smooth="yes"/>
      <point x="700" y="554"/>
      <point x="689" y="564"/>
      <point x="664" y="564" type="curve" smooth="yes"/>
      <point x="607" y="564" type="line"/>
    </contour>
    <contour>
      <point x="108" y="424" type="line"/>
      <point x="56" y="424" type="line" smooth="yes"/>
      <point x="31" y="424"/>
      <point x="20" y="413"/>
      <point x="20" y="388" type="curve" smooth="yes"/>
      <point x="20" y="361" type="line" smooth="yes"/>
      <point x="20" y="335"/>
      <point x="31" y="325"/>
      <point x="56" y="325" type="curve"/>
      <point x="108" y="325" type="line"/>
    </contour>
    <contour>
      <point x="607" y="325" type="line"/>
      <point x="664" y="325" type="line" smooth="yes"/>
      <point x="689" y="325"/>
      <point x="700" y="335"/>
      <point x="700" y="361" type="curve" smooth="yes"/>
      <point x="700" y="388" type="line" smooth="yes"/>
      <point x="700" y="414"/>
      <point x="689" y="424"/>
      <point x="664" y="424" type="curve" smooth="yes"/>
      <point x="607" y="424" type="line"/>
    </contour>
    <contour>
      <point x="260" y="0" type="line" smooth="yes"/>
      <point x="285" y="0"/>
      <point x="296" y="11"/>
      <point x="296" y="36" type="curve" smooth="yes"/>
      <point x="296" y="202" type="line"/>
      <point x="411" y="202" type="line" smooth="yes"/>
      <point x="593" y="202"/>
      <point x="647" y="281"/>
      <point x="647" y="397" type="curve" smooth="yes"/>
      <point x="647" y="525" type="line" smooth="yes"/>
      <point x="647" y="641"/>
      <point x="593" y="720"/>
      <point x="411" y="720" type="curve" smooth="yes"/>
      <point x="105" y="720" type="line" smooth="yes"/>
      <point x="80" y="720"/>
      <point x="69" y="709"/>
      <point x="69" y="684" type="curve" smooth="yes"/>
      <point x="69" y="36" type="line" smooth="yes"/>
      <point x="69" y="11"/>
      <point x="80" y="0"/>
      <point x="105" y="0" type="curve" smooth="yes"/>
    </contour>
    <contour>
      <point x="294" y="533" type="line"/>
      <point x="384" y="533" type="line" smooth="yes"/>
      <point x="423" y="533"/>
      <point x="431" y="510"/>
      <point x="431" y="484" type="curve" smooth="yes"/>
      <point x="431" y="431" type="line" smooth="yes"/>
      <point x="431" y="405"/>
      <point x="423" y="382"/>
      <point x="384" y="382" type="curve" smooth="yes"/>
      <point x="294" y="382" type="line"/>
    </contour>
  </outline>
</glyph>
<glyph name="guarani" format="1">
  <advance width="688.0"/>
  <unicode hex="20B2"/>
  <outline>
    <contour>
      <point x="254" y="63" type="line"/>
      <point x="254" y="-14" type="line" smooth="yes"/>
      <point x="254" y="-39"/>
      <point x="265" y="-50"/>
      <point x="290" y="-50" type="curve" smooth="yes"/>
      <point x="435" y="-50" type="line" smooth="yes"/>
      <point x="460" y="-50"/>
      <point x="471" y="-39"/>
      <point x="471" y="-14" type="curve" smooth="yes"/>
      <point x="471" y="63" type="line"/>
    </contour>
    <contour>
      <point x="471" y="632" type="line"/>
      <point x="471" y="734" type="line" smooth="yes"/>
      <point x="471" y="759"/>
      <point x="460" y="770"/>
      <point x="435" y="770" type="curve" smooth="yes"/>
      <point x="290" y="770" type="line" smooth="yes"/>
      <point x="265" y="770"/>
      <point x="254" y="759"/>
      <point x="254" y="734" type="curve" smooth="yes"/>
      <point x="254" y="632" type="line"/>
    </contour>
    <contour>
      <point x="599" y="40" type="line" smooth="yes"/>
      <point x="624" y="40"/>
      <point x="635" y="51"/>
      <point x="635" y="76" type="curve" smooth="yes"/>
      <point x="635" y="345" type="line" smooth="yes"/>
      <point x="635" y="370"/>
      <point x="624" y="381"/>
      <point x="599" y="381" type="curve" smooth="yes"/>
      <point x="454" y="381" type="line" smooth="yes"/>
      <point x="429" y="381"/>
      <point x="418" y="370"/>
      <point x="418" y="345" type="curve" smooth="yes"/>
      <point x="418" y="219" type="line"/>
      <point x="321" y="219" type="line" smooth="yes"/>
      <point x="290" y="219"/>
      <point x="275" y="234"/>
      <point x="275" y="268" type="curve" smooth="yes"/>
      <point x="275" y="447" type="line" smooth="yes"/>
      <point x="275" y="481"/>
      <point x="294" y="497"/>
      <point x="336" y="497" type="curve" smooth="yes"/>
      <point x="554" y="497" type="line" smooth="yes"/>
      <point x="579" y="497"/>
      <point x="590" y="508"/>
      <point x="590" y="533" type="curve" smooth="yes"/>
      <point x="590" y="644" type="line" smooth="yes"/>
      <point x="590" y="669"/>
      <point x="579" y="680"/>
      <point x="554" y="680" type="curve" smooth="yes"/>
      <point x="304" y="680" type="line" smooth="yes"/>
      <point x="136" y="680"/>
      <point x="58" y="615"/>
      <point x="58" y="476" type="curve" smooth="yes"/>
      <point x="58" y="244" type="line" smooth="yes"/>
      <point x="58" y="105"/>
      <point x="136" y="40"/>
      <point x="304" y="40" type="curve" smooth="yes"/>
    </contour>
  </outline>
</glyph>
<glyph name="turkishlira" format="1">
  <advance width="695"/>
  <unicode hex="20BA"/>
  <outline>
    <contour>
      <point x="574" y="0"/>
      <point x="670" y="98"/>
      <point x="670" y="279" type="curve" smooth="yes"/>
      <point x="670" y="351" type="line" smooth="yes"/>
      <point x="670" y="376"/>
      <point x="659" y="387"/>
      <point x="634" y="387" type="curve" smooth="yes"/>
      <point x="489" y="387" type="line" smooth="yes"/>
      <point x="464" y="387"/>
      <point x="453" y="376"/>
      <point x="453" y="351" type="curve" smooth="yes"/>
      <point x="453" y="261" type="line" smooth="yes"/>
      <point x="453" y="214"/>
      <point x="433" y="189"/>
      <point x="396" y="189" type="curve" smooth="yes"/>
      <point x="296.0" y="189.0" type="line"/>
      <point x="296.0" y="684.0" type="line" smooth="yes"/>
      <point x="296.0" y="709.0"/>
      <point x="285.0" y="720.0"/>
      <point x="260.0" y="720.0" type="curve" smooth="yes"/>
      <point x="105.0" y="720.0" type="line" smooth="yes"/>
      <point x="80.0" y="720.0"/>
      <point x="69.0" y="709.0"/>
      <point x="69.0" y="684.0" type="curve" smooth="yes"/>
      <point x="69.0" y="36.0" type="line" smooth="yes"/>
      <point x="69.0" y="11.0"/>
      <point x="80" y="0"/>
      <point x="105.0" y="0.0" type="curve" smooth="yes"/>
      <point x="396" y="0" type="line" smooth="yes"/>
    </contour>
    <contour>
      <point x="56" y="425" type="curve" smooth="yes"/>
      <point x="344" y="475" type="line" smooth="yes"/>
      <point x="369" y="479"/>
      <point x="380" y="485"/>
      <point x="380" y="511" type="curve" smooth="yes"/>
      <point x="380" y="538" type="line" smooth="yes"/>
      <point x="380" y="564"/>
      <point x="369" y="578"/>
      <point x="344" y="574" type="curve" smooth="yes"/>
      <point x="56" y="524" type="line" smooth="yes"/>
      <point x="31" y="520"/>
      <point x="20" y="513"/>
      <point x="20" y="488" type="curve" smooth="yes"/>
      <point x="20" y="461" type="line" smooth="yes"/>
      <point x="20" y="435"/>
      <point x="31" y="421"/>
    </contour>
    <contour>
      <point x="56" y="285" type="curve" smooth="yes"/>
      <point x="344" y="335" type="line" smooth="yes"/>
      <point x="369" y="339"/>
      <point x="380" y="345"/>
      <point x="380" y="371" type="curve" smooth="yes"/>
      <point x="380" y="398" type="line" smooth="yes"/>
      <point x="380" y="424"/>
      <point x="369" y="438"/>
      <point x="344" y="434" type="curve" smooth="yes"/>
      <point x="56" y="384" type="line" smooth="yes"/>
      <point x="31" y="380"/>
      <point x="20" y="373"/>
      <point x="20" y="348" type="curve" smooth="yes"/>
      <point x="20" y="321" type="line" smooth="yes"/>
      <point x="20" y="295"/>
      <point x="31" y="281"/>
    </contour>
  </outline>
</glyph>
<glyph name="Omega" format="1">
  <advance width="777"/>
  <unicode hex="2126"/>
  <outline>
    <contour>
      <point x="389" y="735" type="line"/>
      <point x="139" y="735"/>
      <point x="78" y="652"/>
      <point x="78" y="530" type="curve" smooth="yes"/>
      <point x="78" y="309" type="line" smooth="yes"/>
      <point x="78" y="191"/>
      <point x="133" y="111"/>
      <point x="362" y="105" type="curve"/>
      <point x="362" y="150" type="line" smooth="yes"/>
      <point x="362" y="172"/>
      <point x="354" y="177"/>
      <point x="335" y="184" type="curve" smooth="yes"/>
      <point x="311" y="193"/>
      <point x="305" y="206"/>
      <point x="305" y="225" type="curve" smooth="yes"/>
      <point x="305" y="494" type="line" smooth="yes"/>
      <point x="305" y="520"/>
      <point x="317" y="540"/>
      <point x="389" y="540" type="curve"/>
    </contour>
    <contour>
      <point x="326" y="0" type="line" smooth="yes"/>
      <point x="351" y="0"/>
      <point x="362" y="11"/>
      <point x="362" y="36" type="curve" smooth="yes"/>
      <point x="362" y="122" type="line"/>
      <point x="135" y="189" type="line"/>
      <point x="72" y="189" type="line" smooth="yes"/>
      <point x="47" y="189"/>
      <point x="36" y="178"/>
      <point x="36" y="153" type="curve" smooth="yes"/>
      <point x="36" y="36" type="line" smooth="yes"/>
      <point x="36" y="11"/>
      <point x="47" y="0"/>
      <point x="72" y="0" type="curve" smooth="yes"/>
    </contour>
    <contour>
      <point x="389" y="540" type="line"/>
      <point x="461" y="540"/>
      <point x="473" y="520"/>
      <point x="473" y="494" type="curve" smooth="yes"/>
      <point x="473" y="225" type="line" smooth="yes"/>
      <point x="473" y="206"/>
      <point x="467" y="193"/>
      <point x="443" y="184" type="curve" smooth="yes"/>
      <point x="424" y="177"/>
      <point x="416" y="172"/>
      <point x="416" y="150" type="curve" smooth="yes"/>
      <point x="416" y="105" type="line"/>
      <point x="645" y="111"/>
      <point x="700" y="191"/>
      <point x="700" y="309" type="curve" smooth="yes"/>
      <point x="700" y="530" type="line" smooth="yes"/>
      <point x="700" y="652"/>
      <point x="639" y="735"/>
      <point x="389" y="735" type="curve"/>
    </contour>
    <contour>
      <point x="706" y="0" type="line" smooth="yes"/>
      <point x="731" y="0"/>
      <point x="742" y="11"/>
      <point x="742" y="36" type="curve" smooth="yes"/>
      <point x="742" y="153" type="line" smooth="yes"/>
      <point x="742" y="178"/>
      <point x="731" y="189"/>
      <point x="706" y="189" type="curve" smooth="yes"/>
      <point x="643" y="189" type="line"/>
      <point x="416" y="122" type="line"/>
      <point x="416" y="36" type="line" smooth="yes"/>
      <point x="416" y="11"/>
      <point x="427" y="0"/>
      <point x="452" y="0" type="curve" smooth="yes"/>
    </contour>
  </outline>
</glyph>
<glyph name="arrowdown" format="1">
  <advance width="1000"/>
  <unicode hex="2193"/>
  <outline>
    <contour>
      <point x="401" y="650" type="curve" smooth="yes"/>
      <point x="412" y="470" type="line"/>
      <point x="240" y="470" type="line" smooth="yes"/>
      <point x="218" y="470"/>
      <point x="205" y="439"/>
      <point x="220" y="417" type="curve" smooth="yes"/>
      <point x="454" y="70" type="line" smooth="yes"/>
      <point x="466" y="51"/>
      <point x="479" y="39"/>
      <point x="500" y="39" type="curve"/>
      <point x="522" y="39"/>
      <point x="535" y="51"/>
      <point x="547" y="70" type="curve" smooth="yes"/>
      <point x="781" y="417" type="line" smooth="yes"/>
      <point x="796" y="439"/>
      <point x="784" y="470"/>
      <point x="761" y="470" type="curve" smooth="yes"/>
      <point x="589" y="470" type="line"/>
      <point x="600" y="650" type="line" smooth="yes"/>
      <point x="601" y="672"/>
      <point x="589" y="681"/>
      <point x="567" y="681" type="curve" smooth="yes"/>
      <point x="434" y="681" type="line" smooth="yes"/>
      <point x="412" y="681"/>
      <point x="400" y="672"/>
    </contour>
  </outline>
</glyph>
<glyph name="arrowupright" format="1">
  <advance width="1000"/>
  <unicode hex="2197"/>
  <outline>
    <contour>
      <point x="389" y="108" type="curve" smooth="yes"/>
      <point x="507" y="242" type="line"/>
      <point x="629" y="121" type="line" smooth="yes"/>
      <point x="645" y="105"/>
      <point x="676" y="119"/>
      <point x="682" y="145" type="curve" smooth="yes"/>
      <point x="761" y="555" type="line" smooth="yes"/>
      <point x="766" y="577"/>
      <point x="766" y="595"/>
      <point x="751" y="610" type="curve"/>
      <point x="735" y="626"/>
      <point x="717" y="626"/>
      <point x="695" y="621" type="curve" smooth="yes"/>
      <point x="285" y="542" type="line" smooth="yes"/>
      <point x="259" y="536"/>
      <point x="245" y="505"/>
      <point x="261" y="489" type="curve" smooth="yes"/>
      <point x="382" y="367" type="line"/>
      <point x="248" y="249" type="line" smooth="yes"/>
      <point x="231" y="234"/>
      <point x="233" y="218"/>
      <point x="249" y="204" type="curve" smooth="yes"/>
      <point x="343" y="109" type="line" smooth="yes"/>
      <point x="358" y="93"/>
      <point x="373" y="91"/>
    </contour>
  </outline>
</glyph>
<glyph name="arrowdownleft" format="1">
  <advance width="1000"/>
  <unicode hex="2199"/>
  <outline>
    <contour>
      <point x="752" y="471" type="curve" smooth="yes"/>
      <point x="618" y="353" type="line"/>
      <point x="739" y="231" type="line" smooth="yes"/>
      <point x="755" y="215"/>
      <point x="741" y="184"/>
      <point x="715" y="178" type="curve" smooth="yes"/>
      <point x="305" y="99" type="line" smooth="yes"/>
      <point x="283" y="94"/>
      <point x="265" y="94"/>
      <point x="250" y="109" type="curve"/>
      <point x="234" y="125"/>
      <point x="234" y="143"/>
      <point x="239" y="165" type="curve" smooth="yes"/>
      <point x="318" y="575" type="line" smooth="yes"/>
      <point x="324" y="602"/>
      <point x="355" y="615"/>
      <point x="371" y="599" type="curve" smooth="yes"/>
      <point x="493" y="478" type="line"/>
      <point x="611" y="612" type="line" smooth="yes"/>
      <point x="626" y="629"/>
      <point x="642" y="627"/>
      <point x="656" y="611" type="curve" smooth="yes"/>
      <point x="751" y="518" type="line" smooth="yes"/>
      <point x="767" y="502"/>
      <point x="769" y="487"/>
    </contour>
  </outline>
</glyph>
<glyph name="uni21B2" format="1">
  <advance width="1000"/>
  <unicode hex="21B2"/>
  <outline>
    <contour>
      <point x="595" y="183" type="line" smooth="yes"/>
      <point x="763" y="183"/>
      <point x="813" y="254"/>
      <point x="813" y="361" type="curve" smooth="yes"/>
      <point x="813" y="670" type="line" smooth="yes"/>
      <point x="813" y="690"/>
      <point x="804" y="700"/>
      <point x="782" y="700" type="curve" smooth="yes"/>
      <point x="677" y="700" type="line" smooth="yes"/>
      <point x="655" y="700"/>
      <point x="644" y="690"/>
      <point x="646" y="670" type="curve" smooth="yes"/>
      <point x="646" y="410" type="line" smooth="yes"/>
      <point x="646" y="366"/>
      <point x="624" y="349"/>
      <point x="579" y="349" type="curve" smooth="yes"/>
      <point x="513" y="349" type="line"/>
      <point x="554" y="508" type="line" smooth="yes"/>
      <point x="556" y="528"/>
      <point x="524" y="541"/>
      <point x="502" y="527" type="curve" smooth="yes"/>
      <point x="178" y="309" type="line" smooth="yes"/>
      <point x="160" y="298"/>
      <point x="148" y="286"/>
      <point x="148" y="266" type="curve"/>
      <point x="148" y="246"/>
      <point x="160" y="234"/>
      <point x="178" y="224" type="curve" smooth="yes"/>
      <point x="502" y="6" type="line" smooth="yes"/>
      <point x="524" y="-9"/>
      <point x="556" y="5"/>
      <point x="554" y="25" type="curve" smooth="yes"/>
      <point x="513" y="183" type="line"/>
    </contour>
  </outline>
</glyph>
<glyph name="Delta" format="1">
  <advance width="730"/>
  <unicode hex="2206"/>
  <outline>
    <contour>
      <point x="640" y="0" type="line" smooth="yes"/>
      <point x="666" y="0"/>
      <point x="676" y="11"/>
      <point x="676" y="36" type="curve" smooth="yes"/>
      <point x="676" y="170" type="line" smooth="yes"/>
      <point x="676" y="229"/>
      <point x="660" y="288"/>
      <point x="647" y="340" type="curve" smooth="yes"/>
      <point x="560" y="679" type="line"/>
      <point x="548" y="709"/>
      <point x="532" y="720"/>
      <point x="499" y="720" type="curve" smooth="yes"/>
      <point x="232" y="720" type="line" smooth="yes"/>
      <point x="198" y="720"/>
      <point x="183" y="709"/>
      <point x="170" y="679" type="curve"/>
      <point x="83" y="340" type="line" smooth="yes"/>
      <point x="70" y="288"/>
      <point x="54" y="229"/>
      <point x="54" y="170" type="curve" smooth="yes"/>
      <point x="54" y="36" type="line" smooth="yes"/>
      <point x="54" y="11"/>
      <point x="65" y="0"/>
      <point x="90" y="0" type="curve" smooth="yes"/>
    </contour>
    <contour>
      <point x="272" y="210" type="line" smooth="yes"/>
      <point x="272" y="224"/>
      <point x="276" y="245"/>
      <point x="280" y="261" type="curve" smooth="yes"/>
      <point x="334" y="504" type="line"/>
      <point x="339" y="517"/>
      <point x="342" y="521"/>
      <point x="353" y="521" type="curve" smooth="yes"/>
      <point x="370" y="521" type="line" smooth="yes"/>
      <point x="381" y="521"/>
      <point x="384" y="517"/>
      <point x="389" y="504" type="curve"/>
      <point x="442" y="261" type="line" smooth="yes"/>
      <point x="446" y="245"/>
      <point x="450" y="224"/>
      <point x="450" y="210" type="curve" smooth="yes"/>
      <point x="450" y="189" type="line"/>
      <point x="272" y="189" type="line"/>
    </contour>
  </outline>
</glyph>
<glyph name="radical" format="1">
  <advance width="741"/>
  <unicode hex="221A"/>
  <outline>
    <contour>
      <point x="65" y="298" type="curve"/>
      <point x="128" y="298" type="line"/>
      <point x="229" y="33" type="line"/>
      <point x="240" y="9"/>
      <point x="253" y="0"/>
      <point x="279" y="0" type="curve" smooth="yes"/>
      <point x="500" y="0" type="line" smooth="yes"/>
      <point x="526" y="0"/>
      <point x="540" y="9"/>
      <point x="551" y="33" type="curve"/>
      <point x="729" y="774" type="line" smooth="yes"/>
      <point x="736" y="798"/>
      <point x="724" y="810"/>
      <point x="699" y="810" type="curve" smooth="yes"/>
      <point x="559" y="810" type="line" smooth="yes"/>
      <point x="534" y="810"/>
      <point x="523" y="798"/>
      <point x="517" y="774" type="curve" smooth="yes"/>
      <point x="404" y="258" type="line" smooth="yes"/>
      <point x="401" y="244"/>
      <point x="396" y="241"/>
      <point x="384" y="241" type="curve" smooth="yes"/>
      <point x="379" y="241" type="line" smooth="yes"/>
      <point x="367" y="241"/>
      <point x="364" y="245"/>
      <point x="359" y="258" type="curve" smooth="yes"/>
      <point x="289" y="461" type="line" smooth="yes"/>
      <point x="280" y="484"/>
      <point x="272" y="497"/>
      <point x="247" y="497" type="curve" smooth="yes"/>
      <point x="65" y="497" type="line" smooth="yes"/>
      <point x="40" y="497"/>
      <point x="29" y="486"/>
      <point x="29" y="461" type="curve" smooth="yes"/>
      <point x="29" y="334" type="line" smooth="yes"/>
      <point x="29" y="308"/>
      <point x="40" y="298"/>
    </contour>
  </outline>
</glyph>
<glyph name="integral" format="1">
  <advance width="474"/>
  <unicode hex="222B"/>
  <outline>
    <contour>
      <point x="123" y="605" type="curve"/>
      <point x="123" y="153" type="line" smooth="yes"/>
      <point x="123" y="127"/>
      <point x="117" y="103"/>
      <point x="82" y="103" type="curve" smooth="yes"/>
      <point x="51" y="103" type="line" smooth="yes"/>
      <point x="26" y="103"/>
      <point x="15" y="92"/>
      <point x="15" y="67" type="curve" smooth="yes"/>
      <point x="15" y="-54" type="line" smooth="yes"/>
      <point x="15" y="-79"/>
      <point x="26" y="-90"/>
      <point x="51" y="-90" type="curve" smooth="yes"/>
      <point x="105" y="-90" type="line" smooth="yes"/>
      <point x="294" y="-90"/>
      <point x="351" y="-7"/>
      <point x="351" y="115" type="curve" smooth="yes"/>
      <point x="351" y="567" type="line" smooth="yes"/>
      <point x="351" y="593"/>
      <point x="357" y="617"/>
      <point x="392" y="617" type="curve" smooth="yes"/>
      <point x="423" y="617" type="line" smooth="yes"/>
      <point x="448" y="617"/>
      <point x="459" y="628"/>
      <point x="459" y="653" type="curve" smooth="yes"/>
      <point x="459" y="774" type="line" smooth="yes"/>
      <point x="459" y="799"/>
      <point x="448" y="810"/>
      <point x="423" y="810" type="curve" smooth="yes"/>
      <point x="369" y="810" type="line" smooth="yes"/>
      <point x="180" y="810"/>
      <point x="123" y="727"/>
    </contour>
  </outline>
</glyph>
<glyph name="lessequal" format="1">
  <advance width="714"/>
  <unicode hex="2264"/>
  <outline>
    <contour>
      <point x="588" y="0" type="line" smooth="yes"/>
      <point x="613" y="0"/>
      <point x="624" y="10"/>
      <point x="624" y="36" type="curve" smooth="yes"/>
      <point x="624" y="292" type="line" smooth="yes"/>
      <point x="624" y="318"/>
      <point x="613" y="329"/>
      <point x="588" y="333" type="curve" smooth="yes"/>
      <point x="301" y="410" type="line" smooth="yes"/>
      <point x="287" y="413"/>
      <point x="284" y="417"/>
      <point x="284" y="429" type="curve" smooth="yes"/>
      <point x="284" y="441"/>
      <point x="287" y="445"/>
      <point x="301" y="448" type="curve" smooth="yes"/>
      <point x="588" y="525" type="line" smooth="yes"/>
      <point x="613" y="529"/>
      <point x="624" y="540"/>
      <point x="624" y="566" type="curve" smooth="yes"/>
      <point x="624" y="698" type="line" smooth="yes"/>
      <point x="624" y="724"/>
      <point x="613" y="734"/>
      <point x="588" y="729" type="curve" smooth="yes"/>
      <point x="207" y="620" type="line" smooth="yes"/>
      <point x="124" y="596"/>
      <point x="80" y="564"/>
      <point x="80" y="465" type="curve" smooth="yes"/>
      <point x="80" y="393" type="line" smooth="yes"/>
      <point x="80" y="294"/>
      <point x="124" y="262"/>
      <point x="207" y="238" type="curve"/>
      <point x="389" y="186" type="line"/>
      <point x="116" y="186" type="line" smooth="yes"/>
      <point x="91" y="186"/>
      <point x="80" y="175"/>
      <point x="80" y="150" type="curve" smooth="yes"/>
      <point x="80" y="36" type="line" smooth="yes"/>
      <point x="80" y="10"/>
      <point x="91" y="0"/>
      <point x="116" y="0" type="curve"/>
    </contour>
  </outline>
</glyph>
<glyph name="greaterequal" format="1">
  <advance width="714"/>
  <unicode hex="2265"/>
  <outline>
    <contour>
      <point x="598" y="0" type="line" smooth="yes"/>
      <point x="623" y="0"/>
      <point x="634" y="10"/>
      <point x="634" y="36" type="curve" smooth="yes"/>
      <point x="634" y="150" type="line" smooth="yes"/>
      <point x="634" y="176"/>
      <point x="623" y="186"/>
      <point x="598" y="186" type="curve" smooth="yes"/>
      <point x="325" y="186" type="line"/>
      <point x="507" y="238" type="line"/>
      <point x="590" y="262"/>
      <point x="634" y="294"/>
      <point x="634" y="393" type="curve" smooth="yes"/>
      <point x="634" y="465" type="line" smooth="yes"/>
      <point x="634" y="564"/>
      <point x="590" y="596"/>
      <point x="507" y="620" type="curve" smooth="yes"/>
      <point x="126" y="729" type="line" smooth="yes"/>
      <point x="101" y="734"/>
      <point x="90" y="724"/>
      <point x="90" y="698" type="curve" smooth="yes"/>
      <point x="90" y="566" type="line" smooth="yes"/>
      <point x="90" y="540"/>
      <point x="101" y="529"/>
      <point x="126" y="525" type="curve" smooth="yes"/>
      <point x="413" y="448" type="line" smooth="yes"/>
      <point x="427" y="445"/>
      <point x="430" y="441"/>
      <point x="430" y="429" type="curve" smooth="yes"/>
      <point x="430" y="417"/>
      <point x="427" y="413"/>
      <point x="413" y="410" type="curve" smooth="yes"/>
      <point x="126" y="333" type="line" smooth="yes"/>
      <point x="101" y="329"/>
      <point x="90" y="318"/>
      <point x="90" y="292" type="curve" smooth="yes"/>
      <point x="90" y="36" type="line" smooth="yes"/>
      <point x="90" y="10"/>
      <point x="101" y="0"/>
      <point x="126" y="0" type="curve"/>
    </contour>
  </outline>
</glyph>
<glyph name="block" format="1">
  <advance width="1000.0"/>
  <unicode hex="2588"/>
  <outline>
    <contour>
      <point x="1040" y="-180" type="line"/>
      <point x="-40" y="-180" type="line"/>
      <point x="-40" y="900" type="line"/>
      <point x="1040" y="900" type="line"/>
    </contour>
  </outline>
</glyph>
<glyph name="blacksquare" format="1">
  <advance width="1000.0"/>
  <unicode hex="25A0"/>
  <outline>
    <contour>
      <point x="720" y="176" type="curve" smooth="yes"/>
      <point x="720" y="544" type="line" smooth="yes"/>
      <point x="720" y="569"/>
      <point x="709" y="580"/>
      <point x="684" y="580" type="curve" smooth="yes"/>
      <point x="316" y="580" type="line" smooth="yes"/>
      <point x="291" y="580"/>
      <point x="280" y="569"/>
      <point x="280" y="544" type="curve" smooth="yes"/>
      <point x="280" y="176" type="line" smooth="yes"/>
      <point x="280" y="151"/>
      <point x="291" y="140"/>
      <point x="316" y="140" type="curve" smooth="yes"/>
      <point x="684" y="140" type="line" smooth="yes"/>
      <point x="709" y="140"/>
      <point x="720" y="151"/>
    </contour>
  </outline>
</glyph>
<glyph name="blackuppointingtriangle" format="1">
  <advance width="1000"/>
  <unicode hex="25B2"/>
  <outline>
    <contour>
      <point x="751" y="140" type="line"/>
      <point x="773" y="140"/>
      <point x="785" y="171"/>
      <point x="771" y="193" type="curve" smooth="yes"/>
      <point x="547" y="560" type="line" smooth="yes"/>
      <point x="535" y="579"/>
      <point x="522" y="591"/>
      <point x="501" y="591" type="curve"/>
      <point x="479" y="591"/>
      <point x="466" y="579"/>
      <point x="454" y="560" type="curve" smooth="yes"/>
      <point x="230" y="193" type="line" smooth="yes"/>
      <point x="216" y="171"/>
      <point x="227" y="140"/>
      <point x="250" y="140" type="curve"/>
    </contour>
  </outline>
</glyph>
<glyph name="whiteuppointingtriangle" format="1">
  <advance width="1000"/>
  <unicode hex="25B3"/>
  <outline>
    <contour>
      <point x="751" y="130" type="curve" smooth="yes"/>
      <point x="250" y="130" type="line" smooth="yes"/>
      <point x="229" y="130"/>
      <point x="214" y="148"/>
      <point x="214" y="172" type="curve" smooth="yes"/>
      <point x="214" y="181"/>
      <point x="216" y="189"/>
      <point x="221" y="198" type="curve" smooth="yes"/>
      <point x="446" y="565" type="line" smooth="yes"/>
      <point x="460" y="588"/>
      <point x="475" y="601"/>
      <point x="501" y="601" type="curve" smooth="yes"/>
      <point x="525" y="601"/>
      <point x="541" y="588"/>
      <point x="556" y="565" type="curve" smooth="yes"/>
      <point x="780" y="198" type="line" smooth="yes"/>
      <point x="785" y="189"/>
      <point x="787" y="181"/>
      <point x="787" y="172" type="curve" smooth="yes"/>
      <point x="787" y="148"/>
      <point x="771" y="130"/>
    </contour>
    <contour>
      <point x="751" y="150" type="line" smooth="yes"/>
      <point x="761" y="150"/>
      <point x="767" y="162"/>
      <point x="767" y="172" type="curve" smooth="yes"/>
      <point x="767" y="177"/>
      <point x="765" y="183"/>
      <point x="762" y="188" type="curve" smooth="yes"/>
      <point x="538" y="555" type="line" smooth="yes"/>
      <point x="529" y="570"/>
      <point x="519" y="581"/>
      <point x="501" y="581" type="curve" smooth="yes"/>
      <point x="483" y="581"/>
      <point x="472" y="570"/>
      <point x="462" y="555" type="curve" smooth="yes"/>
      <point x="239" y="188" type="line" smooth="yes"/>
      <point x="236" y="183"/>
      <point x="234" y="177"/>
      <point x="234" y="172" type="curve" smooth="yes"/>
      <point x="234" y="162"/>
      <point x="239" y="150"/>
      <point x="250" y="150" type="curve" smooth="yes"/>
    </contour>
  </outline>
</glyph>
<glyph name="blackdownpointingtriangle" format="1">
  <advance width="1000"/>
  <unicode hex="25BC"/>
  <outline>
    <contour>
      <point x="250" y="591" type="line"/>
      <point x="228" y="591"/>
      <point x="216" y="560"/>
      <point x="230" y="538" type="curve" smooth="yes"/>
      <point x="454" y="171" type="line" smooth="yes"/>
      <point x="466" y="152"/>
      <point x="479" y="140"/>
      <point x="500" y="140" type="curve"/>
      <point x="522" y="140"/>
      <point x="535" y="152"/>
      <point x="547" y="171" type="curve" smooth="yes"/>
      <point x="771" y="538" type="line" smooth="yes"/>
      <point x="785" y="560"/>
      <point x="774" y="591"/>
      <point x="751" y="591" type="curve"/>
    </contour>
  </outline>
</glyph>
<glyph name="whitedownpointingtriangle" format="1">
  <advance width="1000"/>
  <unicode hex="25BD"/>
  <outline>
    <contour>
      <point x="249" y="600" type="curve" smooth="yes"/>
      <point x="750" y="600" type="line" smooth="yes"/>
      <point x="771" y="600"/>
      <point x="786" y="582"/>
      <point x="786" y="558" type="curve" smooth="yes"/>
      <point x="786" y="549"/>
      <point x="784" y="541"/>
      <point x="779" y="532" type="curve" smooth="yes"/>
      <point x="554" y="165" type="line" smooth="yes"/>
      <point x="540" y="142"/>
      <point x="525" y="129"/>
      <point x="499" y="129" type="curve" smooth="yes"/>
      <point x="475" y="129"/>
      <point x="459" y="142"/>
      <point x="444" y="165" type="curve" smooth="yes"/>
      <point x="220" y="532" type="line" smooth="yes"/>
      <point x="215" y="541"/>
      <point x="213" y="549"/>
      <point x="213" y="558" type="curve" smooth="yes"/>
      <point x="213" y="582"/>
      <point x="229" y="600"/>
    </contour>
    <contour>
      <point x="249" y="580" type="line" smooth="yes"/>
      <point x="239" y="580"/>
      <point x="233" y="568"/>
      <point x="233" y="558" type="curve" smooth="yes"/>
      <point x="233" y="553"/>
      <point x="235" y="547"/>
      <point x="238" y="542" type="curve" smooth="yes"/>
      <point x="462" y="175" type="line" smooth="yes"/>
      <point x="471" y="160"/>
      <point x="481" y="149"/>
      <point x="499" y="149" type="curve" smooth="yes"/>
      <point x="517" y="149"/>
      <point x="528" y="160"/>
      <point x="538" y="175" type="curve" smooth="yes"/>
      <point x="761" y="542" type="line" smooth="yes"/>
      <point x="764" y="547"/>
      <point x="766" y="553"/>
      <point x="766" y="558" type="curve" smooth="yes"/>
      <point x="766" y="568"/>
      <point x="761" y="580"/>
      <point x="750" y="580" type="curve" smooth="yes"/>
    </contour>
  </outline>
</glyph>
<glyph name="blackleftpointingtriangle" format="1">
  <advance width="1000"/>
  <unicode hex="25C0"/>
  <outline>
    <contour>
      <point x="726" y="114" type="curve"/>
      <point x="726" y="615" type="line"/>
      <point x="726" y="638"/>
      <point x="695" y="649"/>
      <point x="673" y="635" type="curve" smooth="yes"/>
      <point x="306" y="411" type="line" smooth="yes"/>
      <point x="287" y="399"/>
      <point x="275" y="386"/>
      <point x="275" y="364" type="curve"/>
      <point x="275" y="343"/>
      <point x="287" y="330"/>
      <point x="306" y="318" type="curve" smooth="yes"/>
      <point x="673" y="94" type="line" smooth="yes"/>
      <point x="695" y="80"/>
      <point x="726" y="92"/>
    </contour>
  </outline>
</glyph>
<glyph name="blackdiamond" format="1">
  <advance width="1000.0"/>
  <unicode hex="25C6"/>
  <outline>
    <contour>
      <point x="525" y="74" type="curve" smooth="yes"/>
      <point x="786" y="335" type="line" smooth="yes"/>
      <point x="803" y="352"/>
      <point x="803" y="368"/>
      <point x="786" y="385" type="curve" smooth="yes"/>
      <point x="525" y="646" type="line" smooth="yes"/>
      <point x="508" y="663"/>
      <point x="492" y="663"/>
      <point x="475" y="646" type="curve" smooth="yes"/>
      <point x="214" y="385" type="line" smooth="yes"/>
      <point x="197" y="368"/>
      <point x="197" y="352"/>
      <point x="214" y="335" type="curve" smooth="yes"/>
      <point x="475" y="74" type="line" smooth="yes"/>
      <point x="492" y="57"/>
      <point x="508" y="57"/>
    </contour>
  </outline>
</glyph>
<glyph name="uni25DE" format="1">
  <advance width="1280"/>
  <unicode hex="25DE"/>
  <outline>
    <contour>
      <point x="100" y="-144" type="line" smooth="yes"/>
      <point x="100" y="-169"/>
      <point x="111" y="-180"/>
      <point x="136" y="-180" type="curve" smooth="yes"/>
      <point x="269" y="-180" type="line" smooth="yes"/>
      <point x="879" y="-180"/>
      <point x="1180" y="121"/>
      <point x="1180" y="731" type="curve" smooth="yes"/>
      <point x="1180" y="864" type="line" smooth="yes"/>
      <point x="1180" y="889"/>
      <point x="1169" y="900"/>
      <point x="1144" y="900" type="curve" smooth="yes"/>
      <point x="130" y="900" type="line" smooth="yes"/>
      <point x="113" y="900"/>
      <point x="100" y="887"/>
      <point x="100" y="870" type="curve" smooth="yes"/>
    </contour>
  </outline>
</glyph>
<glyph name="uni261A" format="1">
  <advance width="1000"/>
  <unicode hex="261A"/>
  <outline>
    <contour>
      <point x="734" y="105" type="line"/>
      <point x="723" y="105"/>
      <point x="716" y="112"/>
      <point x="716" y="124" type="curve" smooth="yes"/>
      <point x="716" y="596" type="line" smooth="yes"/>
      <point x="716" y="609"/>
      <point x="723" y="615"/>
      <point x="734" y="615" type="curve"/>
      <point x="829" y="615" type="line"/>
      <point x="840" y="615"/>
      <point x="847" y="609"/>
      <point x="847" y="596" type="curve" smooth="yes"/>
      <point x="847" y="124" type="line" smooth="yes"/>
      <point x="847" y="112"/>
      <point x="840" y="105"/>
      <point x="829" y="105" type="curve" smooth="yes"/>
    </contour>
    <contour>
      <point x="628" y="166" type="curve" smooth="yes"/>
      <point x="388" y="176" type="line" smooth="yes"/>
      <point x="378" y="176"/>
      <point x="365" y="185"/>
      <point x="365" y="195" type="curve" smooth="yes"/>
      <point x="365" y="245" type="line" smooth="yes"/>
      <point x="365" y="254"/>
      <point x="371" y="263"/>
      <point x="382" y="262" type="curve" smooth="yes"/>
      <point x="468" y="256" type="line" smooth="yes"/>
      <point x="468" y="267" type="line"/>
      <point x="368" y="274" type="line" smooth="yes"/>
      <point x="354" y="275"/>
      <point x="343" y="280"/>
      <point x="343" y="294" type="curve" smooth="yes"/>
      <point x="343" y="340" type="line" smooth="yes"/>
      <point x="343" y="353"/>
      <point x="351" y="361"/>
      <point x="362" y="360" type="curve" smooth="yes"/>
      <point x="449" y="354" type="line" smooth="yes"/>
      <point x="449" y="364" type="line"/>
      <point x="344" y="372" type="line" smooth="yes"/>
      <point x="329" y="373"/>
      <point x="319" y="378"/>
      <point x="319" y="392" type="curve" smooth="yes"/>
      <point x="319" y="436" type="line" smooth="yes"/>
      <point x="319" y="447"/>
      <point x="326" y="452"/>
      <point x="338" y="452" type="curve" smooth="yes"/>
      <point x="432" y="452" type="line" smooth="yes"/>
      <point x="432" y="463" type="line"/>
      <point x="156" y="463" type="line" smooth="yes"/>
      <point x="141" y="463"/>
      <point x="130" y="469"/>
      <point x="130" y="483" type="curve" smooth="yes"/>
      <point x="130" y="533" type="line" smooth="yes"/>
      <point x="130" y="548"/>
      <point x="142" y="554"/>
      <point x="153" y="555" type="curve" smooth="yes"/>
      <point x="454" y="576" type="line" smooth="yes"/>
      <point x="473" y="577"/>
      <point x="495" y="577"/>
      <point x="509" y="575" type="curve" smooth="yes"/>
      <point x="705" y="537" type="line"/>
      <point x="705" y="195" type="line"/>
      <point x="670" y="176" type="line" smooth="yes"/>
      <point x="661" y="171"/>
      <point x="645" y="166"/>
    </contour>
  </outline>
</glyph>
<glyph name="uni261B" format="1">
  <advance width="1000"/>
  <unicode hex="261B"/>
  <outline>
    <contour>
      <point x="266" y="105" type="curve"/>
      <point x="171" y="105" type="line" smooth="yes"/>
      <point x="160" y="105"/>
      <point x="153" y="112"/>
      <point x="153" y="124" type="curve" smooth="yes"/>
      <point x="153" y="596" type="line" smooth="yes"/>
      <point x="153" y="609"/>
      <point x="160" y="615"/>
      <point x="171" y="615" type="curve"/>
      <point x="266" y="615" type="line"/>
      <point x="277" y="615"/>
      <point x="284" y="609"/>
      <point x="284" y="596" type="curve" smooth="yes"/>
      <point x="284" y="124" type="line" smooth="yes"/>
      <point x="284" y="112"/>
      <point x="277" y="105"/>
    </contour>
    <contour>
      <point x="372" y="166" type="line" smooth="yes"/>
      <point x="355" y="166"/>
      <point x="339" y="171"/>
      <point x="330" y="176" type="curve" smooth="yes"/>
      <point x="295" y="195" type="line"/>
      <point x="295" y="537" type="line"/>
      <point x="491" y="575" type="line" smooth="yes"/>
      <point x="505" y="577"/>
      <point x="527" y="577"/>
      <point x="546" y="576" type="curve" smooth="yes"/>
      <point x="847" y="555" type="line" smooth="yes"/>
      <point x="857" y="554"/>
      <point x="870" y="548"/>
      <point x="870" y="533" type="curve" smooth="yes"/>
      <point x="870" y="483" type="line" smooth="yes"/>
      <point x="870" y="469"/>
      <point x="859" y="463"/>
      <point x="844" y="463" type="curve" smooth="yes"/>
      <point x="568" y="463" type="line"/>
      <point x="568" y="452" type="line" smooth="yes"/>
      <point x="662" y="452" type="line" smooth="yes"/>
      <point x="674" y="452"/>
      <point x="681" y="447"/>
      <point x="681" y="436" type="curve" smooth="yes"/>
      <point x="681" y="392" type="line" smooth="yes"/>
      <point x="681" y="378"/>
      <point x="671" y="373"/>
      <point x="656" y="372" type="curve" smooth="yes"/>
      <point x="551" y="364" type="line"/>
      <point x="551" y="354" type="line" smooth="yes"/>
      <point x="638" y="360" type="line" smooth="yes"/>
      <point x="649" y="361"/>
      <point x="657" y="353"/>
      <point x="657" y="340" type="curve" smooth="yes"/>
      <point x="657" y="294" type="line" smooth="yes"/>
      <point x="657" y="280"/>
      <point x="646" y="275"/>
      <point x="632" y="274" type="curve" smooth="yes"/>
      <point x="532" y="267" type="line"/>
      <point x="532" y="256" type="line" smooth="yes"/>
      <point x="618" y="262" type="line" smooth="yes"/>
      <point x="629" y="263"/>
      <point x="635" y="254"/>
      <point x="635" y="245" type="curve" smooth="yes"/>
      <point x="635" y="195" type="line" smooth="yes"/>
      <point x="635" y="185"/>
      <point x="622" y="176"/>
      <point x="612" y="176" type="curve" smooth="yes"/>
    </contour>
  </outline>
</glyph>
<glyph name="uni261E" format="1">
  <advance width="1000"/>
  <unicode hex="261E"/>
  <outline>
    <contour>
      <point x="256" y="115" type="curve"/>
      <point x="256" y="115"/>
      <point x="223" y="115"/>
      <point x="223" y="115" type="curve" smooth="yes"/>
      <point x="213" y="115"/>
      <point x="205" y="123"/>
      <point x="205" y="134" type="curve" smooth="yes"/>
      <point x="205" y="586" type="line" smooth="yes"/>
      <point x="205" y="598"/>
      <point x="213" y="605"/>
      <point x="223" y="605" type="curve"/>
      <point x="223" y="605"/>
      <point x="256" y="605"/>
      <point x="256" y="605" type="curve"/>
      <point x="266" y="605"/>
      <point x="274" y="598"/>
      <point x="274" y="586" type="curve" smooth="yes"/>
      <point x="274" y="134" type="line" smooth="yes"/>
      <point x="274" y="123"/>
      <point x="266" y="115"/>
    </contour>
    <contour>
      <point x="624" y="263" type="line" smooth="yes"/>
      <point x="654" y="264"/>
      <point x="667" y="278"/>
      <point x="667" y="304" type="curve" smooth="yes"/>
      <point x="667" y="343" type="line"/>
      <point x="667" y="355"/>
      <point x="662" y="364"/>
      <point x="653" y="369" type="curve"/>
      <point x="629" y="360" type="line"/>
      <point x="641" y="360"/>
      <point x="646" y="353"/>
      <point x="646" y="340" type="curve" smooth="yes"/>
      <point x="646" y="304" type="line" smooth="yes"/>
      <point x="646" y="291"/>
      <point x="639" y="285"/>
      <point x="624" y="284" type="curve" smooth="yes"/>
      <point x="532" y="277" type="line"/>
      <point x="532" y="256" type="line" smooth="yes"/>
    </contour>
    <contour>
      <point x="649" y="361" type="line" smooth="yes"/>
      <point x="678" y="362"/>
      <point x="692" y="376"/>
      <point x="692" y="402" type="curve" smooth="yes"/>
      <point x="692" y="438" type="line" smooth="yes"/>
      <point x="692" y="451"/>
      <point x="687" y="461"/>
      <point x="677" y="464" type="curve"/>
      <point x="655" y="452" type="line"/>
      <point x="666" y="453"/>
      <point x="671" y="447"/>
      <point x="671" y="436" type="curve" smooth="yes"/>
      <point x="671" y="402" type="line" smooth="yes"/>
      <point x="671" y="388"/>
      <point x="663" y="383"/>
      <point x="649" y="382" type="curve" smooth="yes"/>
      <point x="551" y="375" type="line"/>
      <point x="551" y="354" type="line" smooth="yes"/>
    </contour>
    <contour>
      <point x="611" y="262" type="line"/>
      <point x="621" y="262"/>
      <point x="624" y="254"/>
      <point x="624" y="245" type="curve" smooth="yes"/>
      <point x="624" y="206" type="line" smooth="yes"/>
      <point x="624" y="195"/>
      <point x="615" y="187"/>
      <point x="604" y="187" type="curve" smooth="yes"/>
      <point x="372" y="176" type="line" smooth="yes"/>
      <point x="355" y="176"/>
      <point x="339" y="182"/>
      <point x="330" y="187" type="curve" smooth="yes"/>
      <point x="295" y="206" type="line"/>
      <point x="295" y="527" type="line"/>
      <point x="491" y="565" type="line" smooth="yes"/>
      <point x="505" y="567"/>
      <point x="527" y="567"/>
      <point x="546" y="566" type="curve" smooth="yes"/>
      <point x="840" y="545" type="line" smooth="yes"/>
      <point x="850" y="544"/>
      <point x="860" y="537"/>
      <point x="860" y="523" type="curve" smooth="yes"/>
      <point x="860" y="493" type="line" smooth="yes"/>
      <point x="860" y="480"/>
      <point x="851" y="473"/>
      <point x="836" y="473" type="curve" smooth="yes"/>
      <point x="568" y="473" type="line"/>
      <point x="568" y="452" type="line" smooth="yes"/>
      <point x="568" y="452"/>
      <point x="836" y="452"/>
      <point x="836" y="452" type="curve" smooth="yes"/>
      <point x="866" y="452"/>
      <point x="881" y="467"/>
      <point x="881" y="493" type="curve" smooth="yes"/>
      <point x="881" y="523" type="line" smooth="yes"/>
      <point x="881" y="550"/>
      <point x="867" y="565"/>
      <point x="842" y="566" type="curve" smooth="yes"/>
      <point x="548" y="587" type="line" smooth="yes"/>
      <point x="527" y="588"/>
      <point x="503" y="588"/>
      <point x="487" y="585" type="curve" smooth="yes"/>
      <point x="295" y="549" type="line"/>
      <point x="295" y="588" type="line" smooth="yes"/>
      <point x="295" y="611"/>
      <point x="281" y="626"/>
      <point x="256" y="626" type="curve" smooth="yes"/>
      <point x="181" y="626" type="line" smooth="yes"/>
      <point x="156" y="626"/>
      <point x="142" y="614"/>
      <point x="142" y="586" type="curve" smooth="yes"/>
      <point x="142" y="134" type="line" smooth="yes"/>
      <point x="142" y="108"/>
      <point x="156" y="94"/>
      <point x="181" y="94" type="curve" smooth="yes"/>
      <point x="256" y="94" type="line" smooth="yes"/>
      <point x="281" y="94"/>
      <point x="295" y="109"/>
      <point x="295" y="132" type="curve" smooth="yes"/>
      <point x="295" y="182" type="line"/>
      <point x="320" y="168" type="line" smooth="yes"/>
      <point x="330" y="163"/>
      <point x="350" y="155"/>
      <point x="372" y="155" type="curve" smooth="yes"/>
      <point x="605" y="165" type="line" smooth="yes"/>
      <point x="628" y="166"/>
      <point x="645" y="183"/>
      <point x="645" y="206" type="curve" smooth="yes"/>
      <point x="645" y="246" type="line"/>
      <point x="645" y="256"/>
      <point x="642" y="269"/>
      <point x="631" y="273" type="curve"/>
    </contour>
  </outline>
</glyph>
<glyph name="uni261F" format="1">
  <advance width="1000"/>
  <unicode hex="261F"/>
  <outline>
    <contour>
      <point x="255" y="616" type="curve"/>
      <point x="255" y="616"/>
      <point x="255" y="649"/>
      <point x="255" y="649" type="curve" smooth="yes"/>
      <point x="255" y="659"/>
      <point x="263" y="667"/>
      <point x="274" y="667" type="curve" smooth="yes"/>
      <point x="726" y="667" type="line" smooth="yes"/>
      <point x="738" y="667"/>
      <point x="745" y="659"/>
      <point x="745" y="649" type="curve"/>
      <point x="745" y="649"/>
      <point x="745" y="616"/>
      <point x="745" y="616" type="curve"/>
      <point x="745" y="606"/>
      <point x="738" y="598"/>
      <point x="726" y="598" type="curve" smooth="yes"/>
      <point x="274" y="598" type="line" smooth="yes"/>
      <point x="263" y="598"/>
      <point x="255" y="606"/>
    </contour>
    <contour>
      <point x="403" y="248" type="line" smooth="yes"/>
      <point x="404" y="218"/>
      <point x="418" y="205"/>
      <point x="444" y="205" type="curve" smooth="yes"/>
      <point x="483" y="205" type="line"/>
      <point x="495" y="205"/>
      <point x="504" y="210"/>
      <point x="509" y="219" type="curve"/>
      <point x="500" y="243" type="line"/>
      <point x="500" y="231"/>
      <point x="493" y="226"/>
      <point x="480" y="226" type="curve" smooth="yes"/>
      <point x="444" y="226" type="line" smooth="yes"/>
      <point x="431" y="226"/>
      <point x="425" y="233"/>
      <point x="424" y="248" type="curve" smooth="yes"/>
      <point x="417" y="340" type="line"/>
      <point x="396" y="340" type="line" smooth="yes"/>
    </contour>
    <contour>
      <point x="501" y="223" type="line" smooth="yes"/>
      <point x="502" y="194"/>
      <point x="516" y="180"/>
      <point x="542" y="180" type="curve" smooth="yes"/>
      <point x="578" y="180" type="line" smooth="yes"/>
      <point x="591" y="180"/>
      <point x="601" y="185"/>
      <point x="604" y="195" type="curve"/>
      <point x="592" y="217" type="line"/>
      <point x="593" y="206"/>
      <point x="587" y="201"/>
      <point x="576" y="201" type="curve" smooth="yes"/>
      <point x="542" y="201" type="line" smooth="yes"/>
      <point x="528" y="201"/>
      <point x="523" y="209"/>
      <point x="522" y="223" type="curve" smooth="yes"/>
      <point x="515" y="321" type="line"/>
      <point x="494" y="321" type="line" smooth="yes"/>
    </contour>
    <contour>
      <point x="402" y="261" type="line"/>
      <point x="402" y="251"/>
      <point x="394" y="248"/>
      <point x="384" y="248" type="curve" smooth="yes"/>
      <point x="346" y="248" type="line" smooth="yes"/>
      <point x="335" y="248"/>
      <point x="327" y="257"/>
      <point x="327" y="268" type="curve" smooth="yes"/>
      <point x="316" y="500" type="line" smooth="yes"/>
      <point x="316" y="517"/>
      <point x="321" y="533"/>
      <point x="327" y="542" type="curve" smooth="yes"/>
      <point x="346" y="577" type="line"/>
      <point x="667" y="577" type="line"/>
      <point x="705" y="381" type="line" smooth="yes"/>
      <point x="707" y="367"/>
      <point x="707" y="345"/>
      <point x="706" y="326" type="curve" smooth="yes"/>
      <point x="685" y="32" type="line" smooth="yes"/>
      <point x="684" y="22"/>
      <point x="677" y="12"/>
      <point x="663" y="12" type="curve" smooth="yes"/>
      <point x="633" y="12" type="line" smooth="yes"/>
      <point x="620" y="12"/>
      <point x="613" y="21"/>
      <point x="613" y="36" type="curve" smooth="yes"/>
      <point x="613" y="304" type="line"/>
      <point x="592" y="304" type="line" smooth="yes"/>
      <point x="592" y="304"/>
      <point x="592" y="36"/>
      <point x="592" y="36" type="curve" smooth="yes"/>
      <point x="592" y="6"/>
      <point x="607" y="-9"/>
      <point x="633" y="-9" type="curve" smooth="yes"/>
      <point x="663" y="-9" type="line" smooth="yes"/>
      <point x="690" y="-9"/>
      <point x="705" y="5"/>
      <point x="706" y="30" type="curve" smooth="yes"/>
      <point x="727" y="324" type="line" smooth="yes"/>
      <point x="728" y="345"/>
      <point x="728" y="369"/>
      <point x="725" y="385" type="curve" smooth="yes"/>
      <point x="689" y="577" type="line"/>
      <point x="728" y="577" type="line" smooth="yes"/>
      <point x="751" y="577"/>
      <point x="766" y="591"/>
      <point x="766" y="616" type="curve" smooth="yes"/>
      <point x="766" y="691" type="line" smooth="yes"/>
      <point x="766" y="716"/>
      <point x="754" y="730"/>
      <point x="726" y="730" type="curve" smooth="yes"/>
      <point x="274" y="730" type="line" smooth="yes"/>
      <point x="248" y="730"/>
      <point x="234" y="716"/>
      <point x="234" y="691" type="curve" smooth="yes"/>
      <point x="234" y="616" type="line" smooth="yes"/>
      <point x="234" y="591"/>
      <point x="249" y="577"/>
      <point x="272" y="577" type="curve" smooth="yes"/>
      <point x="321" y="577" type="line"/>
      <point x="308" y="552" type="line" smooth="yes"/>
      <point x="303" y="542"/>
      <point x="295" y="522"/>
      <point x="295" y="500" type="curve" smooth="yes"/>
      <point x="305" y="267" type="line" smooth="yes"/>
      <point x="306" y="244"/>
      <point x="323" y="227"/>
      <point x="346" y="227" type="curve" smooth="yes"/>
      <point x="386" y="227" type="line"/>
      <point x="396" y="227"/>
      <point x="409" y="230"/>
      <point x="413" y="241" type="curve"/>
    </contour>
  </outline>
</glyph>
<glyph name="uni2B1B" format="1">
  <advance width="1280.0"/>
  <unicode hex="2B1B"/>
  <outline>
    <contour>
      <point x="1144" y="-180" type="curve" smooth="yes"/>
      <point x="136" y="-180" type="line" smooth="yes"/>
      <point x="111" y="-180"/>
      <point x="100" y="-169"/>
      <point x="100" y="-144" type="curve" smooth="yes"/>
      <point x="100" y="864" type="line" smooth="yes"/>
      <point x="100" y="889"/>
      <point x="111" y="900"/>
      <point x="136" y="900" type="curve" smooth="yes"/>
      <point x="1144" y="900" type="line" smooth="yes"/>
      <point x="1169" y="900"/>
      <point x="1180" y="889"/>
      <point x="1180" y="864" type="curve" smooth="yes"/>
      <point x="1180" y="-144" type="line" smooth="yes"/>
      <point x="1180" y="-169"/>
      <point x="1169" y="-180"/>
    </contour>
  </outline>
</glyph>
<glyph name="uni2B24" format="1">
  <advance width="1280"/>
  <unicode hex="2B24"/>
  <outline>
    <contour>
      <point x="640" y="920" type="curve"/>
      <point x="975" y="920"/>
      <point x="1210" y="685"/>
      <point x="1210" y="350" type="curve" smooth="yes"/>
      <point x="1210" y="15"/>
      <point x="975" y="-220"/>
      <point x="640" y="-220" type="curve"/>
      <point x="305" y="-220"/>
      <point x="70" y="15"/>
      <point x="70" y="350" type="curve" smooth="yes"/>
      <point x="70" y="685"/>
      <point x="305" y="920"/>
    </contour>
  </outline>
</glyph>
<glyph name="Aogonek.salt" format="1">
  <advance width="736"/>
  <unicode hex="E109"/>
  <outline>
    <contour>
      <point x="283" y="497" type="line" smooth="yes"/>
      <point x="283" y="524"/>
      <point x="295" y="544"/>
      <point x="366" y="544" type="curve" smooth="yes"/>
      <point x="436" y="544"/>
      <point x="448" y="524"/>
      <point x="448" y="497" type="curve"/>
      <point x="448" y="368" type="line"/>
      <point x="283" y="368" type="line"/>
    </contour>
    <contour>
      <point x="672" y="-152" type="curve" smooth="yes"/>
      <point x="672" y="-80" type="line" smooth="yes"/>
      <point x="672" y="-54"/>
      <point x="664" y="-46"/>
      <point x="636" y="-46" type="curve" smooth="yes"/>
      <point x="595" y="-46" type="line"/>
      <point x="602" y="0" type="line"/>
      <point x="636" y="0" type="line" smooth="yes"/>
      <point x="661" y="0"/>
      <point x="672" y="11"/>
      <point x="672" y="36" type="curve" smooth="yes"/>
      <point x="672" y="531" type="line" smooth="yes"/>
      <point x="672" y="652"/>
      <point x="616" y="735"/>
      <point x="367" y="735" type="curve" smooth="yes"/>
      <point x="119" y="735"/>
      <point x="64" y="652"/>
      <point x="64" y="531" type="curve" smooth="yes"/>
      <point x="64" y="36" type="line"/>
      <point x="64" y="11"/>
      <point x="75" y="0"/>
      <point x="100" y="0" type="curve" smooth="yes"/>
      <point x="247" y="0" type="line" smooth="yes"/>
      <point x="272" y="0"/>
      <point x="283" y="11"/>
      <point x="283" y="36" type="curve" smooth="yes"/>
      <point x="283" y="185" type="line"/>
      <point x="448" y="185" type="line"/>
      <point x="448" y="67" type="line"/>
      <point x="427" y="-51" type="line" smooth="yes"/>
      <point x="413" y="-144"/>
      <point x="442" y="-186"/>
      <point x="528" y="-186" type="curve" smooth="yes"/>
      <point x="639" y="-186" type="line" smooth="yes"/>
      <point x="665" y="-186"/>
      <point x="672" y="-178"/>
    </contour>
  </outline>
</glyph>
<glyph name="Eogonek.salt" format="1">
  <advance width="643"/>
  <unicode hex="E112"/>
  <outline>
    <contour>
      <point x="594" y="-152" type="curve" smooth="yes"/>
      <point x="594" y="-80" type="line" smooth="yes"/>
      <point x="594" y="-54"/>
      <point x="586" y="-46"/>
      <point x="558" y="-46" type="curve" smooth="yes"/>
      <point x="517" y="-46" type="line"/>
      <point x="524" y="0" type="line"/>
      <point x="558" y="0" type="line" smooth="yes"/>
      <point x="583" y="0"/>
      <point x="594" y="11"/>
      <point x="594" y="36" type="curve" smooth="yes"/>
      <point x="594" y="153" type="line" smooth="yes"/>
      <point x="594" y="178"/>
      <point x="583" y="189"/>
      <point x="558" y="189" type="curve" smooth="yes"/>
      <point x="337" y="189" type="line" smooth="yes"/>
      <point x="285" y="189"/>
      <point x="276" y="209"/>
      <point x="276" y="237" type="curve" smooth="yes"/>
      <point x="276" y="275" type="line"/>
      <point x="478" y="275" type="line" smooth="yes"/>
      <point x="503" y="275"/>
      <point x="514" y="286"/>
      <point x="514" y="311" type="curve" smooth="yes"/>
      <point x="514" y="418" type="line" smooth="yes"/>
      <point x="514" y="444"/>
      <point x="503" y="454"/>
      <point x="478" y="454" type="curve" smooth="yes"/>
      <point x="276" y="454" type="line"/>
      <point x="276" y="481" type="line" smooth="yes"/>
      <point x="276" y="507"/>
      <point x="285" y="531"/>
      <point x="337" y="531" type="curve" smooth="yes"/>
      <point x="558" y="531" type="line" smooth="yes"/>
      <point x="583" y="531"/>
      <point x="594" y="542"/>
      <point x="594" y="567" type="curve" smooth="yes"/>
      <point x="594" y="684" type="line" smooth="yes"/>
      <point x="594" y="709"/>
      <point x="583" y="720"/>
      <point x="558" y="720" type="curve" smooth="yes"/>
      <point x="304" y="720" type="line" smooth="yes"/>
      <point x="115" y="720"/>
      <point x="58" y="637"/>
      <point x="58" y="515" type="curve" smooth="yes"/>
      <point x="58" y="204" type="line" smooth="yes"/>
      <point x="58" y="83"/>
      <point x="115" y="0"/>
      <point x="304" y="0" type="curve" smooth="yes"/>
      <point x="358" y="0" type="line"/>
      <point x="349" y="-51" type="line" smooth="yes"/>
      <point x="335" y="-144"/>
      <point x="364" y="-186"/>
      <point x="450" y="-186" type="curve" smooth="yes"/>
      <point x="561" y="-186" type="line" smooth="yes"/>
      <point x="587" y="-186"/>
      <point x="594" y="-178"/>
    </contour>
  </outline>
</glyph>
<glyph name="I.salt" format="1">
  <advance width="371.0"/>
  <unicode hex="E114"/>
  <outline>
    <contour>
      <point x="265.0" y="0" type="line" smooth="yes"/>
      <point x="290.0" y="0"/>
      <point x="301.0" y="11"/>
      <point x="301.0" y="36" type="curve" smooth="yes"/>
      <point x="301.0" y="684" type="line" smooth="yes"/>
      <point x="301.0" y="709"/>
      <point x="290.0" y="720"/>
      <point x="265.0" y="720" type="curve" smooth="yes"/>
      <point x="106.0" y="720" type="line" smooth="yes"/>
      <point x="81.0" y="720"/>
      <point x="70.0" y="709"/>
      <point x="70.0" y="684" type="curve"/>
      <point x="70.0" y="36" type="line"/>
      <point x="70.0" y="11"/>
      <point x="81.0" y="0"/>
      <point x="106.0" y="0" type="curve" smooth="yes"/>
    </contour>
    <contour>
      <point x="185.0" y="747" type="move" name="top"/>
    </contour>
    <contour>
      <point x="185.0" y="0" type="move" name="bottom"/>
    </contour>
  </outline>
</glyph>
<glyph name="Igrave.salt" format="1">
  <advance width="371.0"/>
  <unicode hex="E115"/>
  <outline>
    <contour>
      <point x="345" y="755" type="line" smooth="yes"/>
      <point x="368" y="752"/>
      <point x="379" y="765"/>
      <point x="379" y="788" type="curve" smooth="yes"/>
      <point x="379" y="884" type="line" smooth="yes"/>
      <point x="379" y="909"/>
      <point x="368" y="917"/>
      <point x="343" y="920" type="curve" smooth="yes"/>
      <point x="24" y="959" type="line" smooth="yes"/>
      <point x="1" y="962"/>
      <point x="-10" y="949"/>
      <point x="-10" y="926" type="curve" smooth="yes"/>
      <point x="-10" y="830" type="line" smooth="yes"/>
      <point x="-10" y="805"/>
      <point x="1" y="797"/>
      <point x="26" y="794" type="curve" smooth="yes"/>
    </contour>
    <contour>
      <point x="265" y="0" type="line" smooth="yes"/>
      <point x="290" y="0"/>
      <point x="301" y="11"/>
      <point x="301" y="36" type="curve" smooth="yes"/>
      <point x="301" y="684" type="line" smooth="yes"/>
      <point x="301" y="709"/>
      <point x="290" y="720"/>
      <point x="265" y="720" type="curve" smooth="yes"/>
      <point x="106" y="720" type="line" smooth="yes"/>
      <point x="81" y="720"/>
      <point x="70" y="709"/>
      <point x="70" y="684" type="curve"/>
      <point x="70" y="36" type="line"/>
      <point x="70" y="11"/>
      <point x="81" y="0"/>
      <point x="106" y="0" type="curve" smooth="yes"/>
    </contour>
  </outline>
</glyph>
<glyph name="Iacute.salt" format="1">
  <advance width="371.0"/>
  <unicode hex="E116"/>
  <outline>
    <contour>
      <point x="345" y="796" type="line" smooth="yes"/>
      <point x="370" y="799"/>
      <point x="381" y="807"/>
      <point x="381" y="832" type="curve" smooth="yes"/>
      <point x="381" y="928" type="line" smooth="yes"/>
      <point x="381" y="951"/>
      <point x="370" y="964"/>
      <point x="347" y="961" type="curve"/>
      <point x="28" y="918" type="line" smooth="yes"/>
      <point x="3" y="915"/>
      <point x="-8" y="907"/>
      <point x="-8" y="882" type="curve" smooth="yes"/>
      <point x="-8" y="786" type="line" smooth="yes"/>
      <point x="-8" y="763"/>
      <point x="3" y="750"/>
      <point x="26" y="753" type="curve" smooth="yes"/>
    </contour>
    <contour>
      <point x="265" y="0" type="line" smooth="yes"/>
      <point x="290" y="0"/>
      <point x="301" y="11"/>
      <point x="301" y="36" type="curve" smooth="yes"/>
      <point x="301" y="684" type="line" smooth="yes"/>
      <point x="301" y="709"/>
      <point x="290" y="720"/>
      <point x="265" y="720" type="curve" smooth="yes"/>
      <point x="106" y="720" type="line" smooth="yes"/>
      <point x="81" y="720"/>
      <point x="70" y="709"/>
      <point x="70" y="684" type="curve"/>
      <point x="70" y="36" type="line"/>
      <point x="70" y="11"/>
      <point x="81" y="0"/>
      <point x="106" y="0" type="curve" smooth="yes"/>
    </contour>
  </outline>
</glyph>
<glyph name="Iogonek.salt" format="1">
  <advance width="371.0"/>
  <unicode hex="E11C"/>
  <outline>
    <contour>
      <point x="297" y="-152" type="curve" smooth="yes"/>
      <point x="297" y="-80" type="line" smooth="yes"/>
      <point x="297" y="-54"/>
      <point x="289" y="-46"/>
      <point x="261" y="-46" type="curve" smooth="yes"/>
      <point x="220" y="-46" type="line"/>
      <point x="227" y="0" type="line"/>
      <point x="265" y="0" type="line" smooth="yes"/>
      <point x="290" y="0"/>
      <point x="301" y="11"/>
      <point x="301" y="36" type="curve" smooth="yes"/>
      <point x="301" y="684" type="line" smooth="yes"/>
      <point x="301" y="709"/>
      <point x="290" y="720"/>
      <point x="265" y="720" type="curve" smooth="yes"/>
      <point x="106" y="720" type="line" smooth="yes"/>
      <point x="81" y="720"/>
      <point x="70" y="709"/>
      <point x="70" y="684" type="curve"/>
      <point x="70" y="50" type="line"/>
      <point x="52" y="-51" type="line" smooth="yes"/>
      <point x="38" y="-144"/>
      <point x="67" y="-186"/>
      <point x="153" y="-186" type="curve" smooth="yes"/>
      <point x="264" y="-186" type="line" smooth="yes"/>
      <point x="290" y="-186"/>
      <point x="297" y="-178"/>
    </contour>
  </outline>
</glyph>
<glyph name="M.salt" format="1">
  <advance width="1070"/>
  <unicode hex="E124"/>
  <outline>
    <contour>
      <point x="64" y="531" type="curve"/>
      <point x="64" y="36" type="line" smooth="yes"/>
      <point x="64" y="11"/>
      <point x="75" y="0"/>
      <point x="100" y="0" type="curve" smooth="yes"/>
      <point x="252" y="0" type="line" smooth="yes"/>
      <point x="278" y="0"/>
      <point x="288" y="11"/>
      <point x="288" y="36" type="curve" smooth="yes"/>
      <point x="288" y="492" type="line" smooth="yes"/>
      <point x="288" y="519"/>
      <point x="298" y="539"/>
      <point x="356" y="539" type="curve" smooth="yes"/>
      <point x="413" y="539"/>
      <point x="423" y="519"/>
      <point x="423" y="492" type="curve" smooth="yes"/>
      <point x="423" y="36" type="line" smooth="yes"/>
      <point x="423" y="11"/>
      <point x="434" y="0"/>
      <point x="459" y="0" type="curve" smooth="yes"/>
      <point x="556" y="0" type="line" smooth="yes"/>
      <point x="581" y="0"/>
      <point x="592" y="11"/>
      <point x="592" y="36" type="curve" smooth="yes"/>
      <point x="592" y="531" type="line" smooth="yes"/>
      <point x="592" y="653"/>
      <point x="540" y="735"/>
      <point x="328" y="735" type="curve" smooth="yes"/>
      <point x="116" y="735"/>
      <point x="64" y="653"/>
    </contour>
    <contour>
      <point x="1006" y="531" type="line"/>
      <point x="1006" y="653"/>
      <point x="954" y="735"/>
      <point x="742" y="735" type="curve" smooth="yes"/>
      <point x="530" y="735"/>
      <point x="478" y="653"/>
      <point x="478" y="531" type="curve" smooth="yes"/>
      <point x="478" y="36" type="line" smooth="yes"/>
      <point x="478" y="11"/>
      <point x="489" y="0"/>
      <point x="514" y="0" type="curve" smooth="yes"/>
      <point x="611" y="0" type="line" smooth="yes"/>
      <point x="636" y="0"/>
      <point x="647" y="11"/>
      <point x="647" y="36" type="curve" smooth="yes"/>
      <point x="647" y="492" type="line" smooth="yes"/>
      <point x="647" y="519"/>
      <point x="657" y="539"/>
      <point x="714" y="539" type="curve" smooth="yes"/>
      <point x="772" y="539"/>
      <point x="782" y="519"/>
      <point x="782" y="492" type="curve" smooth="yes"/>
      <point x="782" y="36" type="line" smooth="yes"/>
      <point x="782" y="11"/>
      <point x="792" y="0"/>
      <point x="818" y="0" type="curve" smooth="yes"/>
      <point x="970" y="0" type="line" smooth="yes"/>
      <point x="995" y="0"/>
      <point x="1006" y="11"/>
      <point x="1006" y="36" type="curve" smooth="yes"/>
    </contour>
    <contour>
      <point x="535" y="747" type="move" name="top"/>
    </contour>
    <contour>
      <point x="535" y="0" type="move" name="bottom"/>
    </contour>
  </outline>
</glyph>
<glyph name="W.salt" format="1">
  <advance width="1070.0"/>
  <unicode hex="E12A"/>
  <outline>
    <contour>
      <point x="1006" y="189" type="curve"/>
      <point x="1006" y="684" type="line" smooth="yes"/>
      <point x="1006" y="709"/>
      <point x="995" y="720"/>
      <point x="970" y="720" type="curve" smooth="yes"/>
      <point x="818" y="720" type="line" smooth="yes"/>
      <point x="792" y="720"/>
      <point x="782" y="709"/>
      <point x="782" y="684" type="curve" smooth="yes"/>
      <point x="782" y="228" type="line" smooth="yes"/>
      <point x="782" y="201"/>
      <point x="772" y="181"/>
      <point x="714" y="181" type="curve" smooth="yes"/>
      <point x="657" y="181"/>
      <point x="647" y="201"/>
      <point x="647" y="228" type="curve" smooth="yes"/>
      <point x="647" y="684" type="line" smooth="yes"/>
      <point x="647" y="709"/>
      <point x="636" y="720"/>
      <point x="611" y="720" type="curve"/>
      <point x="514" y="720" type="line" smooth="yes"/>
      <point x="478" y="684" type="line"/>
      <point x="478" y="189" type="line" smooth="yes"/>
      <point x="478" y="67"/>
      <point x="530" y="-15"/>
      <point x="742" y="-15" type="curve" smooth="yes"/>
      <point x="954" y="-15"/>
      <point x="1006" y="67"/>
    </contour>
    <contour>
      <point x="64" y="189" type="line"/>
      <point x="64" y="67"/>
      <point x="116" y="-15"/>
      <point x="328" y="-15" type="curve" smooth="yes"/>
      <point x="540" y="-15"/>
      <point x="592" y="67"/>
      <point x="592" y="189" type="curve"/>
      <point x="592" y="684" type="line" smooth="yes"/>
      <point x="556" y="720" type="line"/>
      <point x="459" y="720" type="line" smooth="yes"/>
      <point x="434" y="720"/>
      <point x="423" y="709"/>
      <point x="423" y="684" type="curve" smooth="yes"/>
      <point x="423" y="228" type="line" smooth="yes"/>
      <point x="423" y="201"/>
      <point x="413" y="181"/>
      <point x="356" y="181" type="curve" smooth="yes"/>
      <point x="298" y="181"/>
      <point x="288" y="201"/>
      <point x="288" y="228" type="curve" smooth="yes"/>
      <point x="288" y="684" type="line" smooth="yes"/>
      <point x="288" y="709"/>
      <point x="278" y="720"/>
      <point x="252" y="720" type="curve" smooth="yes"/>
      <point x="100" y="720" type="line" smooth="yes"/>
      <point x="75" y="720"/>
      <point x="64" y="709"/>
      <point x="64" y="684" type="curve" smooth="yes"/>
    </contour>
    <contour>
      <point x="535" y="747" type="move" name="top"/>
    </contour>
    <contour>
      <point x="535" y="0" type="move" name="bottom"/>
    </contour>
  </outline>
</glyph>
<glyph name="AE.salt" format="1">
  <advance width="1013"/>
  <unicode hex="E135"/>
  <outline>
    <contour>
      <point x="247.0" y="0.0" type="line" smooth="yes"/>
      <point x="272.0" y="0.0"/>
      <point x="283.0" y="11.0"/>
      <point x="283.0" y="36.0" type="curve" smooth="yes"/>
      <point x="283.0" y="489.0" type="line" smooth="yes"/>
      <point x="283.0" y="516.0"/>
      <point x="295.0" y="536.0"/>
      <point x="366.0" y="536.0" type="curve"/>
      <point x="448" y="536" type="line"/>
      <point x="448.0" y="36.0" type="line" smooth="yes"/>
      <point x="448" y="11"/>
      <point x="459.0" y="0.0"/>
      <point x="484.0" y="0.0" type="curve" smooth="yes"/>
      <point x="928.0" y="0.0" type="line" smooth="yes"/>
      <point x="953.0" y="0.0"/>
      <point x="964.0" y="11.0"/>
      <point x="964.0" y="36.0" type="curve" smooth="yes"/>
      <point x="964.0" y="153.0" type="line" smooth="yes"/>
      <point x="964.0" y="178.0"/>
      <point x="953.0" y="189.0"/>
      <point x="928.0" y="189.0" type="curve" smooth="yes"/>
      <point x="675.0" y="189.0" type="line"/>
      <point x="675.0" y="275.0" type="line"/>
      <point x="847.0" y="275.0" type="line" smooth="yes"/>
      <point x="872.0" y="275.0"/>
      <point x="883.0" y="286.0"/>
      <point x="883.0" y="311.0" type="curve" smooth="yes"/>
      <point x="883.0" y="418.0" type="line" smooth="yes"/>
      <point x="883.0" y="444.0"/>
      <point x="872.0" y="454.0"/>
      <point x="847.0" y="454.0" type="curve" smooth="yes"/>
      <point x="675.0" y="454.0" type="line"/>
      <point x="675.0" y="531.0" type="line"/>
      <point x="928.0" y="531.0" type="line" smooth="yes"/>
      <point x="953.0" y="531.0"/>
      <point x="964.0" y="542.0"/>
      <point x="964.0" y="567.0" type="curve" smooth="yes"/>
      <point x="964.0" y="684.0" type="line" smooth="yes"/>
      <point x="964.0" y="709.0"/>
      <point x="953.0" y="720.0"/>
      <point x="928.0" y="720.0" type="curve" smooth="yes"/>
      <point x="367.0" y="720.0" type="line" smooth="yes"/>
      <point x="119.0" y="720.0"/>
      <point x="64.0" y="637.0"/>
      <point x="64.0" y="516.0" type="curve" smooth="yes"/>
      <point x="64.0" y="36.0" type="line" smooth="yes"/>
      <point x="64.0" y="11.0"/>
      <point x="75.0" y="0.0"/>
      <point x="100.0" y="0.0" type="curve" smooth="yes"/>
    </contour>
    <contour>
      <point x="466.0" y="185.0" type="line"/>
      <point x="466.0" y="368.0" type="line"/>
      <point x="252.0" y="368.0" type="line"/>
      <point x="252.0" y="185.0" type="line"/>
    </contour>
  </outline>
</glyph>
<glyph name="quoteleft.salt" format="1">
  <advance width="307.119931271"/>
  <unicode hex="E138"/>
  <outline>
    <contour>
      <point x="161" y="720" type="line" smooth="yes"/>
      <point x="96" y="720"/>
      <point x="55" y="685"/>
      <point x="55" y="611" type="curve" smooth="yes"/>
      <point x="55" y="476" type="line" smooth="yes"/>
      <point x="55" y="458"/>
      <point x="62" y="450"/>
      <point x="80" y="450" type="curve" smooth="yes"/>
      <point x="226" y="450" type="line" smooth="yes"/>
      <point x="244" y="450"/>
      <point x="252" y="458"/>
      <point x="252" y="476" type="curve"/>
      <point x="252" y="583" type="line"/>
      <point x="252" y="601"/>
      <point x="244" y="608"/>
      <point x="226" y="608" type="curve" smooth="yes"/>
      <point x="147" y="608" type="line"/>
      <point x="147" y="619" type="line" smooth="yes"/>
      <point x="147" y="632"/>
      <point x="154" y="639"/>
      <point x="167" y="639" type="curve" smooth="yes"/>
      <point x="216" y="639" type="line" smooth="yes"/>
      <point x="234" y="639"/>
      <point x="242" y="647"/>
      <point x="242" y="665" type="curve"/>
      <point x="242" y="694" type="line"/>
      <point x="242" y="713"/>
      <point x="234" y="720"/>
      <point x="216" y="720" type="curve" smooth="yes"/>
    </contour>
  </outline>
</glyph>
<glyph name="caron.2" format="1">
  <advance width="500"/>
  <unicode hex="E13B"/>
  <outline>
    <contour>
      <point x="279" y="452" type="line" smooth="yes"/>
      <point x="304" y="452"/>
      <point x="309" y="464"/>
      <point x="315" y="488" type="curve"/>
      <point x="362" y="684" type="line" smooth="yes"/>
      <point x="368" y="708"/>
      <point x="351" y="720"/>
      <point x="326" y="720" type="curve" smooth="yes"/>
      <point x="188" y="720" type="line" smooth="yes"/>
      <point x="163" y="720"/>
      <point x="156" y="709"/>
      <point x="152" y="684" type="curve" smooth="yes"/>
      <point x="119" y="488" type="line" smooth="yes"/>
      <point x="115" y="463"/>
      <point x="130" y="452"/>
      <point x="155" y="452" type="curve" smooth="yes"/>
    </contour>
  </outline>
</glyph>
<glyph name="indexup" format="1">
  <advance width="1000"/>
  <unicode hex="E13C"/>
  <outline>
    <contour>
      <point x="755" y="115" type="curve"/>
      <point x="755" y="20" type="line" smooth="yes"/>
      <point x="755" y="9"/>
      <point x="748" y="2"/>
      <point x="736" y="2" type="curve" smooth="yes"/>
      <point x="264" y="2" type="line" smooth="yes"/>
      <point x="251" y="2"/>
      <point x="245" y="9"/>
      <point x="245" y="20" type="curve"/>
      <point x="245" y="115" type="line"/>
      <point x="245" y="126"/>
      <point x="251" y="133"/>
      <point x="264" y="133" type="curve" smooth="yes"/>
      <point x="736" y="133" type="line" smooth="yes"/>
      <point x="748" y="133"/>
      <point x="755" y="126"/>
    </contour>
    <contour>
      <point x="694" y="221" type="line" smooth="yes"/>
      <point x="694" y="204"/>
      <point x="689" y="188"/>
      <point x="684" y="179" type="curve" smooth="yes"/>
      <point x="665" y="144" type="line"/>
      <point x="323" y="144" type="line"/>
      <point x="285" y="340" type="line" smooth="yes"/>
      <point x="283" y="354"/>
      <point x="283" y="376"/>
      <point x="284" y="395" type="curve" smooth="yes"/>
      <point x="305" y="696" type="line" smooth="yes"/>
      <point x="306" y="706"/>
      <point x="312" y="719"/>
      <point x="327" y="719" type="curve" smooth="yes"/>
      <point x="377" y="719" type="line" smooth="yes"/>
      <point x="391" y="719"/>
      <point x="397" y="708"/>
      <point x="397" y="693" type="curve" smooth="yes"/>
      <point x="397" y="417" type="line"/>
      <point x="408" y="417" type="line" smooth="yes"/>
      <point x="408" y="511" type="line" smooth="yes"/>
      <point x="408" y="523"/>
      <point x="413" y="530"/>
      <point x="424" y="530" type="curve" smooth="yes"/>
      <point x="469" y="530" type="line" smooth="yes"/>
      <point x="482" y="530"/>
      <point x="487" y="520"/>
      <point x="488" y="505" type="curve" smooth="yes"/>
      <point x="496" y="400" type="line"/>
      <point x="506" y="400" type="line" smooth="yes"/>
      <point x="500" y="487" type="line" smooth="yes"/>
      <point x="499" y="498"/>
      <point x="507" y="506"/>
      <point x="520" y="506" type="curve" smooth="yes"/>
      <point x="566" y="506" type="line" smooth="yes"/>
      <point x="580" y="506"/>
      <point x="585" y="495"/>
      <point x="586" y="481" type="curve" smooth="yes"/>
      <point x="593" y="381" type="line"/>
      <point x="604" y="381" type="line" smooth="yes"/>
      <point x="598" y="467" type="line" smooth="yes"/>
      <point x="597" y="478"/>
      <point x="606" y="484"/>
      <point x="616" y="484" type="curve" smooth="yes"/>
      <point x="665" y="484" type="line" smooth="yes"/>
      <point x="675" y="484"/>
      <point x="684" y="471"/>
      <point x="684" y="461" type="curve" smooth="yes"/>
    </contour>
  </outline>
</glyph>
<glyph name="indexupleft" format="1">
  <advance width="1000"/>
  <unicode hex="E13E"/>
  <outline>
    <contour>
      <point x="383" y="28" type="line"/>
      <point x="376" y="35"/>
      <point x="376" y="46"/>
      <point x="385" y="54" type="curve" smooth="yes"/>
      <point x="718" y="388" type="line" smooth="yes"/>
      <point x="727" y="398"/>
      <point x="737" y="397"/>
      <point x="745" y="389" type="curve"/>
      <point x="812" y="322" type="line"/>
      <point x="819" y="315"/>
      <point x="820" y="304"/>
      <point x="811" y="296" type="curve" smooth="yes"/>
      <point x="477" y="-38" type="line" smooth="yes"/>
      <point x="469" y="-46"/>
      <point x="458" y="-46"/>
      <point x="451" y="-39" type="curve" smooth="yes"/>
    </contour>
    <contour>
      <point x="352" y="147" type="curve" smooth="yes"/>
      <point x="189" y="323" type="line" smooth="yes"/>
      <point x="182" y="331"/>
      <point x="180" y="345"/>
      <point x="187" y="353" type="curve" smooth="yes"/>
      <point x="222" y="388" type="line" smooth="yes"/>
      <point x="228" y="395"/>
      <point x="240" y="397"/>
      <point x="246" y="388" type="curve" smooth="yes"/>
      <point x="303" y="323" type="line" smooth="yes"/>
      <point x="310" y="331" type="line"/>
      <point x="245" y="406" type="line" smooth="yes"/>
      <point x="235" y="418"/>
      <point x="231" y="428"/>
      <point x="241" y="439" type="curve" smooth="yes"/>
      <point x="273" y="471" type="line" smooth="yes"/>
      <point x="283" y="480"/>
      <point x="294" y="480"/>
      <point x="302" y="471" type="curve" smooth="yes"/>
      <point x="358" y="406" type="line" smooth="yes"/>
      <point x="366" y="414" type="line"/>
      <point x="296" y="492" type="line" smooth="yes"/>
      <point x="287" y="504"/>
      <point x="284" y="514"/>
      <point x="293" y="525" type="curve" smooth="yes"/>
      <point x="324" y="555" type="line" smooth="yes"/>
      <point x="332" y="564"/>
      <point x="341" y="563"/>
      <point x="349" y="554" type="curve" smooth="yes"/>
      <point x="416" y="487" type="line" smooth="yes"/>
      <point x="423" y="494" type="line"/>
      <point x="228" y="690" type="line" smooth="yes"/>
      <point x="218" y="700"/>
      <point x="214" y="713"/>
      <point x="224" y="722" type="curve" smooth="yes"/>
      <point x="260" y="758" type="line" smooth="yes"/>
      <point x="270" y="768"/>
      <point x="284" y="764"/>
      <point x="291" y="758" type="curve" smooth="yes"/>
      <point x="519" y="559" type="line" smooth="yes"/>
      <point x="534" y="547"/>
      <point x="549" y="531"/>
      <point x="557" y="520" type="curve" smooth="yes"/>
      <point x="669" y="355" type="line"/>
      <point x="428" y="112" type="line"/>
      <point x="389" y="125" type="line" smooth="yes"/>
      <point x="379" y="127"/>
      <point x="365" y="134"/>
    </contour>
  </outline>
</glyph>
<glyph name="indexdownleft.outline" format="1">
  <advance width="1000"/>
  <unicode hex="E142"/>
  <outline>
    <contour>
      <point x="832" y="258" type="curve"/>
      <point x="832" y="258"/>
      <point x="855" y="281"/>
      <point x="855" y="281" type="curve" smooth="yes"/>
      <point x="862" y="289"/>
      <point x="862" y="299"/>
      <point x="854" y="308" type="curve" smooth="yes"/>
      <point x="535" y="627" type="line" smooth="yes"/>
      <point x="526" y="635"/>
      <point x="517" y="634"/>
      <point x="509" y="627" type="curve"/>
      <point x="509" y="627"/>
      <point x="486" y="605"/>
      <point x="486" y="605" type="curve"/>
      <point x="479" y="596"/>
      <point x="478" y="587"/>
      <point x="486" y="578" type="curve" smooth="yes"/>
      <point x="807" y="259" type="line" smooth="yes"/>
      <point x="814" y="251"/>
      <point x="824" y="251"/>
    </contour>
    <contour>
      <point x="466" y="103" type="line" smooth="yes"/>
      <point x="445" y="82"/>
      <point x="425" y="82"/>
      <point x="408" y="101" type="curve" smooth="yes"/>
      <point x="380" y="128" type="line"/>
      <point x="372" y="136"/>
      <point x="369" y="147"/>
      <point x="372" y="157" type="curve"/>
      <point x="395" y="168" type="line"/>
      <point x="387" y="158"/>
      <point x="388" y="150"/>
      <point x="397" y="141" type="curve" smooth="yes"/>
      <point x="422" y="115" type="line" smooth="yes"/>
      <point x="432" y="106"/>
      <point x="441" y="107"/>
      <point x="452" y="117" type="curve" smooth="yes"/>
      <point x="522" y="177" type="line"/>
      <point x="538" y="163" type="line" smooth="yes"/>
    </contour>
    <contour>
      <point x="380" y="154" type="line" smooth="yes"/>
      <point x="359" y="134"/>
      <point x="339" y="134"/>
      <point x="321" y="153" type="curve" smooth="yes"/>
      <point x="296" y="178" type="line" smooth="yes"/>
      <point x="287" y="188"/>
      <point x="283" y="197"/>
      <point x="288" y="207" type="curve"/>
      <point x="312" y="214" type="line"/>
      <point x="303" y="207"/>
      <point x="305" y="199"/>
      <point x="312" y="191" type="curve" smooth="yes"/>
      <point x="336" y="168" type="line" smooth="yes"/>
      <point x="346" y="158"/>
      <point x="355" y="159"/>
      <point x="366" y="169" type="curve" smooth="yes"/>
      <point x="440" y="233" type="line"/>
      <point x="455" y="218" type="line" smooth="yes"/>
    </contour>
    <contour>
      <point x="477" y="111" type="line"/>
      <point x="470" y="104"/>
      <point x="474" y="95"/>
      <point x="480" y="89" type="curve" smooth="yes"/>
      <point x="507" y="62" type="line" smooth="yes"/>
      <point x="515" y="54"/>
      <point x="527" y="54"/>
      <point x="535" y="62" type="curve" smooth="yes"/>
      <point x="707" y="219" type="line" smooth="yes"/>
      <point x="719" y="232"/>
      <point x="727" y="247"/>
      <point x="729" y="256" type="curve" smooth="yes"/>
      <point x="740" y="295" type="line"/>
      <point x="514" y="522" type="line"/>
      <point x="348" y="409" type="line" smooth="yes"/>
      <point x="337" y="401"/>
      <point x="321" y="386"/>
      <point x="309" y="372" type="curve" smooth="yes"/>
      <point x="116" y="149" type="line" smooth="yes"/>
      <point x="109" y="141"/>
      <point x="106" y="130"/>
      <point x="117" y="120" type="curve" smooth="yes"/>
      <point x="138" y="99" type="line" smooth="yes"/>
      <point x="147" y="89"/>
      <point x="158" y="90"/>
      <point x="168" y="101" type="curve" smooth="yes"/>
      <point x="358" y="291" type="line"/>
      <point x="373" y="276" type="line" smooth="yes"/>
      <point x="373" y="276"/>
      <point x="183" y="86"/>
      <point x="183" y="86" type="curve" smooth="yes"/>
      <point x="162" y="65"/>
      <point x="142" y="65"/>
      <point x="123" y="84" type="curve" smooth="yes"/>
      <point x="102" y="105" type="line" smooth="yes"/>
      <point x="83" y="124"/>
      <point x="82" y="144"/>
      <point x="99" y="163" type="curve" smooth="yes"/>
      <point x="292" y="385" type="line" smooth="yes"/>
      <point x="307" y="401"/>
      <point x="324" y="418"/>
      <point x="337" y="427" type="curve" smooth="yes"/>
      <point x="498" y="537" type="line"/>
      <point x="471" y="565" type="line" smooth="yes"/>
      <point x="454" y="582"/>
      <point x="454" y="602"/>
      <point x="472" y="619" type="curve" smooth="yes"/>
      <point x="524" y="672" type="line" smooth="yes"/>
      <point x="542" y="690"/>
      <point x="560" y="691"/>
      <point x="580" y="671" type="curve" smooth="yes"/>
      <point x="899" y="352" type="line" smooth="yes"/>
      <point x="918" y="333"/>
      <point x="918" y="314"/>
      <point x="900" y="296" type="curve" smooth="yes"/>
      <point x="846" y="243" type="line" smooth="yes"/>
      <point x="829" y="226"/>
      <point x="809" y="227"/>
      <point x="793" y="242" type="curve" smooth="yes"/>
      <point x="758" y="277" type="line"/>
      <point x="750" y="250" type="line" smooth="yes"/>
      <point x="746" y="239"/>
      <point x="737" y="219"/>
      <point x="722" y="204" type="curve" smooth="yes"/>
      <point x="550" y="46" type="line" smooth="yes"/>
      <point x="534" y="31"/>
      <point x="509" y="30"/>
      <point x="493" y="46" type="curve" smooth="yes"/>
      <point x="464" y="74" type="line"/>
      <point x="457" y="82"/>
      <point x="451" y="93"/>
      <point x="456" y="105" type="curve"/>
    </contour>
  </outline>
</glyph>
<glyph name="indexupright.outline" format="1">
  <advance width="1000"/>
  <unicode hex="E145"/>
  <outline>
    <contour>
      <point x="602" y="28" type="curve"/>
      <point x="602" y="28"/>
      <point x="579" y="5"/>
      <point x="579" y="5" type="curve" smooth="yes"/>
      <point x="571" y="-2"/>
      <point x="561" y="-2"/>
      <point x="553" y="6" type="curve" smooth="yes"/>
      <point x="233" y="325" type="line" smooth="yes"/>
      <point x="225" y="334"/>
      <point x="226" y="343"/>
      <point x="233" y="351" type="curve"/>
      <point x="233" y="351"/>
      <point x="255" y="374"/>
      <point x="255" y="374" type="curve"/>
      <point x="264" y="381"/>
      <point x="273" y="382"/>
      <point x="282" y="374" type="curve" smooth="yes"/>
      <point x="601" y="53" type="line" smooth="yes"/>
      <point x="609" y="46"/>
      <point x="609" y="36"/>
    </contour>
    <contour>
      <point x="757" y="394" type="line" smooth="yes"/>
      <point x="778" y="415"/>
      <point x="778" y="435"/>
      <point x="759" y="452" type="curve" smooth="yes"/>
      <point x="732" y="480" type="line"/>
      <point x="724" y="488"/>
      <point x="713" y="491"/>
      <point x="703" y="488" type="curve"/>
      <point x="692" y="465" type="line"/>
      <point x="702" y="473"/>
      <point x="710" y="472"/>
      <point x="719" y="463" type="curve" smooth="yes"/>
      <point x="745" y="438" type="line" smooth="yes"/>
      <point x="754" y="428"/>
      <point x="753" y="419"/>
      <point x="743" y="408" type="curve" smooth="yes"/>
      <point x="683" y="338" type="line"/>
      <point x="697" y="322" type="line" smooth="yes"/>
    </contour>
    <contour>
      <point x="706" y="480" type="line" smooth="yes"/>
      <point x="726" y="501"/>
      <point x="726" y="521"/>
      <point x="707" y="539" type="curve" smooth="yes"/>
      <point x="682" y="564" type="line" smooth="yes"/>
      <point x="672" y="573"/>
      <point x="663" y="577"/>
      <point x="653" y="572" type="curve"/>
      <point x="646" y="548" type="line"/>
      <point x="653" y="557"/>
      <point x="661" y="555"/>
      <point x="669" y="548" type="curve" smooth="yes"/>
      <point x="692" y="524" type="line" smooth="yes"/>
      <point x="702" y="514"/>
      <point x="701" y="505"/>
      <point x="691" y="494" type="curve" smooth="yes"/>
      <point x="627" y="420" type="line"/>
      <point x="642" y="405" type="line" smooth="yes"/>
    </contour>
    <contour>
      <point x="749" y="383" type="line"/>
      <point x="756" y="390"/>
      <point x="765" y="386"/>
      <point x="771" y="380" type="curve" smooth="yes"/>
      <point x="798" y="353" type="line" smooth="yes"/>
      <point x="806" y="345"/>
      <point x="806" y="333"/>
      <point x="798" y="325" type="curve" smooth="yes"/>
      <point x="641" y="153" type="line" smooth="yes"/>
      <point x="628" y="141"/>
      <point x="613" y="133"/>
      <point x="604" y="131" type="curve" smooth="yes"/>
      <point x="565" y="120" type="line"/>
      <point x="338" y="346" type="line"/>
      <point x="451" y="512" type="line" smooth="yes"/>
      <point x="459" y="523"/>
      <point x="474" y="539"/>
      <point x="488" y="551" type="curve" smooth="yes"/>
      <point x="711" y="744" type="line" smooth="yes"/>
      <point x="719" y="751"/>
      <point x="730" y="754"/>
      <point x="740" y="743" type="curve" smooth="yes"/>
      <point x="761" y="722" type="line" smooth="yes"/>
      <point x="771" y="713"/>
      <point x="770" y="702"/>
      <point x="759" y="692" type="curve" smooth="yes"/>
      <point x="569" y="502" type="line"/>
      <point x="584" y="487" type="line" smooth="yes"/>
      <point x="584" y="487"/>
      <point x="774" y="677"/>
      <point x="774" y="677" type="curve" smooth="yes"/>
      <point x="795" y="698"/>
      <point x="795" y="718"/>
      <point x="776" y="737" type="curve" smooth="yes"/>
      <point x="755" y="758" type="line" smooth="yes"/>
      <point x="736" y="777"/>
      <point x="716" y="778"/>
      <point x="697" y="761" type="curve" smooth="yes"/>
      <point x="475" y="568" type="line" smooth="yes"/>
      <point x="459" y="553"/>
      <point x="442" y="536"/>
      <point x="433" y="523" type="curve" smooth="yes"/>
      <point x="323" y="362" type="line"/>
      <point x="295" y="389" type="line" smooth="yes"/>
      <point x="278" y="406"/>
      <point x="259" y="406"/>
      <point x="241" y="388" type="curve" smooth="yes"/>
      <point x="188" y="336" type="line" smooth="yes"/>
      <point x="170" y="318"/>
      <point x="169" y="300"/>
      <point x="189" y="280" type="curve" smooth="yes"/>
      <point x="508" y="-39" type="line" smooth="yes"/>
      <point x="527" y="-58"/>
      <point x="546" y="-58"/>
      <point x="564" y="-40" type="curve" smooth="yes"/>
      <point x="617" y="14" type="line" smooth="yes"/>
      <point x="634" y="31"/>
      <point x="633" y="51"/>
      <point x="618" y="67" type="curve" smooth="yes"/>
      <point x="583" y="102" type="line"/>
      <point x="610" y="110" type="line" smooth="yes"/>
      <point x="621" y="114"/>
      <point x="641" y="123"/>
      <point x="656" y="138" type="curve" smooth="yes"/>
      <point x="814" y="310" type="line" smooth="yes"/>
      <point x="829" y="326"/>
      <point x="830" y="351"/>
      <point x="814" y="367" type="curve" smooth="yes"/>
      <point x="786" y="396" type="line"/>
      <point x="778" y="403"/>
      <point x="767" y="409"/>
      <point x="755" y="404" type="curve"/>
    </contour>
  </outline>
</glyph>
<glyph name="indexdown.salt" format="1">
  <advance width="1000"/>
  <unicode hex="E148"/>
  <outline>
    <contour>
      <point x="347" y="588" type="curve" smooth="yes"/>
      <point x="735" y="588" type="line" smooth="yes"/>
      <point x="747" y="588"/>
      <point x="753" y="594"/>
      <point x="753" y="606" type="curve"/>
      <point x="753" y="701" type="line"/>
      <point x="753" y="712"/>
      <point x="747" y="719"/>
      <point x="735" y="719" type="curve" smooth="yes"/>
      <point x="348" y="719" type="line" smooth="yes"/>
      <point x="335" y="719"/>
      <point x="328" y="712"/>
      <point x="328" y="701" type="curve" smooth="yes"/>
      <point x="328" y="605" type="line"/>
      <point x="328" y="594"/>
      <point x="335" y="588"/>
    </contour>
    <contour>
      <point x="249" y="380" type="curve" smooth="yes"/>
      <point x="274" y="339" type="line" smooth="yes"/>
      <point x="278" y="332"/>
      <point x="289" y="330"/>
      <point x="302" y="335" type="curve" smooth="yes"/>
      <point x="426" y="382" type="line" smooth="yes"/>
      <point x="465" y="397"/>
      <point x="487" y="398"/>
      <point x="510" y="387" type="curve" smooth="yes"/>
      <point x="558" y="365" type="line" smooth="yes"/>
      <point x="581" y="355"/>
      <point x="599" y="348"/>
      <point x="600" y="319" type="curve" smooth="yes"/>
      <point x="611" y="21" type="line" smooth="yes"/>
      <point x="611" y="9"/>
      <point x="619" y="2"/>
      <point x="629" y="2" type="curve" smooth="yes"/>
      <point x="683" y="2" type="line" smooth="yes"/>
      <point x="693" y="2"/>
      <point x="699" y="7"/>
      <point x="701" y="16" type="curve" smooth="yes"/>
      <point x="747" y="354" type="line" smooth="yes"/>
      <point x="750" y="377"/>
      <point x="750" y="399"/>
      <point x="739" y="423" type="curve" smooth="yes"/>
      <point x="670" y="577" type="line"/>
      <point x="449" y="577" type="line"/>
      <point x="395" y="513" type="line" smooth="yes"/>
      <point x="376" y="490"/>
      <point x="359" y="480"/>
      <point x="325" y="456" type="curve" smooth="yes"/>
      <point x="254" y="405" type="line" smooth="yes"/>
      <point x="245" y="399"/>
      <point x="244" y="388"/>
    </contour>
    <contour>
      <point x="395" y="360" type="line"/>
      <point x="425" y="296" type="line" smooth="yes"/>
      <point x="435" y="274"/>
      <point x="455" y="256"/>
      <point x="487" y="256" type="curve" smooth="yes"/>
      <point x="591" y="257" type="line"/>
      <point x="589" y="317" type="line" smooth="yes"/>
      <point x="588" y="338"/>
      <point x="579" y="344"/>
      <point x="560" y="353" type="curve" smooth="yes"/>
      <point x="513" y="375" type="line"/>
      <point x="508" y="370"/>
      <point x="505" y="360"/>
      <point x="505" y="346" type="curve"/>
      <point x="500" y="346" type="line"/>
      <point x="499" y="367"/>
      <point x="496" y="374"/>
      <point x="483" y="385" type="curve"/>
      <point x="467" y="386"/>
      <point x="452" y="381"/>
      <point x="432" y="374" type="curve" smooth="yes"/>
    </contour>
  </outline>
</glyph>
<glyph name="uni25D6.v_deco" format="1">
  <advance width="1280.0"/>
  <unicode hex="E167"/>
  <outline>
    <contour>
      <point x="210" y="410" type="curve"/>
      <point x="133" y="410"/>
      <point x="70" y="347"/>
      <point x="70" y="270" type="curve"/>
      <point x="46" y="270" type="line" smooth="yes"/>
      <point x="21" y="270"/>
      <point x="10" y="259"/>
      <point x="10" y="234" type="curve" smooth="yes"/>
      <point x="10" y="156" type="line" smooth="yes"/>
      <point x="10" y="131"/>
      <point x="21" y="120"/>
      <point x="46" y="120" type="curve" smooth="yes"/>
      <point x="1234" y="120" type="line" smooth="yes"/>
      <point x="1259" y="120"/>
      <point x="1270" y="131"/>
      <point x="1270" y="156" type="curve" smooth="yes"/>
      <point x="1270" y="234" type="line" smooth="yes"/>
      <point x="1270" y="259"/>
      <point x="1259" y="270"/>
      <point x="1234" y="270" type="curve" smooth="yes"/>
      <point x="1210" y="270" type="line"/>
      <point x="1210" y="347"/>
      <point x="1147" y="410"/>
      <point x="1070" y="410" type="curve"/>
      <point x="1050" y="524"/>
      <point x="939" y="600"/>
      <point x="640" y="600" type="curve" smooth="yes"/>
      <point x="341" y="600"/>
      <point x="230" y="524"/>
    </contour>
  </outline>
</glyph>
<glyph name="uni25D7.v_spike" format="1">
  <advance width="1280.17026536"/>
  <unicode hex="E170"/>
  <outline>
    <contour>
      <point x="100" y="538" type="line"/>
      <point x="100" y="486" type="line" smooth="yes"/>
      <point x="100" y="466"/>
      <point x="100" y="460"/>
      <point x="96" y="428" type="curve" smooth="yes"/>
      <point x="76" y="258" type="line" smooth="yes"/>
      <point x="74" y="243"/>
      <point x="90" y="232"/>
      <point x="104" y="238" type="curve" smooth="yes"/>
      <point x="394" y="352" type="line"/>
      <point x="403" y="357"/>
      <point x="416" y="355"/>
      <point x="424" y="348" type="curve" smooth="yes"/>
      <point x="613" y="191" type="line" smooth="yes"/>
      <point x="628" y="178"/>
      <point x="652" y="178"/>
      <point x="667" y="191" type="curve" smooth="yes"/>
      <point x="856" y="348" type="line" smooth="yes"/>
      <point x="864" y="355"/>
      <point x="877" y="356"/>
      <point x="886" y="352" type="curve" smooth="yes"/>
      <point x="1176" y="238" type="line" smooth="yes"/>
      <point x="1190" y="232"/>
      <point x="1206" y="243"/>
      <point x="1204" y="258" type="curve" smooth="yes"/>
      <point x="1184" y="428" type="line" smooth="yes"/>
      <point x="1180" y="460"/>
      <point x="1180" y="466"/>
      <point x="1180" y="486" type="curve" smooth="yes"/>
      <point x="1180" y="538" type="line"/>
    </contour>
  </outline>
</glyph>
<glyph name="uni25D7.square" format="1">
  <advance width="350"/>
  <unicode hex="E172"/>
  <outline>
    <contour>
      <point x="186" y="-180" type="line"/>
      <point x="229" y="-180"/>
      <point x="250" y="-159"/>
      <point x="250" y="-116" type="curve" smooth="yes"/>
      <point x="250" y="836" type="line" smooth="yes"/>
      <point x="250" y="879"/>
      <point x="229" y="900"/>
      <point x="186" y="900" type="curve" smooth="yes"/>
      <point x="-40" y="900" type="line"/>
      <point x="-40" y="-180" type="line"/>
    </contour>
  </outline>
</glyph>
<glyph name="uni25D6.v_square" format="1">
  <advance width="1280"/>
  <unicode hex="E173"/>
  <outline>
    <contour>
      <point x="1180" y="441" type="line"/>
      <point x="1180" y="484"/>
      <point x="1159" y="505"/>
      <point x="1116" y="505" type="curve" smooth="yes"/>
      <point x="164" y="505" type="line" smooth="yes"/>
      <point x="121" y="505"/>
      <point x="100" y="484"/>
      <point x="100" y="441" type="curve" smooth="yes"/>
      <point x="100" y="215" type="line"/>
      <point x="1180" y="215" type="line"/>
    </contour>
  </outline>
</glyph>
<glyph name="uni25D7.v_rounded" format="1">
  <advance width="1280"/>
  <unicode hex="E178"/>
  <outline>
    <contour>
      <point x="100" y="520" type="curve"/>
      <point x="100" y="455" type="line" smooth="yes"/>
      <point x="100" y="302"/>
      <point x="206" y="200"/>
      <point x="640" y="200" type="curve" smooth="yes"/>
      <point x="1074" y="200"/>
      <point x="1180" y="302"/>
      <point x="1180" y="455" type="curve" smooth="yes"/>
      <point x="1180" y="520" type="line"/>
      <point x="1180" y="520"/>
      <point x="100" y="520"/>
    </contour>
  </outline>
</glyph>
<glyph name="uni21AC.arrow" format="1">
  <advance width="1000.0"/>
  <unicode hex="E17A"/>
  <outline>
    <contour>
      <point x="993" y="1008" type="line"/>
      <point x="993" y="620" type="line" smooth="yes"/>
      <point x="993" y="68"/>
      <point x="700" y="-180"/>
      <point x="259" y="-180" type="curve" smooth="yes"/>
      <point x="-40" y="-180" type="line"/>
      <point x="-40" y="900" type="line"/>
      <point x="19" y="900" type="line" smooth="yes"/>
      <point x="70" y="900"/>
      <point x="93" y="915"/>
      <point x="93" y="961" type="curve" smooth="yes"/>
      <point x="93" y="1008" type="line"/>
      <point x="-44" y="1008" type="line" smooth="yes"/>
      <point x="-84" y="1008"/>
      <point x="-95" y="1048"/>
      <point x="-54" y="1088" type="curve" smooth="yes"/>
      <point x="487" y="1604" type="line" smooth="yes"/>
      <point x="532" y="1647"/>
      <point x="566" y="1642"/>
      <point x="607" y="1604" type="curve" smooth="yes"/>
      <point x="1156" y="1088" type="line" smooth="yes"/>
      <point x="1196" y="1050"/>
      <point x="1187" y="1008"/>
      <point x="1146" y="1008" type="curve" smooth="yes"/>
    </contour>
  </outline>
</glyph>
<glyph name="uni25D7.v_wings" format="1">
  <advance width="1280.0"/>
  <unicode hex="E180"/>
  <outline>
    <contour>
      <point x="-90" y="588" type="curve" smooth="yes"/>
      <point x="-90" y="112" type="line" smooth="yes"/>
      <point x="-90" y="86"/>
      <point x="-79" y="76"/>
      <point x="-54" y="76" type="curve" smooth="yes"/>
      <point x="100" y="76" type="line"/>
      <point x="100" y="-64" type="line" smooth="yes"/>
      <point x="100" y="-90"/>
      <point x="111" y="-100"/>
      <point x="136" y="-100" type="curve" smooth="yes"/>
      <point x="1144" y="-100" type="line" smooth="yes"/>
      <point x="1169" y="-100"/>
      <point x="1180" y="-90"/>
      <point x="1180" y="-64" type="curve" smooth="yes"/>
      <point x="1180" y="76" type="line"/>
      <point x="1334" y="76" type="line" smooth="yes"/>
      <point x="1359" y="76"/>
      <point x="1370" y="86"/>
      <point x="1370" y="112" type="curve" smooth="yes"/>
      <point x="1370" y="588" type="line" smooth="yes"/>
      <point x="1370" y="614"/>
      <point x="1359" y="624"/>
      <point x="1334" y="624" type="curve"/>
      <point x="1230" y="624"/>
      <point x="1180" y="680"/>
      <point x="1180" y="777" type="curve" smooth="yes"/>
      <point x="1180" y="820" type="line" smooth="yes"/>
      <point x="100" y="820" type="line" smooth="yes"/>
      <point x="100" y="784" type="line" smooth="yes"/>
      <point x="100" y="683"/>
      <point x="51" y="624"/>
      <point x="-54" y="624" type="curve"/>
      <point x="-79" y="624"/>
      <point x="-90" y="614"/>
    </contour>
  </outline>
</glyph>
<glyph name="uni2B1B.chevron_e" format="1">
  <advance width="1280.0"/>
  <unicode hex="E181"/>
  <outline>
    <contour>
      <point x="1045" y="900" type="line" smooth="yes"/>
      <point x="1070" y="900"/>
      <point x="1072" y="888"/>
      <point x="1081" y="864" type="curve" smooth="yes"/>
      <point x="1270" y="387" type="line" smooth="yes"/>
      <point x="1277" y="369"/>
      <point x="1277" y="348"/>
      <point x="1270" y="330" type="curve" smooth="yes"/>
      <point x="1081" y="-144" type="line" smooth="yes"/>
      <point x="1072" y="-168"/>
      <point x="1070" y="-180"/>
      <point x="1045" y="-180" type="curve" smooth="yes"/>
      <point x="37" y="-180" type="line" smooth="yes"/>
      <point x="12" y="-180"/>
      <point x="-7" y="-164"/>
      <point x="3" y="-140" type="curve" smooth="yes"/>
      <point x="201" y="360" type="line"/>
      <point x="3" y="860" type="line" smooth="yes"/>
      <point x="-7" y="884"/>
      <point x="12" y="900"/>
      <point x="37" y="900" type="curve" smooth="yes"/>
    </contour>
  </outline>
</glyph>
<glyph name="uni2B1B.chevron_n" format="1">
  <advance width="1280"/>
  <unicode hex="E182"/>
  <outline>
    <contour>
      <point x="1180.0" y="767.234075745" type="line" smooth="yes"/>
      <point x="1180.0" y="792.234075745"/>
      <point x="1168.0" y="794.234075745"/>
      <point x="1144.0" y="803.234075745" type="curve" smooth="yes"/>
      <point x="667.0" y="992.234075745" type="line" smooth="yes"/>
      <point x="649.0" y="999.234075745"/>
      <point x="628.0" y="999.234075745"/>
      <point x="610.0" y="992.234075745" type="curve" smooth="yes"/>
      <point x="136.0" y="803.234075745" type="line" smooth="yes"/>
      <point x="112.0" y="794.234075745"/>
      <point x="100.0" y="792.234075745"/>
      <point x="100.0" y="767.234075745" type="curve" smooth="yes"/>
      <point x="100.0" y="-240.765924255" type="line" smooth="yes"/>
      <point x="100.0" y="-265.765924255"/>
      <point x="116.0" y="-284.765924255"/>
      <point x="140.0" y="-274.765924255" type="curve" smooth="yes"/>
      <point x="640.0" y="-76.7659242547" type="line"/>
      <point x="1140.0" y="-274.765924255" type="line" smooth="yes"/>
      <point x="1164.0" y="-284.765924255"/>
      <point x="1180.0" y="-265.765924255"/>
      <point x="1180.0" y="-240.765924255" type="curve" smooth="yes"/>
    </contour>
  </outline>
</glyph>
<glyph name="uni2B1B.semichevron_n" format="1">
  <advance width="1000"/>
  <unicode hex="E187"/>
  <outline>
    <contour>
      <point x="-40" y="15.1234311493" type="line" smooth="yes"/>
      <point x="-40" y="15.1234311493"/>
      <point x="1040" y="15.1234311493"/>
      <point x="1040" y="15.1234311493" type="curve"/>
      <point x="1040" y="670.123431149" type="line" smooth="yes"/>
      <point x="1040" y="695.123431149"/>
      <point x="1024" y="714.123431149"/>
      <point x="984" y="698.123431149" type="curve" smooth="yes"/>
      <point x="500" y="506.123431149" type="line"/>
      <point x="12" y="700.123431149" type="line" smooth="yes"/>
      <point x="-24" y="714.123431149"/>
      <point x="-40" y="695.123431149"/>
      <point x="-40" y="670.123431149" type="curve"/>
    </contour>
  </outline>
</glyph>
<glyph name="uni2B1B.semichevron_s" format="1">
  <advance width="1000"/>
  <unicode hex="E188"/>
  <outline>
    <contour>
      <point x="1040" y="704.876568851" type="line" smooth="yes"/>
      <point x="1040" y="704.876568851"/>
      <point x="-40" y="704.876568851"/>
      <point x="-40" y="704.876568851" type="curve"/>
      <point x="-40" y="49.8765688507" type="line" smooth="yes"/>
      <point x="-40" y="24.8765688507"/>
      <point x="-24" y="5.87656885066"/>
      <point x="16" y="21.8765688507" type="curve" smooth="yes"/>
      <point x="500" y="213.876568851" type="line"/>
      <point x="988" y="19.8765688507" type="line" smooth="yes"/>
      <point x="1024" y="5.87656885066"/>
      <point x="1040" y="24.8765688507"/>
      <point x="1040" y="49.8765688507" type="curve"/>
    </contour>
  </outline>
</glyph>
<glyph name="Aogonek.v" format="1">
  <advance width="1000"/>
  <unicode hex="E192"/>
  <outline>
    <contour>
      <point x="477" y="510" type="line"/>
      <point x="483" y="523"/>
      <point x="485" y="527"/>
      <point x="496" y="527" type="curve" smooth="yes"/>
      <point x="501" y="527" type="line" smooth="yes"/>
      <point x="512" y="527"/>
      <point x="514" y="523"/>
      <point x="520" y="510" type="curve"/>
      <point x="567" y="378" type="line"/>
      <point x="430" y="378" type="line"/>
    </contour>
    <contour>
      <point x="801" y="-112" type="curve" smooth="yes"/>
      <point x="801" y="-40" type="line" smooth="yes"/>
      <point x="801" y="-14"/>
      <point x="793" y="-6"/>
      <point x="765" y="-6" type="curve" smooth="yes"/>
      <point x="724" y="-6" type="line"/>
      <point x="731" y="40" type="line"/>
      <point x="767" y="40" type="line" smooth="yes"/>
      <point x="792" y="40"/>
      <point x="803" y="51"/>
      <point x="803" y="76" type="curve" smooth="yes"/>
      <point x="803" y="320" type="line" smooth="yes"/>
      <point x="803" y="389"/>
      <point x="793" y="404"/>
      <point x="764" y="480" type="curve" smooth="yes"/>
      <point x="677" y="687" type="line" smooth="yes"/>
      <point x="668" y="712"/>
      <point x="653" y="720"/>
      <point x="627" y="720" type="curve" smooth="yes"/>
      <point x="368" y="720" type="line" smooth="yes"/>
      <point x="342" y="720"/>
      <point x="326" y="712"/>
      <point x="317" y="687" type="curve" smooth="yes"/>
      <point x="240" y="480" type="line" smooth="yes"/>
      <point x="211" y="404"/>
      <point x="201" y="389"/>
      <point x="201" y="320" type="curve" smooth="yes"/>
      <point x="201" y="76" type="line" smooth="yes"/>
      <point x="201" y="51"/>
      <point x="211" y="40"/>
      <point x="237" y="40" type="curve" smooth="yes"/>
      <point x="384" y="40" type="line" smooth="yes"/>
      <point x="409" y="40"/>
      <point x="420" y="51"/>
      <point x="420" y="76" type="curve" smooth="yes"/>
      <point x="420" y="196" type="line"/>
      <point x="577" y="196" type="line"/>
      <point x="577" y="107" type="line"/>
      <point x="556" y="-11" type="line" smooth="yes"/>
      <point x="542" y="-104"/>
      <point x="571" y="-146"/>
      <point x="657" y="-146" type="curve" smooth="yes"/>
      <point x="768" y="-146" type="line" smooth="yes"/>
      <point x="794" y="-146"/>
      <point x="801" y="-138"/>
    </contour>
  </outline>
</glyph>
<glyph name="Eogonek.v" format="1">
  <advance width="1000"/>
  <unicode hex="E1A0"/>
  <outline>
    <contour>
      <point x="790" y="-112" type="curve" smooth="yes"/>
      <point x="790" y="-40" type="line" smooth="yes"/>
      <point x="790" y="-14"/>
      <point x="782" y="-6"/>
      <point x="754" y="-6" type="curve" smooth="yes"/>
      <point x="713" y="-6" type="line"/>
      <point x="720" y="40" type="line"/>
      <point x="754" y="40" type="line" smooth="yes"/>
      <point x="779" y="40"/>
      <point x="790" y="51"/>
      <point x="790" y="76" type="curve" smooth="yes"/>
      <point x="790" y="189" type="line" smooth="yes"/>
      <point x="790" y="214"/>
      <point x="779" y="225"/>
      <point x="754" y="225" type="curve" smooth="yes"/>
      <point x="424" y="225" type="line"/>
      <point x="424" y="301" type="line"/>
      <point x="673" y="301" type="line" smooth="yes"/>
      <point x="698" y="301"/>
      <point x="709" y="312"/>
      <point x="709" y="337" type="curve" smooth="yes"/>
      <point x="709" y="432" type="line" smooth="yes"/>
      <point x="709" y="458"/>
      <point x="698" y="468"/>
      <point x="673" y="468" type="curve" smooth="yes"/>
      <point x="424" y="468" type="line"/>
      <point x="424" y="535" type="line"/>
      <point x="754" y="535" type="line" smooth="yes"/>
      <point x="779" y="535"/>
      <point x="790" y="546"/>
      <point x="790" y="571" type="curve" smooth="yes"/>
      <point x="790" y="684" type="line" smooth="yes"/>
      <point x="790" y="709"/>
      <point x="779" y="720"/>
      <point x="754" y="720" type="curve" smooth="yes"/>
      <point x="236" y="720" type="line" smooth="yes"/>
      <point x="211" y="720"/>
      <point x="200" y="709"/>
      <point x="200" y="684" type="curve" smooth="yes"/>
      <point x="200" y="76" type="line" smooth="yes"/>
      <point x="200" y="51"/>
      <point x="211" y="40"/>
      <point x="236" y="40" type="curve" smooth="yes"/>
      <point x="554" y="40" type="line"/>
      <point x="545" y="-11" type="line" smooth="yes"/>
      <point x="531" y="-104"/>
      <point x="560" y="-146"/>
      <point x="646" y="-146" type="curve" smooth="yes"/>
      <point x="757" y="-146" type="line" smooth="yes"/>
      <point x="783" y="-146"/>
      <point x="790" y="-138"/>
    </contour>
  </outline>
</glyph>
<glyph name="Iogonek.v" format="1">
  <advance width="1000"/>
  <unicode hex="E1AE"/>
  <outline>
    <contour>
      <point x="791" y="-112" type="curve" smooth="yes"/>
      <point x="791" y="-40" type="line" smooth="yes"/>
      <point x="791" y="-14"/>
      <point x="783" y="-6"/>
      <point x="755" y="-6" type="curve" smooth="yes"/>
      <point x="714" y="-6" type="line"/>
      <point x="721" y="40" type="line"/>
      <point x="755" y="40" type="line" smooth="yes"/>
      <point x="780" y="40"/>
      <point x="791" y="51"/>
      <point x="791" y="76" type="curve" smooth="yes"/>
      <point x="791" y="195" type="line" smooth="yes"/>
      <point x="791" y="220"/>
      <point x="780" y="231"/>
      <point x="755" y="231" type="curve" smooth="yes"/>
      <point x="621" y="231" type="line"/>
      <point x="621" y="527" type="line"/>
      <point x="755" y="527" type="line" smooth="yes"/>
      <point x="780" y="527"/>
      <point x="791" y="538"/>
      <point x="791" y="563" type="curve" smooth="yes"/>
      <point x="791" y="684" type="line" smooth="yes"/>
      <point x="791" y="709"/>
      <point x="780" y="720"/>
      <point x="755" y="720" type="curve" smooth="yes"/>
      <point x="245" y="720" type="line" smooth="yes"/>
      <point x="220" y="720"/>
      <point x="209" y="709"/>
      <point x="209" y="684" type="curve" smooth="yes"/>
      <point x="209" y="563" type="line" smooth="yes"/>
      <point x="209" y="538"/>
      <point x="220" y="527"/>
      <point x="245" y="527" type="curve" smooth="yes"/>
      <point x="379" y="527" type="line"/>
      <point x="379" y="231" type="line"/>
      <point x="245" y="231" type="line" smooth="yes"/>
      <point x="220" y="231"/>
      <point x="209" y="220"/>
      <point x="209" y="195" type="curve" smooth="yes"/>
      <point x="209" y="76" type="line" smooth="yes"/>
      <point x="209" y="51"/>
      <point x="220" y="40"/>
      <point x="245" y="40" type="curve" smooth="yes"/>
      <point x="555" y="40" type="line"/>
      <point x="546" y="-11" type="line" smooth="yes"/>
      <point x="532" y="-104"/>
      <point x="561" y="-146"/>
      <point x="647" y="-146" type="curve" smooth="yes"/>
      <point x="758" y="-146" type="line" smooth="yes"/>
      <point x="784" y="-146"/>
      <point x="791" y="-138"/>
    </contour>
  </outline>
</glyph>
